<?xml version="1.0" encoding="utf-8"?>
<!-- Generator: Adobe Illustrator 16.0.0, SVG Export Plug-In . SVG Version: 6.00 Build 0)  -->
<!DOCTYPE svg PUBLIC "-//W3C//DTD SVG 1.1//EN" "http://www.w3.org/Graphics/SVG/1.1/DTD/svg11.dtd">
<svg version="1.1" id="Layer_1" xmlns="http://www.w3.org/2000/svg" xmlns:xlink="http://www.w3.org/1999/xlink" x="0px" y="0px"
	 width="121.89px" height="64.57px" viewBox="0 0 121.89 64.57" enable-background="new 0 0 121.89 64.57" xml:space="preserve">
<g>
	
		<polyline fill="none" stroke="#1F1A17" stroke-width="0.7193" stroke-linecap="round" stroke-linejoin="round" stroke-miterlimit="10" points="
		12.409,40.579 14.063,40.579 14.063,64.404 12.409,64.404 12.409,40.579 	"/>
	
		<polyline fill="none" stroke="#1F1A17" stroke-width="0.7193" stroke-linecap="round" stroke-linejoin="round" stroke-miterlimit="10" points="
		21.84,40.579 23.495,40.579 23.495,64.238 21.84,64.238 21.84,40.579 	"/>
	
		<polyline fill="none" stroke="#1F1A17" stroke-width="0.7193" stroke-linecap="round" stroke-linejoin="round" stroke-miterlimit="10" points="
		31.602,40.579 33.257,40.579 33.257,64.404 31.602,64.404 31.602,40.579 	"/>
	
		<polyline fill="none" stroke="#1F1A17" stroke-width="0.7193" stroke-linecap="round" stroke-linejoin="round" stroke-miterlimit="10" points="
		80.412,40.745 82.065,40.745 82.065,64.57 80.412,64.57 80.412,40.745 	"/>
	
		<polyline fill="none" stroke="#1F1A17" stroke-width="0.7193" stroke-linecap="round" stroke-linejoin="round" stroke-miterlimit="10" points="
		70.815,40.579 72.471,40.579 72.471,64.404 70.815,64.404 70.815,40.579 	"/>
	
		<polyline fill="none" stroke="#1F1A17" stroke-width="0.7193" stroke-linecap="round" stroke-linejoin="round" stroke-miterlimit="10" points="
		90.009,40.745 91.663,40.745 91.663,64.404 90.009,64.404 90.009,40.745 	"/>
	
		<polyline fill="none" stroke="#1F1A17" stroke-width="0.7193" stroke-linecap="round" stroke-linejoin="round" stroke-miterlimit="10" points="
		99.273,40.579 100.928,40.579 100.928,64.404 99.273,64.404 99.273,40.579 	"/>
	<rect x="7.281" y="6.164" fill-rule="evenodd" clip-rule="evenodd" fill="#FFFFFF" width="0.331" height="34.416"/>
	<rect x="7.281" y="6.164" fill-rule="evenodd" clip-rule="evenodd" fill="#FFFFFF" width="0.826" height="34.416"/>
	<rect x="7.611" y="6.164" fill-rule="evenodd" clip-rule="evenodd" fill="#FFFFFF" width="0.827" height="34.416"/>
	<rect x="8.107" y="6.164" fill-rule="evenodd" clip-rule="evenodd" fill="#FFFFFF" width="0.662" height="34.416"/>
	<rect x="8.438" y="6.164" fill-rule="evenodd" clip-rule="evenodd" fill="#FFFFFF" width="0.828" height="34.416"/>
	<rect x="8.769" y="6.164" fill-rule="evenodd" clip-rule="evenodd" fill="#FFFFFF" width="0.828" height="34.416"/>
	<rect x="9.266" y="6.164" fill-rule="evenodd" clip-rule="evenodd" fill="#FFFFFF" width="0.662" height="34.416"/>
	<rect x="9.597" y="6.164" fill-rule="evenodd" clip-rule="evenodd" fill="#FFFFFF" width="0.662" height="34.416"/>
	<rect x="9.928" y="6.164" fill-rule="evenodd" clip-rule="evenodd" fill="#FFFFFF" width="0.827" height="34.416"/>
	<rect x="10.258" y="6.164" fill-rule="evenodd" clip-rule="evenodd" fill="#FFFFFF" width="0.828" height="34.416"/>
	<rect x="10.755" y="6.164" fill-rule="evenodd" clip-rule="evenodd" fill="#FFFFFF" width="0.662" height="34.416"/>
	<rect x="11.086" y="6.164" fill-rule="evenodd" clip-rule="evenodd" fill="#FFFFFF" width="0.827" height="34.416"/>
	<rect x="11.417" y="6.164" fill-rule="evenodd" clip-rule="evenodd" fill="#FFFFFF" width="0.827" height="34.416"/>
	<rect x="11.913" y="6.164" fill-rule="evenodd" clip-rule="evenodd" fill="#FFFFFF" width="0.662" height="34.416"/>
	<rect x="12.244" y="6.164" fill-rule="evenodd" clip-rule="evenodd" fill="#FFFFFF" width="0.828" height="34.416"/>
	<rect x="12.575" y="6.164" fill-rule="evenodd" clip-rule="evenodd" fill="#FFFFFF" width="0.827" height="34.416"/>
	<rect x="13.071" y="6.164" fill-rule="evenodd" clip-rule="evenodd" fill="#FFFFFF" width="0.662" height="34.416"/>
	<rect x="13.402" y="6.164" fill-rule="evenodd" clip-rule="evenodd" fill="#FFFFFF" width="0.827" height="34.416"/>
	<rect x="13.733" y="6.164" fill-rule="evenodd" clip-rule="evenodd" fill="#FFFFFF" width="0.827" height="34.416"/>
	<rect x="14.229" y="6.164" fill-rule="evenodd" clip-rule="evenodd" fill="#FFFFFF" width="0.662" height="34.416"/>
	<rect x="14.56" y="6.164" fill-rule="evenodd" clip-rule="evenodd" fill="#FFFFFF" width="0.662" height="34.416"/>
	<rect x="14.891" y="6.164" fill-rule="evenodd" clip-rule="evenodd" fill="#FFFFFF" width="0.828" height="34.416"/>
	<rect x="15.222" y="6.164" fill-rule="evenodd" clip-rule="evenodd" fill="#FFFFFF" width="0.827" height="34.416"/>
	<rect x="15.719" y="6.164" fill-rule="evenodd" clip-rule="evenodd" fill="#FFFFFF" width="0.662" height="34.416"/>
	<rect x="16.049" y="6.164" fill-rule="evenodd" clip-rule="evenodd" fill="#FFFFFF" width="0.828" height="34.416"/>
	<rect x="16.38" y="6.164" fill-rule="evenodd" clip-rule="evenodd" fill="#FFFFFF" width="0.827" height="34.416"/>
	<rect x="16.876" y="6.164" fill-rule="evenodd" clip-rule="evenodd" fill="#FFFFFF" width="0.662" height="34.416"/>
	<rect x="17.208" y="6.164" fill-rule="evenodd" clip-rule="evenodd" fill="#FFFFFF" width="0.827" height="34.416"/>
	<rect x="17.538" y="6.164" fill-rule="evenodd" clip-rule="evenodd" fill="#FFFFFF" width="0.828" height="34.416"/>
	<rect x="18.034" y="6.164" fill-rule="evenodd" clip-rule="evenodd" fill="#FFFFFF" width="0.663" height="34.416"/>
	<rect x="18.366" y="6.164" fill-rule="evenodd" clip-rule="evenodd" fill="#FFFFFF" width="0.827" height="34.416"/>
	<rect x="18.697" y="6.164" fill-rule="evenodd" clip-rule="evenodd" fill="#FFFFFF" width="0.827" height="34.416"/>
	<rect x="19.193" y="6.164" fill-rule="evenodd" clip-rule="evenodd" fill="#FFFFFF" width="0.662" height="34.416"/>
	<rect x="19.524" y="6.164" fill-rule="evenodd" clip-rule="evenodd" fill="#FFFFFF" width="0.661" height="34.416"/>
	<rect x="19.855" y="6.164" fill-rule="evenodd" clip-rule="evenodd" fill="#FFFFFF" width="0.827" height="34.416"/>
	<rect x="20.186" y="6.164" fill-rule="evenodd" clip-rule="evenodd" fill="#FFFFFF" width="0.828" height="34.416"/>
	<rect x="20.682" y="6.164" fill-rule="evenodd" clip-rule="evenodd" fill="#FFFFFF" width="0.663" height="34.416"/>
	<rect x="21.013" y="6.164" fill-rule="evenodd" clip-rule="evenodd" fill="#FFFFFF" width="0.828" height="34.416"/>
	<rect x="21.345" y="6.164" fill-rule="evenodd" clip-rule="evenodd" fill="#FFFFFF" width="0.827" height="34.416"/>
	<rect x="21.841" y="6.164" fill-rule="evenodd" clip-rule="evenodd" fill="#FFFFFF" width="0.662" height="34.416"/>
	<rect x="22.171" y="6.164" fill-rule="evenodd" clip-rule="evenodd" fill="#FFFFFF" width="0.827" height="34.416"/>
	<rect x="22.502" y="6.164" fill-rule="evenodd" clip-rule="evenodd" fill="#FFFFFF" width="0.827" height="34.416"/>
	<rect x="22.999" y="6.164" fill-rule="evenodd" clip-rule="evenodd" fill="#FFFFFF" width="0.662" height="34.416"/>
	<rect x="23.33" y="6.164" fill-rule="evenodd" clip-rule="evenodd" fill="#FFFFFF" width="0.828" height="34.416"/>
	<rect x="23.661" y="6.164" fill-rule="evenodd" clip-rule="evenodd" fill="#FFFFFF" width="0.828" height="34.416"/>
	<rect x="24.157" y="6.164" fill-rule="evenodd" clip-rule="evenodd" fill="#FFFFFF" width="0.662" height="34.416"/>
	<rect x="24.488" y="6.164" fill-rule="evenodd" clip-rule="evenodd" fill="#FFFFFF" width="0.827" height="34.416"/>
	<rect x="24.819" y="6.164" fill-rule="evenodd" clip-rule="evenodd" fill="#FFFFFF" width="0.827" height="34.416"/>
	<rect x="25.315" y="6.164" fill-rule="evenodd" clip-rule="evenodd" fill="#FFFFFF" width="0.662" height="34.416"/>
	<rect x="25.646" y="6.164" fill-rule="evenodd" clip-rule="evenodd" fill="#FFFFFF" width="0.661" height="34.416"/>
	<rect x="25.977" y="6.164" fill-rule="evenodd" clip-rule="evenodd" fill="#FFFFFF" width="0.827" height="34.416"/>
	<rect x="26.307" y="6.164" fill-rule="evenodd" clip-rule="evenodd" fill="#FFFFFF" width="0.828" height="34.416"/>
	<rect x="26.804" y="6.164" fill-rule="evenodd" clip-rule="evenodd" fill="#FFFFFF" width="0.662" height="34.416"/>
	<rect x="27.135" y="6.164" fill-rule="evenodd" clip-rule="evenodd" fill="#FFFFFF" width="0.828" height="34.416"/>
	<rect x="27.466" y="6.164" fill-rule="evenodd" clip-rule="evenodd" fill="#FFFFFF" width="0.827" height="34.416"/>
	<rect x="27.963" y="6.164" fill-rule="evenodd" clip-rule="evenodd" fill="#FFFFFF" width="0.661" height="34.416"/>
	<rect x="28.293" y="6.164" fill-rule="evenodd" clip-rule="evenodd" fill="#FFFFFF" width="0.827" height="34.416"/>
	<rect x="28.624" y="6.164" fill-rule="evenodd" clip-rule="evenodd" fill="#FFFFFF" width="0.827" height="34.416"/>
	<rect x="29.121" y="6.164" fill-rule="evenodd" clip-rule="evenodd" fill="#FFFFFF" width="0.662" height="34.416"/>
	<rect x="29.451" y="6.164" fill-rule="evenodd" clip-rule="evenodd" fill="#FFFFFF" width="0.828" height="34.416"/>
	<rect x="29.783" y="6.164" fill-rule="evenodd" clip-rule="evenodd" fill="#FFFFFF" width="0.828" height="34.416"/>
	<rect x="30.279" y="6.164" fill-rule="evenodd" clip-rule="evenodd" fill="#FFFFFF" width="0.661" height="34.416"/>
	<rect x="30.61" y="6.164" fill-rule="evenodd" clip-rule="evenodd" fill="#FFFFFF" width="0.661" height="34.416"/>
	<rect x="30.94" y="6.164" fill-rule="evenodd" clip-rule="evenodd" fill="#FFFFFF" width="0.828" height="34.416"/>
	<rect x="31.271" y="6.164" fill-rule="evenodd" clip-rule="evenodd" fill="#FFFFFF" width="0.827" height="34.416"/>
	<rect x="31.768" y="6.164" fill-rule="evenodd" clip-rule="evenodd" fill="#FFFFFF" width="0.662" height="34.416"/>
	<rect x="32.099" y="6.164" fill-rule="evenodd" clip-rule="evenodd" fill="#FFFFFF" width="0.828" height="34.416"/>
	<rect x="32.43" y="6.164" fill-rule="evenodd" clip-rule="evenodd" fill="#FFFFFF" width="0.827" height="34.416"/>
	<rect x="32.926" y="6.164" fill-rule="evenodd" clip-rule="evenodd" fill="#FFFFFF" width="0.662" height="34.416"/>
	<rect x="33.257" y="6.164" fill-rule="evenodd" clip-rule="evenodd" fill="#FFFFFF" width="0.828" height="34.416"/>
	<rect x="33.588" y="6.164" fill-rule="evenodd" clip-rule="evenodd" fill="#FFFFFF" width="0.827" height="34.416"/>
	<rect x="34.084" y="6.164" fill-rule="evenodd" clip-rule="evenodd" fill="#FFFFFF" width="0.661" height="34.416"/>
	<rect x="34.415" y="6.164" fill-rule="evenodd" clip-rule="evenodd" fill="#FFFFFF" width="0.827" height="34.416"/>
	<rect x="34.746" y="6.164" fill-rule="evenodd" clip-rule="evenodd" fill="#FFFFFF" width="0.828" height="34.416"/>
	<rect x="35.242" y="6.164" fill-rule="evenodd" clip-rule="evenodd" fill="#FFFFFF" width="0.662" height="34.416"/>
	<rect x="35.574" y="6.164" fill-rule="evenodd" clip-rule="evenodd" fill="#FFFFFF" width="0.662" height="34.416"/>
	<rect x="35.904" y="6.164" fill-rule="evenodd" clip-rule="evenodd" fill="#FFFFFF" width="0.827" height="34.416"/>
	<rect x="36.235" y="6.164" fill-rule="evenodd" clip-rule="evenodd" fill="#FFFFFF" width="0.827" height="34.416"/>
	<rect x="36.731" y="6.164" fill-rule="evenodd" clip-rule="evenodd" fill="#FFFFFF" width="0.662" height="34.416"/>
	<rect x="37.062" y="6.164" fill-rule="evenodd" clip-rule="evenodd" fill="#FFFFFF" width="0.827" height="34.416"/>
	<rect x="37.393" y="6.164" fill-rule="evenodd" clip-rule="evenodd" fill="#FFFFFF" width="0.828" height="34.416"/>
	<rect x="37.89" y="6.164" fill-rule="evenodd" clip-rule="evenodd" fill="#FFFFFF" width="0.662" height="34.416"/>
	<rect x="38.221" y="6.164" fill-rule="evenodd" clip-rule="evenodd" fill="#FFFFFF" width="0.828" height="34.416"/>
	<rect x="38.552" y="6.164" fill-rule="evenodd" clip-rule="evenodd" fill="#FFFFFF" width="0.827" height="34.416"/>
	<rect x="39.049" y="6.164" fill-rule="evenodd" clip-rule="evenodd" fill="#FFFFFF" width="0.662" height="34.416"/>
	<rect x="39.379" y="6.164" fill-rule="evenodd" clip-rule="evenodd" fill="#FFFFFF" width="0.827" height="34.416"/>
	<rect x="39.71" y="6.164" fill-rule="evenodd" clip-rule="evenodd" fill="#FFFFFF" width="0.827" height="34.416"/>
	<rect x="40.206" y="6.164" fill-rule="evenodd" clip-rule="evenodd" fill="#FFFFFF" width="0.662" height="34.416"/>
	<rect x="40.537" y="6.164" fill-rule="evenodd" clip-rule="evenodd" fill="#FFFFFF" width="0.662" height="34.416"/>
	<rect x="40.868" y="6.164" fill-rule="evenodd" clip-rule="evenodd" fill="#FFFFFF" width="0.828" height="34.416"/>
	<rect x="41.199" y="6.164" fill-rule="evenodd" clip-rule="evenodd" fill="#FFFFFF" width="0.828" height="34.416"/>
	<rect x="41.695" y="6.164" fill-rule="evenodd" clip-rule="evenodd" fill="#FFFFFF" width="0.662" height="34.416"/>
	<rect x="42.026" y="6.164" fill-rule="evenodd" clip-rule="evenodd" fill="#FFFFFF" width="0.828" height="34.416"/>
	<rect x="42.357" y="6.164" fill-rule="evenodd" clip-rule="evenodd" fill="#FFFFFF" width="0.827" height="34.416"/>
	<rect x="42.854" y="6.164" fill-rule="evenodd" clip-rule="evenodd" fill="#FFFFFF" width="0.661" height="34.416"/>
	<rect x="43.184" y="6.164" fill-rule="evenodd" clip-rule="evenodd" fill="#FFFFFF" width="0.827" height="34.416"/>
	<rect x="43.515" y="6.164" fill-rule="evenodd" clip-rule="evenodd" fill="#FFFFFF" width="0.828" height="34.416"/>
	<rect x="44.011" y="6.164" fill-rule="evenodd" clip-rule="evenodd" fill="#FFFFFF" width="0.663" height="34.416"/>
	<rect x="44.343" y="6.164" fill-rule="evenodd" clip-rule="evenodd" fill="#FFFFFF" width="0.828" height="34.416"/>
	<rect x="44.674" y="6.164" fill-rule="evenodd" clip-rule="evenodd" fill="#FFFFFF" width="0.827" height="34.416"/>
	<rect x="45.17" y="6.164" fill-rule="evenodd" clip-rule="evenodd" fill="#FFFFFF" width="0.662" height="34.416"/>
	<rect x="45.501" y="6.164" fill-rule="evenodd" clip-rule="evenodd" fill="#FFFFFF" width="0.662" height="34.416"/>
	<rect x="45.832" y="6.164" fill-rule="evenodd" clip-rule="evenodd" fill="#FFFFFF" width="0.827" height="34.416"/>
	<rect x="46.163" y="6.164" fill-rule="evenodd" clip-rule="evenodd" fill="#FFFFFF" width="0.828" height="34.416"/>
	<rect x="46.659" y="6.164" fill-rule="evenodd" clip-rule="evenodd" fill="#FFFFFF" width="0.663" height="34.416"/>
	<rect x="46.99" y="6.164" fill-rule="evenodd" clip-rule="evenodd" fill="#FFFFFF" width="0.827" height="34.416"/>
	<rect x="47.321" y="6.164" fill-rule="evenodd" clip-rule="evenodd" fill="#FFFFFF" width="0.827" height="34.416"/>
	<rect x="47.817" y="6.164" fill-rule="evenodd" clip-rule="evenodd" fill="#FFFFFF" width="0.662" height="34.416"/>
	<rect x="48.148" y="6.164" fill-rule="evenodd" clip-rule="evenodd" fill="#FFFFFF" width="0.828" height="34.416"/>
	<rect x="48.479" y="6.164" fill-rule="evenodd" clip-rule="evenodd" fill="#FFFFFF" width="0.827" height="34.416"/>
	<rect x="48.976" y="6.164" fill-rule="evenodd" clip-rule="evenodd" fill="#FFFFFF" width="0.661" height="34.416"/>
	<rect x="49.307" y="6.164" fill-rule="evenodd" clip-rule="evenodd" fill="#FFFFFF" width="0.827" height="34.416"/>
	<rect x="49.637" y="6.164" fill-rule="evenodd" clip-rule="evenodd" fill="#FFFFFF" width="0.828" height="34.416"/>
	<rect x="50.134" y="6.164" fill-rule="evenodd" clip-rule="evenodd" fill="#FFFFFF" width="0.662" height="34.416"/>
	<rect x="50.464" y="6.164" fill-rule="evenodd" clip-rule="evenodd" fill="#FFFFFF" width="0.663" height="34.416"/>
	<rect x="50.795" y="6.164" fill-rule="evenodd" clip-rule="evenodd" fill="#FFFFFF" width="0.828" height="34.416"/>
	<rect x="51.127" y="6.164" fill-rule="evenodd" clip-rule="evenodd" fill="#FFFFFF" width="0.827" height="34.416"/>
	<rect x="51.624" y="6.164" fill-rule="evenodd" clip-rule="evenodd" fill="#FFFFFF" width="0.661" height="34.416"/>
	<rect x="51.954" y="6.164" fill-rule="evenodd" clip-rule="evenodd" fill="#FFFFFF" width="0.827" height="34.416"/>
	<rect x="52.284" y="6.164" fill-rule="evenodd" clip-rule="evenodd" fill="#FFFFFF" width="0.828" height="34.416"/>
	<rect x="52.781" y="6.164" fill-rule="evenodd" clip-rule="evenodd" fill="#FFFFFF" width="0.662" height="34.416"/>
	<rect x="53.112" y="6.164" fill-rule="evenodd" clip-rule="evenodd" fill="#FFFFFF" width="0.827" height="34.416"/>
	<rect x="53.443" y="6.164" fill-rule="evenodd" clip-rule="evenodd" fill="#FFFFFF" width="0.828" height="34.416"/>
	<rect x="53.939" y="6.164" fill-rule="evenodd" clip-rule="evenodd" fill="#FFFFFF" width="0.662" height="34.416"/>
	<rect x="54.271" y="6.164" fill-rule="evenodd" clip-rule="evenodd" fill="#FFFFFF" width="0.827" height="34.416"/>
	<rect x="54.601" y="6.164" fill-rule="evenodd" clip-rule="evenodd" fill="#FFFFFF" width="0.827" height="34.416"/>
	<rect x="55.097" y="6.164" fill-rule="evenodd" clip-rule="evenodd" fill="#FFFFFF" width="0.662" height="34.416"/>
	<rect x="55.428" y="6.164" fill-rule="evenodd" clip-rule="evenodd" fill="#FFFFFF" width="0.661" height="34.416"/>
	<rect x="55.759" y="6.164" fill-rule="evenodd" clip-rule="evenodd" fill="#FFFFFF" width="0.828" height="34.416"/>
	<rect x="56.089" y="6.164" fill-rule="evenodd" clip-rule="evenodd" fill="#FFFFFF" width="0.828" height="34.416"/>
	<rect x="56.587" y="6.164" fill-rule="evenodd" clip-rule="evenodd" fill="#FFFFFF" width="0.662" height="34.416"/>
	<rect x="56.917" y="6.164" fill-rule="evenodd" clip-rule="evenodd" fill="#FFFFFF" width="0.828" height="34.416"/>
	<rect x="57.249" y="6.164" fill-rule="evenodd" clip-rule="evenodd" fill="#FFFFFF" width="0.826" height="34.416"/>
	<rect x="57.745" y="6.164" fill-rule="evenodd" clip-rule="evenodd" fill="#FFFFFF" width="0.662" height="34.416"/>
	<rect x="58.075" y="6.164" fill-rule="evenodd" clip-rule="evenodd" fill="#FFFFFF" width="0.829" height="34.416"/>
	<rect x="58.407" y="6.164" fill-rule="evenodd" clip-rule="evenodd" fill="#FFFFFF" width="0.827" height="34.416"/>
	<rect x="58.903" y="6.164" fill-rule="evenodd" clip-rule="evenodd" fill="#FFFFFF" width="0.661" height="34.416"/>
	<rect x="59.234" y="6.164" fill-rule="evenodd" clip-rule="evenodd" fill="#FFFFFF" width="0.828" height="34.416"/>
	<rect x="59.564" y="6.164" fill-rule="evenodd" clip-rule="evenodd" fill="#FFFFFF" width="0.828" height="34.416"/>
	<rect x="60.062" y="6.164" fill-rule="evenodd" clip-rule="evenodd" fill="#FFFFFF" width="0.662" height="34.416"/>
	<rect x="60.392" y="6.164" fill-rule="evenodd" clip-rule="evenodd" fill="#FFFFFF" width="0.662" height="34.416"/>
	<rect x="60.723" y="6.164" fill-rule="evenodd" clip-rule="evenodd" fill="#FFFFFF" width="0.827" height="34.416"/>
	<rect x="61.054" y="6.164" fill-rule="evenodd" clip-rule="evenodd" fill="#FFFFFF" width="0.827" height="34.416"/>
	<rect x="61.55" y="6.164" fill-rule="evenodd" clip-rule="evenodd" fill="#FFFFFF" width="0.662" height="34.416"/>
	<rect x="61.881" y="6.164" fill-rule="evenodd" clip-rule="evenodd" fill="#FFFFFF" width="0.827" height="34.416"/>
	<rect x="62.212" y="6.164" fill-rule="evenodd" clip-rule="evenodd" fill="#FFFFFF" width="0.827" height="34.416"/>
	<rect x="62.708" y="6.164" fill-rule="evenodd" clip-rule="evenodd" fill="#FFFFFF" width="0.662" height="34.416"/>
	<rect x="63.039" y="6.164" fill-rule="evenodd" clip-rule="evenodd" fill="#FFFFFF" width="0.828" height="34.416"/>
	<rect x="63.37" y="6.164" fill-rule="evenodd" clip-rule="evenodd" fill="#FFFFFF" width="0.828" height="34.416"/>
	<rect x="63.867" y="6.164" fill-rule="evenodd" clip-rule="evenodd" fill="#FFFFFF" width="0.662" height="34.416"/>
	<rect x="64.198" y="6.164" fill-rule="evenodd" clip-rule="evenodd" fill="#FFFFFF" width="0.827" height="34.416"/>
	<rect x="64.529" y="6.164" fill-rule="evenodd" clip-rule="evenodd" fill="#FFFFFF" width="0.825" height="34.416"/>
	<rect x="65.025" y="6.164" fill-rule="evenodd" clip-rule="evenodd" fill="#FFFFFF" width="0.66" height="34.416"/>
	<rect x="65.354" y="6.164" fill-rule="evenodd" clip-rule="evenodd" fill="#FFFFFF" width="0.827" height="34.416"/>
	<rect x="65.686" y="6.164" fill-rule="evenodd" clip-rule="evenodd" fill="#FFFFFF" width="0.828" height="34.416"/>
	<rect x="66.182" y="6.164" fill-rule="evenodd" clip-rule="evenodd" fill="#FFFFFF" width="0.664" height="34.416"/>
	<rect x="66.514" y="6.164" fill-rule="evenodd" clip-rule="evenodd" fill="#FFFFFF" width="0.661" height="34.416"/>
	<rect x="66.846" y="6.164" fill-rule="evenodd" clip-rule="evenodd" fill="#FFFFFF" width="0.826" height="34.416"/>
	<rect x="67.175" y="6.164" fill-rule="evenodd" clip-rule="evenodd" fill="#FFFFFF" width="0.829" height="34.416"/>
	<rect x="67.672" y="6.164" fill-rule="evenodd" clip-rule="evenodd" fill="#FFFFFF" width="0.663" height="34.416"/>
	<rect x="68.004" y="6.164" fill-rule="evenodd" clip-rule="evenodd" fill="#FFFFFF" width="0.826" height="34.416"/>
	<rect x="68.335" y="6.164" fill-rule="evenodd" clip-rule="evenodd" fill="#FFFFFF" width="0.827" height="34.416"/>
	<rect x="68.83" y="6.164" fill-rule="evenodd" clip-rule="evenodd" fill="#FFFFFF" width="0.663" height="34.416"/>
	<rect x="69.162" y="6.164" fill-rule="evenodd" clip-rule="evenodd" fill="#FFFFFF" width="0.827" height="34.416"/>
	<rect x="69.493" y="6.164" fill-rule="evenodd" clip-rule="evenodd" fill="#FFFFFF" width="0.825" height="34.416"/>
	<rect x="69.989" y="6.164" fill-rule="evenodd" clip-rule="evenodd" fill="#FFFFFF" width="0.661" height="34.416"/>
	<rect x="70.318" y="6.164" fill-rule="evenodd" clip-rule="evenodd" fill="#FFFFFF" width="0.828" height="34.416"/>
	<rect x="70.65" y="6.164" fill-rule="evenodd" clip-rule="evenodd" fill="#FFFFFF" width="0.826" height="34.416"/>
	<rect x="71.146" y="6.164" fill-rule="evenodd" clip-rule="evenodd" fill="#FFFFFF" width="0.661" height="34.416"/>
	<rect x="71.477" y="6.164" fill-rule="evenodd" clip-rule="evenodd" fill="#FFFFFF" width="0.663" height="34.416"/>
	<rect x="71.808" y="6.164" fill-rule="evenodd" clip-rule="evenodd" fill="#FFFFFF" width="0.828" height="34.416"/>
	<rect x="72.14" y="6.164" fill-rule="evenodd" clip-rule="evenodd" fill="#FFFFFF" width="0.827" height="34.416"/>
	<rect x="72.636" y="6.164" fill-rule="evenodd" clip-rule="evenodd" fill="#FFFFFF" width="0.662" height="34.416"/>
	<rect x="72.967" y="6.164" fill-rule="evenodd" clip-rule="evenodd" fill="#FFFFFF" width="0.828" height="34.416"/>
	<rect x="73.298" y="6.164" fill-rule="evenodd" clip-rule="evenodd" fill="#FFFFFF" width="0.827" height="34.416"/>
	<rect x="73.795" y="6.164" fill-rule="evenodd" clip-rule="evenodd" fill="#FFFFFF" width="0.66" height="34.416"/>
	<rect x="74.125" y="6.164" fill-rule="evenodd" clip-rule="evenodd" fill="#FFFFFF" width="0.828" height="34.416"/>
	<rect x="74.455" y="6.164" fill-rule="evenodd" clip-rule="evenodd" fill="#FFFFFF" width="0.828" height="34.416"/>
	<rect x="74.953" y="6.164" fill-rule="evenodd" clip-rule="evenodd" fill="#FFFFFF" width="0.66" height="34.416"/>
	<rect x="75.283" y="6.164" fill-rule="evenodd" clip-rule="evenodd" fill="#FFFFFF" width="0.828" height="34.416"/>
	<rect x="75.613" y="6.164" fill-rule="evenodd" clip-rule="evenodd" fill="#FFFFFF" width="0.829" height="34.416"/>
	<rect x="76.111" y="6.164" fill-rule="evenodd" clip-rule="evenodd" fill="#FFFFFF" width="0.661" height="34.416"/>
	<rect x="76.442" y="6.164" fill-rule="evenodd" clip-rule="evenodd" fill="#FFFFFF" width="0.661" height="34.416"/>
	<rect x="76.772" y="6.164" fill-rule="evenodd" clip-rule="evenodd" fill="#FFFFFF" width="0.827" height="34.416"/>
	<rect x="77.104" y="6.164" fill-rule="evenodd" clip-rule="evenodd" fill="#FFFFFF" width="0.828" height="34.416"/>
	<rect x="77.6" y="6.164" fill-rule="evenodd" clip-rule="evenodd" fill="#FFFFFF" width="0.661" height="34.416"/>
	<rect x="77.932" y="6.164" fill-rule="evenodd" clip-rule="evenodd" fill="#FFFFFF" width="0.825" height="34.416"/>
	<rect x="78.261" y="6.164" fill-rule="evenodd" clip-rule="evenodd" fill="#FFFFFF" width="0.828" height="34.416"/>
	<rect x="78.757" y="6.164" fill-rule="evenodd" clip-rule="evenodd" fill="#FFFFFF" width="0.663" height="34.416"/>
	<rect x="79.089" y="6.164" fill-rule="evenodd" clip-rule="evenodd" fill="#FFFFFF" width="0.826" height="34.416"/>
	<rect x="79.42" y="6.164" fill-rule="evenodd" clip-rule="evenodd" fill="#FFFFFF" width="0.827" height="34.416"/>
	<rect x="79.915" y="6.164" fill-rule="evenodd" clip-rule="evenodd" fill="#FFFFFF" width="0.663" height="34.416"/>
	<rect x="80.247" y="6.164" fill-rule="evenodd" clip-rule="evenodd" fill="#FFFFFF" width="0.828" height="34.416"/>
	<rect x="80.578" y="6.164" fill-rule="evenodd" clip-rule="evenodd" fill="#FFFFFF" width="0.828" height="34.416"/>
	<rect x="81.075" y="6.164" fill-rule="evenodd" clip-rule="evenodd" fill="#FFFFFF" width="0.661" height="34.416"/>
	<rect x="81.406" y="6.164" fill-rule="evenodd" clip-rule="evenodd" fill="#FFFFFF" width="0.662" height="34.416"/>
	<rect x="81.736" y="6.164" fill-rule="evenodd" clip-rule="evenodd" fill="#FFFFFF" width="0.827" height="34.416"/>
	<rect x="82.068" y="6.164" fill-rule="evenodd" clip-rule="evenodd" fill="#FFFFFF" width="0.825" height="34.416"/>
	<rect x="82.563" y="6.164" fill-rule="evenodd" clip-rule="evenodd" fill="#FFFFFF" width="0.661" height="34.416"/>
	<rect x="82.894" y="6.164" fill-rule="evenodd" clip-rule="evenodd" fill="#FFFFFF" width="0.827" height="34.416"/>
	<rect x="83.225" y="6.164" fill-rule="evenodd" clip-rule="evenodd" fill="#FFFFFF" width="0.827" height="34.416"/>
	<rect x="83.721" y="6.164" fill-rule="evenodd" clip-rule="evenodd" fill="#FFFFFF" width="0.663" height="34.416"/>
	<rect x="84.052" y="6.164" fill-rule="evenodd" clip-rule="evenodd" fill="#FFFFFF" width="0.828" height="34.416"/>
	<rect x="84.384" y="6.164" fill-rule="evenodd" clip-rule="evenodd" fill="#FFFFFF" width="0.827" height="34.416"/>
	<rect x="84.88" y="6.164" fill-rule="evenodd" clip-rule="evenodd" fill="#FFFFFF" width="0.662" height="34.416"/>
	<rect x="85.211" y="6.164" fill-rule="evenodd" clip-rule="evenodd" fill="#FFFFFF" width="0.827" height="34.416"/>
	<rect x="85.542" y="6.164" fill-rule="evenodd" clip-rule="evenodd" fill="#FFFFFF" width="0.827" height="34.416"/>
	<rect x="86.038" y="6.164" fill-rule="evenodd" clip-rule="evenodd" fill="#FFFFFF" width="0.661" height="34.416"/>
	<rect x="86.369" y="6.164" fill-rule="evenodd" clip-rule="evenodd" fill="#FFFFFF" width="0.661" height="34.416"/>
	<rect x="86.699" y="6.164" fill-rule="evenodd" clip-rule="evenodd" fill="#FFFFFF" width="0.828" height="34.416"/>
	<rect x="87.03" y="6.164" fill-rule="evenodd" clip-rule="evenodd" fill="#FFFFFF" width="0.828" height="34.416"/>
	<rect x="87.527" y="6.164" fill-rule="evenodd" clip-rule="evenodd" fill="#FFFFFF" width="0.661" height="34.416"/>
	<rect x="87.858" y="6.164" fill-rule="evenodd" clip-rule="evenodd" fill="#FFFFFF" width="0.827" height="34.416"/>
	<rect x="88.188" y="6.164" fill-rule="evenodd" clip-rule="evenodd" fill="#FFFFFF" width="0.827" height="34.416"/>
	<rect x="88.686" y="6.164" fill-rule="evenodd" clip-rule="evenodd" fill="#FFFFFF" width="0.661" height="34.416"/>
	<rect x="89.016" y="6.164" fill-rule="evenodd" clip-rule="evenodd" fill="#FFFFFF" width="0.828" height="34.416"/>
	<rect x="89.347" y="6.164" fill-rule="evenodd" clip-rule="evenodd" fill="#FFFFFF" width="0.827" height="34.416"/>
	<rect x="89.844" y="6.164" fill-rule="evenodd" clip-rule="evenodd" fill="#FFFFFF" width="0.66" height="34.416"/>
	<rect x="90.174" y="6.164" fill-rule="evenodd" clip-rule="evenodd" fill="#FFFFFF" width="0.827" height="34.416"/>
	<rect x="90.504" y="6.164" fill-rule="evenodd" clip-rule="evenodd" fill="#FFFFFF" width="0.827" height="34.416"/>
	<rect x="91.001" y="6.164" fill-rule="evenodd" clip-rule="evenodd" fill="#FFFFFF" width="0.662" height="34.416"/>
	<rect x="91.331" y="6.164" fill-rule="evenodd" clip-rule="evenodd" fill="#FFFFFF" width="0.663" height="34.416"/>
	<rect x="91.663" y="6.164" fill-rule="evenodd" clip-rule="evenodd" fill="#FFFFFF" width="0.827" height="34.416"/>
	<rect x="91.994" y="6.164" fill-rule="evenodd" clip-rule="evenodd" fill="#FFFFFF" width="0.827" height="34.416"/>
	<rect x="92.49" y="6.164" fill-rule="evenodd" clip-rule="evenodd" fill="#FFFFFF" width="0.662" height="34.416"/>
	<rect x="92.821" y="6.164" fill-rule="evenodd" clip-rule="evenodd" fill="#FFFFFF" width="0.827" height="34.416"/>
	<rect x="93.152" y="6.164" fill-rule="evenodd" clip-rule="evenodd" fill="#FFFFFF" width="0.828" height="34.416"/>
	<rect x="93.648" y="6.164" fill-rule="evenodd" clip-rule="evenodd" fill="#FFFFFF" width="0.663" height="34.416"/>
	<rect x="93.98" y="6.164" fill-rule="evenodd" clip-rule="evenodd" fill="#FFFFFF" width="0.825" height="34.416"/>
	<rect x="94.312" y="6.164" fill-rule="evenodd" clip-rule="evenodd" fill="#FFFFFF" width="0.825" height="34.416"/>
	<rect x="94.806" y="6.164" fill-rule="evenodd" clip-rule="evenodd" fill="#FFFFFF" width="0.662" height="34.416"/>
	<rect x="95.137" y="6.164" fill-rule="evenodd" clip-rule="evenodd" fill="#FFFFFF" width="0.828" height="34.416"/>
	<rect x="95.468" y="6.164" fill-rule="evenodd" clip-rule="evenodd" fill="#FFFFFF" width="0.827" height="34.416"/>
	<rect x="95.965" y="6.164" fill-rule="evenodd" clip-rule="evenodd" fill="#FFFFFF" width="0.661" height="34.416"/>
	<rect x="96.295" y="6.164" fill-rule="evenodd" clip-rule="evenodd" fill="#FFFFFF" width="0.663" height="34.416"/>
	<rect x="96.626" y="6.164" fill-rule="evenodd" clip-rule="evenodd" fill="#FFFFFF" width="0.828" height="34.416"/>
	<rect x="96.958" y="6.164" fill-rule="evenodd" clip-rule="evenodd" fill="#FFFFFF" width="0.826" height="34.416"/>
	<rect x="97.454" y="6.164" fill-rule="evenodd" clip-rule="evenodd" fill="#FFFFFF" width="0.662" height="34.416"/>
	<rect x="97.784" y="6.164" fill-rule="evenodd" clip-rule="evenodd" fill="#FFFFFF" width="0.829" height="34.416"/>
	<rect x="98.116" y="6.164" fill-rule="evenodd" clip-rule="evenodd" fill="#FFFFFF" width="0.828" height="34.416"/>
	<rect x="98.613" y="6.164" fill-rule="evenodd" clip-rule="evenodd" fill="#FFFFFF" width="0.66" height="34.416"/>
	<rect x="98.944" y="6.164" fill-rule="evenodd" clip-rule="evenodd" fill="#FFFFFF" width="0.826" height="34.416"/>
	<rect x="99.273" y="6.164" fill-rule="evenodd" clip-rule="evenodd" fill="#FFFFFF" width="0.828" height="34.416"/>
	<rect x="99.771" y="6.164" fill-rule="evenodd" clip-rule="evenodd" fill="#FFFFFF" width="0.662" height="34.416"/>
	<rect x="100.102" y="6.164" fill-rule="evenodd" clip-rule="evenodd" fill="#FFFFFF" width="0.826" height="34.416"/>
	<rect x="100.433" y="6.164" fill-rule="evenodd" clip-rule="evenodd" fill="#FFFFFF" width="0.827" height="34.416"/>
	<rect x="100.928" y="6.164" fill-rule="evenodd" clip-rule="evenodd" fill="#FFFFFF" width="0.662" height="34.416"/>
	<rect x="101.26" y="6.164" fill-rule="evenodd" clip-rule="evenodd" fill="#FFFFFF" width="0.661" height="34.416"/>
	<rect x="101.59" y="6.164" fill-rule="evenodd" clip-rule="evenodd" fill="#FFFFFF" width="0.828" height="34.416"/>
	<rect x="101.921" y="6.164" fill-rule="evenodd" clip-rule="evenodd" fill="#FFFFFF" width="0.828" height="34.416"/>
	<rect x="102.418" y="6.164" fill-rule="evenodd" clip-rule="evenodd" fill="#FFFFFF" width="0.662" height="34.416"/>
	<rect x="102.749" y="6.164" fill-rule="evenodd" clip-rule="evenodd" fill="#FFFFFF" width="0.826" height="34.416"/>
	<rect x="103.08" y="6.164" fill-rule="evenodd" clip-rule="evenodd" fill="#FFFFFF" width="0.827" height="34.416"/>
	<rect x="103.575" y="6.164" fill-rule="evenodd" clip-rule="evenodd" fill="#FFFFFF" width="0.662" height="34.416"/>
	<rect x="103.907" y="6.164" fill-rule="evenodd" clip-rule="evenodd" fill="#FFFFFF" width="0.826" height="34.416"/>
	<rect x="104.237" y="6.164" fill-rule="evenodd" clip-rule="evenodd" fill="#FFFFFF" width="0.828" height="34.416"/>
	<rect x="104.733" y="6.164" fill-rule="evenodd" clip-rule="evenodd" fill="#FFFFFF" width="0.332" height="34.416"/>
	<polygon fill-rule="evenodd" clip-rule="evenodd" fill="#FFFFFF" points="105.065,40.579 105.065,40.579 105.065,6.164 	"/>
	<rect x="7.281" y="5.833" fill="#1F1A17" width="0.496" height="0.497"/>
	<rect x="9.266" y="5.833" fill="#1F1A17" width="0.331" height="0.497"/>
	<rect x="11.086" y="5.833" fill="#1F1A17" width="0.496" height="0.497"/>
	<rect x="13.071" y="5.833" fill="#1F1A17" width="0.331" height="0.497"/>
	<rect x="14.891" y="5.833" fill="#1F1A17" width="0.497" height="0.497"/>
	<rect x="16.876" y="5.833" fill="#1F1A17" width="0.496" height="0.497"/>
	<rect x="18.697" y="5.833" fill="#1F1A17" width="0.496" height="0.497"/>
	<rect x="20.682" y="5.833" fill="#1F1A17" width="0.497" height="0.497"/>
	<rect x="22.502" y="5.833" fill="#1F1A17" width="0.496" height="0.497"/>
	<rect x="24.488" y="5.833" fill="#1F1A17" width="0.496" height="0.497"/>
	<rect x="26.307" y="5.833" fill="#1F1A17" width="0.497" height="0.497"/>
	<rect x="28.293" y="5.833" fill="#1F1A17" width="0.496" height="0.497"/>
	<rect x="30.114" y="5.833" fill="#1F1A17" width="0.497" height="0.497"/>
	<rect x="32.099" y="5.833" fill="#1F1A17" width="0.497" height="0.497"/>
	<rect x="33.919" y="5.833" fill="#1F1A17" width="0.496" height="0.497"/>
	<rect x="35.904" y="5.833" fill="#1F1A17" width="0.497" height="0.497"/>
	<rect x="37.724" y="5.833" fill="#1F1A17" width="0.497" height="0.497"/>
	<rect x="39.71" y="5.833" fill="#1F1A17" width="0.496" height="0.497"/>
	<rect x="41.529" y="5.833" fill="#1F1A17" width="0.497" height="0.497"/>
	<rect x="43.515" y="5.833" fill="#1F1A17" width="0.496" height="0.497"/>
	<rect x="45.336" y="5.833" fill="#1F1A17" width="0.496" height="0.497"/>
	<rect x="47.321" y="5.833" fill="#1F1A17" width="0.496" height="0.497"/>
	<rect x="49.307" y="5.833" fill="#1F1A17" width="0.33" height="0.497"/>
	<rect x="51.127" y="5.833" fill="#1F1A17" width="0.497" height="0.497"/>
	<rect x="53.112" y="5.833" fill="#1F1A17" width="0.331" height="0.497"/>
	<rect x="54.932" y="5.833" fill="#1F1A17" width="0.497" height="0.497"/>
	<rect x="56.917" y="5.833" fill="#1F1A17" width="0.497" height="0.497"/>
	<rect x="58.737" y="5.833" fill="#1F1A17" width="0.497" height="0.497"/>
	<rect x="60.723" y="5.833" fill="#1F1A17" width="0.496" height="0.497"/>
	<rect x="62.543" y="5.833" fill="#1F1A17" width="0.496" height="0.497"/>
	<rect x="64.529" y="5.833" fill="#1F1A17" width="0.496" height="0.497"/>
	<rect x="66.348" y="5.833" fill="#1F1A17" width="0.498" height="0.497"/>
	<rect x="68.335" y="5.833" fill="#1F1A17" width="0.495" height="0.497"/>
	<rect x="70.154" y="5.833" fill="#1F1A17" width="0.496" height="0.497"/>
	<rect x="72.14" y="5.833" fill="#1F1A17" width="0.496" height="0.497"/>
	<rect x="73.959" y="5.833" fill="#1F1A17" width="0.496" height="0.497"/>
	<rect x="75.945" y="5.833" fill="#1F1A17" width="0.497" height="0.497"/>
	<rect x="77.766" y="5.833" fill="#1F1A17" width="0.495" height="0.497"/>
	<rect x="79.75" y="5.833" fill="#1F1A17" width="0.497" height="0.497"/>
	<rect x="81.571" y="5.833" fill="#1F1A17" width="0.497" height="0.497"/>
	<rect x="83.556" y="5.833" fill="#1F1A17" width="0.496" height="0.497"/>
	<rect x="85.376" y="5.833" fill="#1F1A17" width="0.497" height="0.497"/>
	<rect x="87.361" y="5.833" fill="#1F1A17" width="0.497" height="0.497"/>
	<rect x="89.347" y="5.833" fill="#1F1A17" width="0.331" height="0.497"/>
	<rect x="91.166" y="5.833" fill="#1F1A17" width="0.497" height="0.497"/>
	<rect x="93.152" y="5.833" fill="#1F1A17" width="0.331" height="0.497"/>
	<rect x="94.972" y="5.833" fill="#1F1A17" width="0.496" height="0.497"/>
	<rect x="96.958" y="5.833" fill="#1F1A17" width="0.496" height="0.497"/>
	<rect x="98.778" y="5.833" fill="#1F1A17" width="0.495" height="0.497"/>
	<rect x="100.763" y="5.833" fill="#1F1A17" width="0.497" height="0.497"/>
	<rect x="102.583" y="5.833" fill="#1F1A17" width="0.497" height="0.497"/>
	<rect x="104.568" y="5.833" fill="#1F1A17" width="0.497" height="0.497"/>
	<rect x="104.899" y="7.487" fill="#1F1A17" width="0.332" height="0.497"/>
	<rect x="104.899" y="9.473" fill="#1F1A17" width="0.332" height="0.497"/>
	<rect x="104.899" y="11.458" fill="#1F1A17" width="0.332" height="0.497"/>
	<rect x="104.899" y="13.443" fill="#1F1A17" width="0.332" height="0.497"/>
	<rect x="104.899" y="15.429" fill="#1F1A17" width="0.332" height="0.497"/>
	<rect x="104.899" y="17.414" fill="#1F1A17" width="0.332" height="0.497"/>
	<rect x="104.899" y="19.4" fill="#1F1A17" width="0.332" height="0.497"/>
	<rect x="104.899" y="21.385" fill="#1F1A17" width="0.332" height="0.497"/>
	<rect x="104.899" y="23.372" fill="#1F1A17" width="0.332" height="0.496"/>
	<rect x="104.899" y="25.357" fill="#1F1A17" width="0.332" height="0.496"/>
	<rect x="104.899" y="27.343" fill="#1F1A17" width="0.332" height="0.496"/>
	<rect x="104.899" y="29.328" fill="#1F1A17" width="0.332" height="0.496"/>
	<rect x="104.899" y="31.313" fill="#1F1A17" width="0.332" height="0.496"/>
	<rect x="104.899" y="33.298" fill="#1F1A17" width="0.332" height="0.496"/>
	<rect x="104.899" y="35.284" fill="#1F1A17" width="0.332" height="0.497"/>
	<rect x="104.899" y="37.269" fill="#1F1A17" width="0.332" height="0.498"/>
	<rect x="104.899" y="39.255" fill="#1F1A17" width="0.332" height="0.496"/>
	<rect x="103.907" y="40.413" fill="#1F1A17" width="0.496" height="0.497"/>
	<rect x="102.087" y="40.413" fill="#1F1A17" width="0.331" height="0.497"/>
	<rect x="100.102" y="40.413" fill="#1F1A17" width="0.496" height="0.497"/>
	<rect x="98.282" y="40.413" fill="#1F1A17" width="0.331" height="0.497"/>
	<rect x="96.295" y="40.413" fill="#1F1A17" width="0.497" height="0.497"/>
	<rect x="94.312" y="40.413" fill="#1F1A17" width="0.494" height="0.497"/>
	<rect x="92.49" y="40.413" fill="#1F1A17" width="0.497" height="0.497"/>
	<rect x="90.504" y="40.413" fill="#1F1A17" width="0.497" height="0.497"/>
	<rect x="88.686" y="40.413" fill="#1F1A17" width="0.495" height="0.497"/>
	<rect x="86.699" y="40.413" fill="#1F1A17" width="0.497" height="0.497"/>
	<rect x="84.88" y="40.413" fill="#1F1A17" width="0.496" height="0.497"/>
	<rect x="82.894" y="40.413" fill="#1F1A17" width="0.497" height="0.497"/>
	<rect x="81.075" y="40.413" fill="#1F1A17" width="0.496" height="0.497"/>
	<rect x="79.089" y="40.413" fill="#1F1A17" width="0.496" height="0.497"/>
	<rect x="77.269" y="40.413" fill="#1F1A17" width="0.497" height="0.497"/>
	<rect x="75.283" y="40.413" fill="#1F1A17" width="0.496" height="0.497"/>
	<rect x="73.463" y="40.413" fill="#1F1A17" width="0.496" height="0.497"/>
	<rect x="71.477" y="40.413" fill="#1F1A17" width="0.497" height="0.497"/>
	<rect x="69.659" y="40.413" fill="#1F1A17" width="0.495" height="0.497"/>
	<rect x="67.672" y="40.413" fill="#1F1A17" width="0.497" height="0.497"/>
	<rect x="65.852" y="40.413" fill="#1F1A17" width="0.33" height="0.497"/>
	<rect x="63.867" y="40.413" fill="#1F1A17" width="0.496" height="0.497"/>
	<rect x="62.047" y="40.413" fill="#1F1A17" width="0.331" height="0.497"/>
	<rect x="60.062" y="40.413" fill="#1F1A17" width="0.496" height="0.497"/>
	<rect x="58.241" y="40.413" fill="#1F1A17" width="0.331" height="0.497"/>
	<rect x="56.255" y="40.413" fill="#1F1A17" width="0.497" height="0.497"/>
	<rect x="54.271" y="40.413" fill="#1F1A17" width="0.496" height="0.497"/>
	<rect x="52.45" y="40.413" fill="#1F1A17" width="0.496" height="0.497"/>
	<rect x="50.464" y="40.413" fill="#1F1A17" width="0.497" height="0.497"/>
	<rect x="48.645" y="40.413" fill="#1F1A17" width="0.496" height="0.497"/>
	<rect x="46.659" y="40.413" fill="#1F1A17" width="0.497" height="0.497"/>
	<rect x="44.839" y="40.413" fill="#1F1A17" width="0.497" height="0.497"/>
	<rect x="42.854" y="40.413" fill="#1F1A17" width="0.496" height="0.497"/>
	<rect x="41.034" y="40.413" fill="#1F1A17" width="0.496" height="0.497"/>
	<rect x="39.049" y="40.413" fill="#1F1A17" width="0.496" height="0.497"/>
	<rect x="37.228" y="40.413" fill="#1F1A17" width="0.497" height="0.497"/>
	<rect x="35.242" y="40.413" fill="#1F1A17" width="0.497" height="0.497"/>
	<rect x="33.423" y="40.413" fill="#1F1A17" width="0.496" height="0.497"/>
	<rect x="31.437" y="40.413" fill="#1F1A17" width="0.497" height="0.497"/>
	<rect x="29.617" y="40.413" fill="#1F1A17" width="0.497" height="0.497"/>
	<rect x="27.632" y="40.413" fill="#1F1A17" width="0.496" height="0.497"/>
	<rect x="25.812" y="40.413" fill="#1F1A17" width="0.332" height="0.497"/>
	<rect x="23.826" y="40.413" fill="#1F1A17" width="0.496" height="0.497"/>
	<rect x="22.007" y="40.413" fill="#1F1A17" width="0.33" height="0.497"/>
	<rect x="20.02" y="40.413" fill="#1F1A17" width="0.497" height="0.497"/>
	<rect x="18.2" y="40.413" fill="#1F1A17" width="0.331" height="0.497"/>
	<rect x="16.215" y="40.413" fill="#1F1A17" width="0.496" height="0.497"/>
	<rect x="14.229" y="40.413" fill="#1F1A17" width="0.497" height="0.497"/>
	<rect x="12.409" y="40.413" fill="#1F1A17" width="0.496" height="0.497"/>
	<rect x="10.424" y="40.413" fill="#1F1A17" width="0.496" height="0.497"/>
	<rect x="8.604" y="40.413" fill="#1F1A17" width="0.497" height="0.497"/>
	<rect x="7.115" y="39.917" fill="#1F1A17" width="0.331" height="0.496"/>
	<rect x="7.115" y="37.932" fill="#1F1A17" width="0.331" height="0.496"/>
	<rect x="7.115" y="35.946" fill="#1F1A17" width="0.331" height="0.496"/>
	<rect x="7.115" y="33.96" fill="#1F1A17" width="0.331" height="0.497"/>
	<rect x="7.115" y="31.976" fill="#1F1A17" width="0.331" height="0.496"/>
	<rect x="7.115" y="29.989" fill="#1F1A17" width="0.331" height="0.496"/>
	<rect x="7.115" y="28.003" fill="#1F1A17" width="0.331" height="0.497"/>
	<rect x="7.115" y="26.019" fill="#1F1A17" width="0.331" height="0.496"/>
	<rect x="7.115" y="24.033" fill="#1F1A17" width="0.331" height="0.497"/>
	<rect x="7.115" y="22.047" fill="#1F1A17" width="0.331" height="0.497"/>
	<rect x="7.115" y="20.062" fill="#1F1A17" width="0.331" height="0.498"/>
	<rect x="7.115" y="18.077" fill="#1F1A17" width="0.331" height="0.497"/>
	<rect x="7.115" y="16.091" fill="#1F1A17" width="0.331" height="0.496"/>
	<rect x="7.115" y="14.105" fill="#1F1A17" width="0.331" height="0.497"/>
	<rect x="7.115" y="12.12" fill="#1F1A17" width="0.331" height="0.497"/>
	<rect x="7.115" y="10.135" fill="#1F1A17" width="0.331" height="0.496"/>
	<rect x="7.115" y="8.149" fill="#1F1A17" width="0.331" height="0.497"/>
	<rect x="7.115" y="6.164" fill="#1F1A17" width="0.331" height="0.497"/>
	
		<polyline fill="none" stroke="#1F1A17" stroke-width="0.2398" stroke-linecap="round" stroke-linejoin="round" stroke-miterlimit="10" points="
		0,0.042 121.94,0.042 121.94,42.895 0,42.895 0,0.042 	"/>
	<text transform="matrix(1.0184 0 0 1 43.9287 28.501)"><tspan x="0" y="0" fill="#1F1A17" font-family="'Helvetica'" font-size="16.5563" letter-spacing="-0.982">N</tspan><tspan x="10.897" y="0" fill="#1F1A17" font-family="'Helvetica'" font-size="16.5563" letter-spacing="-3.928">T</tspan><tspan x="16.755" y="0" fill="#1F1A17" font-family="'Helvetica'" font-size="16.5563" letter-spacing="-0.982">X</tspan><tspan x="26.027" y="0" fill="#1F1A17" font-family="'Helvetica'" font-size="16.5563">2</tspan></text>
</g>
</svg>
