<?xml version="1.0" encoding="utf-8"?>
<!-- Generator: Adobe Illustrator 16.0.0, SVG Export Plug-In . SVG Version: 6.00 Build 0)  -->
<!DOCTYPE svg PUBLIC "-//W3C//DTD SVG 1.1//EN" "http://www.w3.org/Graphics/SVG/1.1/DTD/svg11.dtd">
<svg version="1.1" id="Layer_1" xmlns="http://www.w3.org/2000/svg" xmlns:xlink="http://www.w3.org/1999/xlink" x="0px" y="0px"
	 width="121.89px" height="64.57px" viewBox="0 0 121.89 64.57" enable-background="new 0 0 121.89 64.57" xml:space="preserve">
<g>
	<polygon fill="#CFCFCF" points="16.009,42.021 16.909,64.521 17.809,64.521 18.409,42.021 	"/>
	<path fill="#9E9E9E" d="M17.857,64.571H16.86l-0.002-0.048l-0.901-22.553h2.503L17.857,64.571z M16.957,64.472h0.803l0.598-22.401
		h-2.297L16.957,64.472z"/>
</g>
<g>
	<polyline fill="#CFCFCF" points="23.108,42.021 24.009,64.521 24.908,64.521 25.509,42.021 	"/>
	<polygon fill="#9E9E9E" points="24.957,64.571 23.961,64.571 23.959,64.523 23.059,42.022 23.158,42.019 24.057,64.472 
		24.859,64.472 25.459,42.02 25.559,42.021 	"/>
</g>
<g>
	<polyline fill="#CFCFCF" points="30.209,42.021 31.109,64.521 32.01,64.521 32.609,42.021 	"/>
	<polygon fill="#9E9E9E" points="32.059,64.571 31.062,64.571 31.06,64.523 30.159,42.022 30.26,42.019 31.157,64.472 
		31.961,64.472 32.56,42.02 32.659,42.021 	"/>
</g>
<g>
	<polyline fill="#CFCFCF" points="92.02,42.02 92.919,64.521 93.819,64.521 94.419,42.02 	"/>
	<polygon fill="#9E9E9E" points="93.868,64.57 92.871,64.57 92.869,64.523 91.969,42.021 92.069,42.018 92.967,64.471 
		93.771,64.471 94.369,42.02 94.47,42.021 	"/>
</g>
<g>
	<polygon fill="#CFCFCF" points="70.511,42.021 71.411,64.521 72.312,64.521 72.911,42.021 	"/>
	<path fill="#9E9E9E" d="M72.359,64.571h-0.996l-0.002-0.048l-0.902-22.553h2.504L72.359,64.571z M71.459,64.472h0.804l0.597-22.401
		h-2.296L71.459,64.472z"/>
</g>
<g>
	<polyline fill="#CFCFCF" points="77.68,42.021 78.58,64.521 79.48,64.521 80.08,42.021 	"/>
	<polygon fill="#9E9E9E" points="79.529,64.571 78.533,64.571 78.531,64.523 77.631,42.022 77.73,42.019 78.629,64.472 
		79.432,64.472 80.031,42.02 80.131,42.021 	"/>
</g>
<g>
	<polyline fill="#CFCFCF" points="84.85,42.021 85.75,64.521 86.65,64.521 87.25,42.021 	"/>
	<polygon fill="#9E9E9E" points="86.699,64.571 85.701,64.571 85.699,64.523 84.799,42.022 84.9,42.019 85.797,64.472 
		86.602,64.472 87.199,42.02 87.301,42.021 	"/>
</g>
<rect y="-0.001" fill="#B4B4B4" width="121.89" height="42.521"/>
<path fill="#F3F3F3" d="M119.834,39.607c0,0.662-0.537,1.199-1.2,1.199H3.436c-0.663,0-1.2-0.537-1.2-1.199v-36.9
	c0-0.663,0.537-1.2,1.2-1.2h115.198c0.663,0,1.2,0.537,1.2,1.2V39.607z"/>
<g>
	<path fill="#010101" d="M42.522,10.042l-0.035,0.035c-0.017,0-0.061-0.001-0.134-0.003c-0.321-0.012-0.521-0.018-0.601-0.018
		c-0.12,0-0.31,0.007-0.57,0.021c-0.009-0.056-0.054-0.15-0.133-0.281L40.177,8.34l-0.391-0.594
		c-0.049-0.072-0.118-0.144-0.207-0.214l0.038-0.12c0.054,0.002,0.094,0.004,0.12,0.004c0.229,0,0.41-0.037,0.541-0.109
		c0.12-0.065,0.229-0.18,0.331-0.344c0.101-0.164,0.15-0.36,0.15-0.587c0-0.396-0.147-0.663-0.442-0.801
		c-0.141-0.066-0.346-0.099-0.615-0.099c-0.117,0-0.23,0.009-0.338,0.028c-0.023,0.229-0.035,0.621-0.035,1.174v1.838
		c0,0.558,0.016,0.921,0.046,1.09c0.012,0.068,0.052,0.111,0.119,0.13c0.035,0.009,0.173,0.021,0.411,0.035l0.036,0.035v0.235
		l-0.032,0.035c-0.234-0.014-0.596-0.021-1.083-0.021c-0.504,0-0.864,0.007-1.083,0.021l-0.035-0.032V9.807l0.035-0.035
		c0.239-0.014,0.377-0.026,0.412-0.035c0.067-0.019,0.107-0.062,0.119-0.13c0.03-0.168,0.046-0.532,0.046-1.09v-1.86
		c0-0.558-0.016-0.921-0.046-1.09c-0.012-0.068-0.052-0.111-0.119-0.13c-0.035-0.009-0.173-0.021-0.412-0.035l-0.035-0.035V5.127
		l0.035-0.032c0.23,0.014,0.591,0.021,1.083,0.021c0.286,0,0.519-0.004,0.696-0.011c0.354-0.014,0.619-0.021,0.795-0.021
		c0.405,0,0.703,0.036,0.893,0.109c0.256,0.099,0.427,0.265,0.514,0.499c0.042,0.115,0.063,0.251,0.063,0.408
		c0,0.637-0.359,1.09-1.076,1.357c0.117,0.197,0.241,0.396,0.373,0.598l0.541,0.833c0.318,0.492,0.531,0.772,0.637,0.84
		c0.054,0.035,0.129,0.053,0.225,0.053l0.035,0.035V10.042z"/>
	<path fill="#010101" d="M46.418,10.035l-0.038,0.039c-0.197-0.012-0.424-0.018-0.679-0.018c-0.199,0-0.391,0.006-0.573,0.018
		l-0.031-0.039l0.031-0.471l-0.682,0.521c-0.055,0.04-0.132,0.064-0.232,0.074c-0.04,0.004-0.087,0.007-0.141,0.007
		c-0.26,0-0.46-0.079-0.6-0.235c-0.14-0.157-0.209-0.374-0.209-0.65c0-0.366,0.116-0.625,0.348-0.777
		c0.251-0.166,0.756-0.316,1.516-0.45c0-0.373-0.099-0.623-0.295-0.749c-0.12-0.077-0.263-0.116-0.43-0.116
		c-0.183,0-0.326,0.037-0.432,0.112l-0.134,0.327l-0.046,0.024l-0.18-0.042L43.588,7.56l0.018-0.415
		c0.387-0.286,0.678-0.448,0.872-0.485c0.082-0.017,0.188-0.025,0.32-0.025c0.461,0,0.791,0.121,0.987,0.362
		C45.929,7.173,46,7.443,46,7.806c0,0.089-0.004,0.232-0.011,0.429c-0.012,0.328-0.018,0.547-0.018,0.658
		c0,0.354,0.006,0.58,0.018,0.677s0.039,0.159,0.083,0.185c0.043,0.026,0.146,0.041,0.311,0.045l0.035,0.039V10.035z M45.128,9.216
		V8.351c-0.387,0.084-0.647,0.175-0.782,0.272s-0.202,0.246-0.202,0.445c0,0.319,0.14,0.478,0.418,0.478
		C44.799,9.546,44.988,9.436,45.128,9.216z"/>
	<path fill="#010101" d="M51.163,10.045l-0.035,0.035c-0.229-0.016-0.437-0.024-0.622-0.024c-0.176,0-0.414,0.008-0.714,0.024
		l-0.031-0.024c0.009-0.115,0.014-0.307,0.014-0.577c-0.084,0.07-0.205,0.178-0.362,0.324c-0.194,0.18-0.321,0.288-0.38,0.323
		c-0.074,0.035-0.196,0.053-0.365,0.053c-0.4,0-0.725-0.151-0.971-0.454s-0.369-0.694-0.369-1.174c0-0.466,0.096-0.83,0.285-1.09
		c0.049-0.068,0.194-0.188,0.436-0.362c0.281-0.202,0.486-0.33,0.615-0.383c0.113-0.047,0.256-0.07,0.43-0.07
		c0.243,0,0.471,0.051,0.682,0.155V6.604c0-0.616-0.016-0.979-0.046-1.09c-0.017-0.061-0.064-0.098-0.144-0.112
		c-0.038-0.007-0.146-0.014-0.324-0.021l-0.035-0.039V5.148l0.035-0.039c0.45-0.047,0.904-0.144,1.361-0.292l0.077,0.042
		c0,0.009-0.005,0.125-0.014,0.348c-0.021,0.504-0.032,1.261-0.032,2.271v1.136c0,0.659,0.016,1.021,0.046,1.086
		c0.019,0.04,0.045,0.064,0.077,0.074c0.052,0.017,0.169,0.032,0.352,0.046l0.035,0.035V10.045z M49.774,8.21V7.549
		c-0.169-0.202-0.33-0.331-0.485-0.387c-0.105-0.038-0.218-0.056-0.337-0.056c-0.324,0-0.532,0.167-0.626,0.499
		c-0.052,0.186-0.077,0.392-0.077,0.619c0,0.485,0.113,0.845,0.341,1.079c0.119,0.125,0.28,0.187,0.481,0.187
		c0.166,0,0.321-0.053,0.464-0.158c0.129-0.094,0.205-0.195,0.229-0.302C49.771,8.997,49.774,8.724,49.774,8.21z"/>
	<path fill="#010101" d="M53.9,10.045l-0.035,0.035c-0.223-0.016-0.544-0.024-0.963-0.024c-0.42,0-0.74,0.008-0.96,0.024
		l-0.035-0.035V9.831l0.035-0.035c0.225-0.007,0.364-0.024,0.418-0.053c0.047-0.021,0.073-0.077,0.077-0.168
		c0.017-0.305,0.025-0.632,0.025-0.981V8.091c0-0.455-0.018-0.724-0.053-0.809c-0.02-0.047-0.069-0.076-0.151-0.088
		c-0.028-0.005-0.13-0.011-0.306-0.018l-0.035-0.035V6.945l0.035-0.039c0.449-0.04,0.903-0.137,1.36-0.292l0.073,0.046
		c-0.03,0.426-0.045,0.786-0.045,1.079v1.122c0,0.171,0.008,0.409,0.024,0.714c0.005,0.091,0.03,0.147,0.077,0.168
		c0.054,0.028,0.193,0.046,0.418,0.053L53.9,9.831V10.045z M53.415,5.458c0,0.15-0.053,0.278-0.158,0.385
		c-0.105,0.107-0.231,0.16-0.38,0.16c-0.149,0-0.277-0.053-0.383-0.16c-0.105-0.106-0.158-0.235-0.158-0.385
		c0-0.155,0.054-0.285,0.16-0.39s0.233-0.158,0.381-0.158c0.146,0,0.271,0.053,0.378,0.158C53.362,5.173,53.415,5.303,53.415,5.458z
		"/>
	<path fill="#010101" d="M58.176,8.312c0,0.83-0.278,1.391-0.836,1.684c-0.272,0.143-0.583,0.214-0.933,0.214
		c-0.539,0-0.949-0.156-1.231-0.468c-0.283-0.312-0.424-0.758-0.424-1.339c0-0.804,0.274-1.339,0.822-1.607
		c0.27-0.131,0.583-0.197,0.938-0.197c0.748,0,1.244,0.259,1.487,0.777C58.118,7.625,58.176,7.938,58.176,8.312z M57.203,8.601
		c0-0.583-0.063-1.001-0.191-1.253s-0.323-0.378-0.586-0.378c-0.466,0-0.699,0.421-0.699,1.262c0,1.081,0.262,1.621,0.784,1.621
		c0.325,0,0.533-0.179,0.622-0.538C57.179,9.127,57.203,8.889,57.203,8.601z"/>
	<path fill="#010101" d="M65.064,10.039l-0.035,0.039c-0.135-0.014-0.377-0.021-0.723-0.021c-0.289,0-0.494,0.007-0.615,0.021
		l-0.051-0.067c0.039-0.583,0.057-1.009,0.057-1.276v-0.32c0-0.344-0.01-0.575-0.031-0.692c-0.025-0.141-0.084-0.253-0.176-0.337
		s-0.215-0.126-0.373-0.126c-0.176,0-0.322,0.049-0.439,0.147s-0.176,0.224-0.176,0.376v1.048l0.014,0.556
		c0.006,0.15,0.018,0.249,0.039,0.295c0.014,0.03,0.047,0.053,0.096,0.066c0.041,0.012,0.156,0.027,0.34,0.046l0.039,0.035v0.211
		l-0.041,0.039c-0.285-0.014-0.572-0.021-0.861-0.021c-0.362,0-0.671,0.007-0.929,0.021l-0.039-0.039V9.831l0.035-0.042
		c0.148-0.014,0.25-0.027,0.307-0.039c0.042-0.01,0.072-0.045,0.091-0.105c0.015-0.045,0.022-0.175,0.025-0.391l0.007-1.135
		c0-0.263-0.021-0.45-0.06-0.562c-0.033-0.089-0.096-0.163-0.187-0.222c-0.082-0.054-0.19-0.081-0.324-0.081
		c-0.211,0-0.378,0.07-0.502,0.211c-0.059,0.066-0.094,0.119-0.104,0.158c-0.01,0.04-0.016,0.128-0.016,0.264V8.65
		c0,0.15,0.005,0.345,0.015,0.583c0.009,0.246,0.019,0.389,0.027,0.429c0.015,0.049,0.054,0.083,0.118,0.1s0.162,0.027,0.294,0.03
		l0.035,0.035v0.214l-0.035,0.035c-0.199-0.014-0.497-0.021-0.894-0.021c-0.419,0-0.739,0.008-0.96,0.024l-0.035-0.035V9.831
		l0.035-0.035c0.226-0.007,0.365-0.024,0.419-0.053c0.047-0.021,0.072-0.077,0.077-0.168c0.017-0.305,0.024-0.632,0.024-0.981V8.091
		c0-0.469-0.018-0.738-0.053-0.809c-0.023-0.047-0.073-0.076-0.151-0.088c-0.027-0.005-0.13-0.011-0.306-0.018l-0.035-0.035V6.945
		l0.035-0.039c0.422-0.04,0.866-0.137,1.333-0.292l0.077,0.046l-0.007,0.559l0.625-0.506c0.115-0.052,0.251-0.078,0.408-0.078
		c0.27,0,0.479,0.044,0.63,0.132c0.148,0.088,0.27,0.242,0.361,0.462l0.641-0.517c0.113-0.054,0.254-0.081,0.418-0.081
		c0.451,0,0.766,0.164,0.941,0.492c0.078,0.146,0.117,0.368,0.117,0.668c0,0.124-0.002,0.217-0.004,0.278L64.58,8.203
		c-0.004,0.113-0.008,0.188-0.008,0.225v0.457c0,0.354,0.006,0.58,0.018,0.677c0.012,0.098,0.039,0.159,0.082,0.185
		c0.041,0.026,0.162,0.041,0.357,0.046l0.035,0.039V10.039z"/>
	<path fill="#010101" d="M68.934,8.084c0,0.04-0.002,0.1-0.004,0.179l-0.039,0.049c-0.309,0.084-0.719,0.126-1.23,0.126
		c-0.092,0-0.229,0.001-0.414,0.005c-0.186,0.003-0.324,0.005-0.418,0.005c0.014,0.345,0.119,0.629,0.318,0.854
		c0.209,0.242,0.48,0.362,0.816,0.362c0.225,0,0.492-0.078,0.803-0.232l0.084,0.102l-0.154,0.348
		c-0.344,0.218-0.715,0.327-1.115,0.327c-0.527,0-0.938-0.149-1.229-0.447c-0.293-0.297-0.438-0.722-0.438-1.272
		c0-0.654,0.154-1.102,0.467-1.343c0.432-0.333,0.84-0.499,1.227-0.499c0.42,0,0.744,0.121,0.975,0.362
		C68.816,7.26,68.934,7.617,68.934,8.084z M68.016,7.992c0-0.633-0.197-0.949-0.59-0.949c-0.416,0-0.623,0.314-0.623,0.942v0.077
		c0.137,0.021,0.377,0.032,0.725,0.032c0.18,0,0.342-0.01,0.484-0.032C68.014,8.03,68.016,8.006,68.016,7.992z"/>
	<path fill="#010101" d="M71.889,9.596c-0.016,0.019-0.066,0.068-0.15,0.147c-0.139,0.131-0.258,0.251-0.355,0.359
		c-0.115,0.037-0.23,0.056-0.348,0.056c-0.326,0-0.564-0.095-0.715-0.285c-0.062-0.082-0.105-0.177-0.127-0.285
		c-0.023-0.129-0.033-0.297-0.031-0.506l0.012-0.84V7.363h-0.096L69.893,7.37h-0.145l-0.039-0.032V7.247l0.027-0.053
		c0.043-0.028,0.109-0.07,0.197-0.126c0.105-0.066,0.186-0.121,0.24-0.166V6.424c0-0.199-0.01-0.41-0.029-0.633
		c0.176-0.056,0.318-0.106,0.428-0.149s0.264-0.114,0.463-0.213l0.09,0.07c-0.027,0.291-0.047,0.551-0.059,0.781l-0.031,0.608h0.115
		c0.256,0,0.477-0.008,0.66-0.025l0.039,0.039l-0.049,0.412l-0.035,0.035h-0.73v1.192c0,0.382,0.004,0.607,0.014,0.675
		c0.012,0.099,0.053,0.178,0.125,0.239c0.07,0.061,0.168,0.091,0.289,0.091c0.096,0,0.213-0.026,0.348-0.077L71.889,9.596z"/>
	<path fill="#010101" d="M75.1,6.66l-0.023,0.625c-0.004,0.103-0.008,0.22-0.014,0.352l-0.148,0.046
		c-0.111-0.16-0.264-0.239-0.457-0.239c-0.176,0-0.322,0.07-0.436,0.211c-0.07,0.087-0.105,0.214-0.105,0.383v0.823
		c0,0.171,0.008,0.409,0.023,0.714c0.006,0.086,0.029,0.143,0.074,0.168s0.207,0.043,0.488,0.053l0.035,0.032v0.214l-0.035,0.035
		c-0.344-0.014-0.686-0.021-1.025-0.021c-0.42,0-0.74,0.008-0.961,0.024l-0.035-0.035V9.831l0.035-0.035
		c0.225-0.007,0.365-0.024,0.418-0.053c0.047-0.021,0.074-0.077,0.078-0.168c0.016-0.305,0.025-0.632,0.025-0.981V8.091
		c0-0.469-0.018-0.738-0.053-0.809c-0.023-0.047-0.074-0.076-0.152-0.088c-0.027-0.005-0.129-0.011-0.305-0.018l-0.035-0.035V6.945
		l0.035-0.039c0.422-0.04,0.865-0.137,1.332-0.292l0.076,0.046L73.93,7.349c0.145-0.169,0.32-0.366,0.527-0.591
		c0.096-0.094,0.227-0.141,0.395-0.141C74.949,6.618,75.031,6.632,75.1,6.66z"/>
	<path fill="#010101" d="M77.664,10.045l-0.035,0.035c-0.223-0.016-0.545-0.024-0.963-0.024c-0.42,0-0.74,0.008-0.961,0.024
		l-0.035-0.035V9.831l0.035-0.035c0.225-0.007,0.365-0.024,0.418-0.053c0.047-0.021,0.074-0.077,0.078-0.168
		c0.016-0.305,0.025-0.632,0.025-0.981V8.091c0-0.455-0.018-0.724-0.053-0.809c-0.02-0.047-0.07-0.076-0.152-0.088
		c-0.027-0.005-0.129-0.011-0.305-0.018l-0.035-0.035V6.945l0.035-0.039c0.449-0.04,0.902-0.137,1.359-0.292L77.15,6.66
		c-0.031,0.426-0.045,0.786-0.045,1.079v1.122c0,0.171,0.008,0.409,0.023,0.714c0.006,0.091,0.031,0.147,0.078,0.168
		c0.053,0.028,0.193,0.046,0.418,0.053l0.039,0.035V10.045z M77.178,5.458c0,0.15-0.053,0.278-0.158,0.385
		c-0.105,0.107-0.23,0.16-0.379,0.16c-0.15,0-0.277-0.053-0.383-0.16C76.152,5.736,76.1,5.607,76.1,5.458
		c0-0.155,0.053-0.285,0.16-0.39c0.105-0.105,0.232-0.158,0.381-0.158c0.145,0,0.271,0.053,0.377,0.158
		C77.125,5.173,77.178,5.303,77.178,5.458z"/>
	<path fill="#010101" d="M81.693,10.028l-0.035,0.035c-0.119-0.004-0.295-0.007-0.529-0.007c-0.305,0-0.486,0.002-0.543,0.007
		c-0.041-0.056-0.113-0.17-0.217-0.341c-0.053-0.084-0.129-0.212-0.229-0.383l-0.271-0.478c-0.297,0.394-0.574,0.794-0.83,1.202
		c-0.076-0.004-0.178-0.007-0.305-0.007c-0.158,0-0.262,0.002-0.312,0.007l-0.043-0.039V9.821l0.039-0.039
		c0.129-0.002,0.217-0.019,0.264-0.049c0.047-0.031,0.15-0.142,0.309-0.334c0.172-0.209,0.398-0.498,0.68-0.869l-0.461-0.77
		c-0.135-0.225-0.227-0.374-0.277-0.446c-0.057-0.082-0.107-0.137-0.152-0.164s-0.1-0.041-0.164-0.041
		c-0.021,0-0.07,0.005-0.148,0.014l-0.049-0.032l-0.039-0.19l0.031-0.049c0.396-0.078,0.734-0.152,1.014-0.225
		c0.18,0.133,0.453,0.526,0.818,1.178c0.174-0.225,0.367-0.498,0.584-0.819l0.186-0.278c0.143,0.007,0.264,0.011,0.363,0.011
		c0.094,0,0.186-0.003,0.277-0.011l0.041,0.042v0.2l-0.035,0.035c-0.123,0.009-0.207,0.026-0.25,0.049
		c-0.045,0.023-0.125,0.101-0.242,0.232c-0.074,0.082-0.213,0.248-0.418,0.496l-0.303,0.366l0.508,0.896
		c0.238,0.424,0.393,0.658,0.459,0.7c0.031,0.019,0.113,0.038,0.246,0.056l0.035,0.039V10.028z"/>
</g>
<g>
	<path fill="#010101" d="M28.581,19.187l-0.035-0.035v-0.18l0.035-0.031c0.159-0.002,0.286-0.012,0.381-0.027
		s0.156-0.042,0.184-0.078s0.046-0.095,0.055-0.176s0.019-0.263,0.027-0.547s0.014-0.487,0.014-0.609v-3.156
		c0-0.133-0.024-0.231-0.072-0.295c-0.048-0.064-0.114-0.104-0.197-0.121c-0.083-0.017-0.226-0.027-0.426-0.029l-0.031-0.031v-0.184
		l0.031-0.035c0.359,0.013,0.595,0.02,0.707,0.02c0.263,0,0.479-0.007,0.648-0.02l1.246,1.617l1.832,2.297
		c0.222,0.279,0.447,0.543,0.676,0.793v-3.023c0-0.094-0.004-0.294-0.014-0.6c-0.009-0.306-0.02-0.5-0.033-0.582
		c-0.013-0.082-0.035-0.138-0.068-0.166c-0.032-0.029-0.094-0.05-0.184-0.064c-0.09-0.015-0.211-0.023-0.365-0.025l-0.031-0.031
		v-0.18l0.031-0.035c0.211,0.013,0.512,0.02,0.902,0.02c0.357,0,0.616-0.007,0.777-0.02l0.035,0.035v0.18l-0.031,0.031
		c-0.172,0.002-0.305,0.012-0.398,0.029c-0.094,0.017-0.152,0.045-0.176,0.084s-0.039,0.096-0.049,0.172
		c-0.009,0.075-0.018,0.255-0.027,0.539c-0.009,0.284-0.014,0.488-0.014,0.613v1.855l0.004,1.074
		c0.006,0.352,0.011,0.705,0.016,1.059c-0.13-0.044-0.355-0.099-0.676-0.164l-0.277-0.328l-0.832-1.016l-2.648-3.309v2.996
		c0,0.12,0.005,0.333,0.014,0.641s0.021,0.494,0.033,0.559s0.03,0.11,0.051,0.135s0.065,0.047,0.135,0.068s0.212,0.033,0.428,0.035
		l0.031,0.031v0.184l-0.031,0.031c-0.136-0.018-0.354-0.027-0.656-0.027C29.213,19.159,28.873,19.168,28.581,19.187z"/>
	<path fill="#010101" d="M40.087,13.64l0.035,0.035c-0.023,0.234-0.035,0.643-0.035,1.227l-0.031,0.031h-0.184l-0.031-0.035
		l-0.043-0.359c-0.021-0.193-0.037-0.311-0.049-0.354s-0.03-0.074-0.057-0.094s-0.11-0.036-0.254-0.049
		c-0.144-0.013-0.304-0.02-0.48-0.02H38.22c-0.021,0.588-0.031,0.928-0.031,1.02v2.277l0.008,0.762
		c0.003,0.294,0.01,0.485,0.021,0.572s0.03,0.145,0.055,0.172s0.072,0.051,0.143,0.07s0.245,0.035,0.523,0.045l0.027,0.023v0.195
		l-0.027,0.031c-0.667-0.021-1.039-0.031-1.117-0.031c-0.083,0-0.454,0.01-1.113,0.031l-0.031-0.031v-0.195l0.031-0.023
		c0.245-0.01,0.407-0.023,0.486-0.039s0.133-0.036,0.16-0.061s0.05-0.078,0.068-0.158s0.027-0.26,0.027-0.539l0.008-0.824v-2.277
		c0-0.042-0.011-0.382-0.031-1.02h-0.582c-0.239,0-0.446,0.005-0.621,0.016c-0.175,0.01-0.275,0.037-0.303,0.08
		s-0.053,0.183-0.076,0.42l-0.039,0.359l-0.035,0.035h-0.18l-0.031-0.031c-0.005-0.628-0.017-1.037-0.035-1.227l0.035-0.035
		c0.453,0.021,1.207,0.031,2.262,0.031C38.896,13.671,39.652,13.66,40.087,13.64z"/>
	<path fill="#010101" d="M40.796,19.14v-0.188l0.031-0.031c0.175-0.002,0.292-0.019,0.352-0.049s0.137-0.104,0.23-0.223
		s0.277-0.368,0.551-0.748l1.066-1.48l-0.691-1.176c-0.052-0.089-0.166-0.26-0.342-0.514s-0.313-0.431-0.414-0.529
		c-0.101-0.099-0.175-0.156-0.225-0.172s-0.187-0.023-0.41-0.023l-0.035-0.035v-0.164l0.035-0.035l1.105-0.184
		c0.097,0.062,0.2,0.166,0.311,0.311s0.271,0.399,0.482,0.764l0.656,1.141l1.492-2.18c0.222,0.008,0.355,0.012,0.402,0.012
		c0.021,0,0.143-0.004,0.363-0.012l0.031,0.035v0.176l-0.031,0.031c-0.164,0.008-0.272,0.022-0.326,0.045
		c-0.053,0.022-0.122,0.077-0.207,0.166c-0.085,0.088-0.257,0.309-0.518,0.66l-0.727,0.984l-0.293,0.391l1.324,2.141
		c0.125,0.203,0.227,0.355,0.303,0.455c0.077,0.1,0.139,0.16,0.186,0.18s0.154,0.031,0.32,0.033l0.031,0.031v0.191l-0.031,0.031
		c-0.247-0.01-0.422-0.016-0.523-0.016c-0.133,0-0.333,0.005-0.602,0.016c-0.156-0.232-0.301-0.462-0.434-0.691l-1.027-1.754
		l-0.285,0.395c-0.375,0.516-0.816,1.199-1.324,2.051c-0.169-0.01-0.302-0.016-0.398-0.016c-0.099,0-0.23,0.005-0.395,0.016
		L40.796,19.14z"/>
	<path fill="#010101" d="M46.591,19.198l-0.047-0.039v-0.18l1.309-1.387c0.539-0.57,0.888-1.012,1.047-1.324
		s0.238-0.604,0.238-0.875c0-0.318-0.097-0.582-0.289-0.793s-0.453-0.316-0.781-0.316c-0.211,0-0.395,0.032-0.551,0.098
		c-0.156,0.065-0.261,0.138-0.314,0.219c-0.054,0.081-0.131,0.307-0.232,0.68l-0.035,0.031h-0.16l-0.039-0.035
		c0.06-0.352,0.102-0.699,0.125-1.043c0.245-0.24,0.474-0.393,0.686-0.459s0.435-0.1,0.666-0.1c0.276,0,0.54,0.052,0.793,0.156
		c0.253,0.104,0.456,0.272,0.609,0.506c0.153,0.233,0.23,0.503,0.23,0.811c0,0.229-0.045,0.459-0.135,0.689
		s-0.222,0.453-0.395,0.668s-0.409,0.472-0.709,0.771l-1.219,1.242h1.543c0.474,0,0.868-0.017,1.184-0.051l0.027,0.031
		c-0.016,0.088-0.023,0.205-0.023,0.348c0,0.13,0.008,0.233,0.023,0.309l-0.027,0.043c-0.188-0.01-0.476-0.02-0.863-0.027
		s-0.645-0.012-0.77-0.012c-0.253,0-0.593,0.003-1.02,0.01S46.744,19.185,46.591,19.198z"/>
	<path fill="#010101" d="M50.986,17.479v-0.055l0.176-0.523h2.09v0.059l-0.188,0.52H50.986z"/>
	<path fill="#010101" d="M55.16,19.19l-0.031-0.031v-0.168l0.031-0.031c0.386-0.01,0.614-0.022,0.686-0.035s0.124-0.041,0.158-0.082
		s0.06-0.143,0.076-0.305s0.025-0.333,0.025-0.516v-0.289H55.25c-0.497,0-0.918,0.008-1.262,0.023l-0.066-0.211
		c0.453-0.849,1.21-2.078,2.27-3.688l0.551-0.223l0.098,0.047c-0.028,0.442-0.043,0.991-0.043,1.645l-0.012,1.102v0.809
		c0.359-0.002,0.637-0.01,0.832-0.023l0.035,0.039c-0.005,0.099-0.008,0.17-0.008,0.215c0.003,0.086,0.007,0.17,0.012,0.254
		l-0.039,0.035c-0.253-0.016-0.464-0.023-0.633-0.023h-0.199v0.262c0,0.292,0.008,0.499,0.023,0.621s0.04,0.201,0.074,0.236
		s0.103,0.061,0.205,0.078s0.28,0.027,0.533,0.029l0.035,0.031v0.168l-0.031,0.031c-0.458-0.021-0.843-0.031-1.152-0.031
		C55.968,19.159,55.53,19.169,55.16,19.19z M54.438,17.237h1.668l0.035-2.777c-0.25,0.356-0.565,0.846-0.945,1.469
		S54.562,16.987,54.438,17.237z"/>
	<path fill="#010101" d="M58.682,19.069c-0.047-0.307-0.134-0.677-0.262-1.109l0.02-0.059l0.145-0.055l0.055,0.027
		c0.091,0.24,0.188,0.438,0.293,0.594s0.254,0.276,0.449,0.359s0.406,0.125,0.633,0.125c0.286,0,0.514-0.06,0.682-0.18
		s0.298-0.283,0.389-0.488s0.137-0.438,0.137-0.695c0-0.346-0.091-0.619-0.271-0.816s-0.432-0.297-0.752-0.297
		c-0.109,0-0.207,0.01-0.293,0.031s-0.219,0.068-0.398,0.141l-0.043-0.039l0.086-0.426c0.211,0.013,0.352,0.02,0.422,0.02
		c0.305,0,0.546-0.108,0.725-0.324c0.179-0.216,0.268-0.472,0.268-0.766c0-0.258-0.093-0.474-0.279-0.648
		c-0.187-0.175-0.416-0.262-0.689-0.262c-0.18,0-0.35,0.036-0.51,0.109c-0.16,0.073-0.292,0.161-0.396,0.266
		c-0.044,0.088-0.114,0.263-0.211,0.523l-0.039,0.035h-0.176l-0.031-0.035l0.234-0.906c0.325-0.367,0.767-0.551,1.324-0.551
		c0.425,0,0.768,0.112,1.029,0.338c0.262,0.225,0.393,0.508,0.393,0.85c0,0.26-0.077,0.499-0.23,0.717
		c-0.153,0.217-0.367,0.422-0.641,0.615c0.45,0.055,0.768,0.189,0.951,0.404s0.275,0.475,0.275,0.779c0,0.5-0.227,0.95-0.68,1.35
		s-0.977,0.6-1.57,0.6c-0.177,0-0.343-0.015-0.496-0.045S58.888,19.161,58.682,19.069z"/>
	<path fill="#010101" d="M63.961,19.19l-0.031-0.031v-0.168l0.031-0.031c0.386-0.01,0.614-0.022,0.686-0.035
		s0.124-0.041,0.158-0.082s0.06-0.143,0.076-0.305s0.025-0.333,0.025-0.516v-0.289h-0.855c-0.497,0-0.918,0.008-1.262,0.023
		l-0.066-0.211c0.453-0.849,1.21-2.078,2.27-3.688l0.551-0.223l0.098,0.047c-0.028,0.442-0.043,0.991-0.043,1.645l-0.012,1.102
		v0.809c0.359-0.002,0.637-0.01,0.832-0.023l0.035,0.039c-0.005,0.099-0.008,0.17-0.008,0.215c0.003,0.086,0.007,0.17,0.012,0.254
		l-0.039,0.035c-0.253-0.016-0.464-0.023-0.633-0.023h-0.199v0.262c0,0.292,0.008,0.499,0.023,0.621s0.04,0.201,0.074,0.236
		s0.103,0.061,0.205,0.078s0.28,0.027,0.533,0.029l0.035,0.031v0.168l-0.031,0.031c-0.458-0.021-0.843-0.031-1.152-0.031
		C64.769,19.159,64.331,19.169,63.961,19.19z M63.238,17.237h1.668l0.035-2.777c-0.25,0.356-0.565,0.846-0.945,1.469
		S63.363,16.987,63.238,17.237z"/>
	<path fill="#010101" d="M68.075,18.296c0.125,0,0.233,0.044,0.326,0.133s0.139,0.201,0.139,0.336c0,0.127-0.046,0.237-0.137,0.328
		s-0.2,0.137-0.328,0.137c-0.13,0-0.241-0.045-0.332-0.135s-0.137-0.2-0.137-0.33s0.046-0.241,0.137-0.332
		S67.945,18.296,68.075,18.296z"/>
	<path fill="#010101" d="M72.851,13.757v0.047c-0.284,0.06-0.607,0.202-0.971,0.426c-0.363,0.224-0.669,0.524-0.916,0.902
		c-0.247,0.377-0.391,0.833-0.43,1.367c0.089-0.062,0.19-0.138,0.305-0.227c0.148-0.112,0.257-0.189,0.326-0.23
		c0.069-0.042,0.161-0.078,0.277-0.109s0.249-0.047,0.4-0.047c0.269,0,0.509,0.059,0.723,0.178s0.374,0.293,0.48,0.523
		s0.16,0.5,0.16,0.807c0,0.435-0.105,0.799-0.316,1.092s-0.435,0.502-0.672,0.629s-0.509,0.189-0.816,0.189
		c-0.523,0-0.93-0.196-1.219-0.588s-0.434-0.902-0.434-1.529c0-0.417,0.061-0.817,0.182-1.201s0.306-0.732,0.553-1.043
		c0.247-0.312,0.563-0.588,0.947-0.83s0.763-0.406,1.135-0.492L72.851,13.757z M70.46,17.483c0,0.258,0.037,0.513,0.111,0.766
		s0.193,0.448,0.357,0.586s0.356,0.207,0.578,0.207c0.19,0,0.366-0.053,0.527-0.16s0.284-0.274,0.369-0.502s0.127-0.468,0.127-0.721
		s-0.042-0.479-0.125-0.678s-0.204-0.354-0.363-0.465s-0.344-0.166-0.555-0.166c-0.156,0-0.312,0.038-0.469,0.113
		s-0.276,0.162-0.361,0.258s-0.139,0.199-0.162,0.307S70.46,17.288,70.46,17.483z"/>
	<path fill="#010101" d="M74.388,19.104c-0.062-0.203-0.191-0.539-0.387-1.008l0.008-0.051l0.137-0.078l0.047,0.012
		c0.216,0.393,0.351,0.617,0.404,0.67s0.175,0.116,0.365,0.188s0.391,0.107,0.602,0.107c0.263,0,0.496-0.057,0.699-0.172
		s0.354-0.284,0.453-0.508s0.148-0.478,0.148-0.762c0-0.279-0.049-0.519-0.146-0.721s-0.247-0.355-0.447-0.459
		s-0.417-0.156-0.648-0.156c-0.146,0-0.278,0.02-0.396,0.059s-0.218,0.089-0.297,0.15s-0.174,0.152-0.283,0.271l-0.16-0.047
		l0.043-0.84c0.011-0.159,0.016-0.319,0.016-0.48v-0.695c0-0.208-0.007-0.408-0.02-0.598c-0.008-0.117-0.012-0.191-0.012-0.223
		l0.051-0.039c0.398,0.031,0.853,0.047,1.363,0.047c0.388,0,0.853-0.016,1.395-0.047l0.016,0.039
		c-0.019,0.127-0.027,0.246-0.027,0.355c0,0.055,0.004,0.146,0.012,0.273l-0.039,0.023c-0.297-0.021-0.695-0.031-1.195-0.031
		c-0.68,0-1.074,0.002-1.184,0.008c-0.039,0.307-0.066,0.849-0.082,1.625c0.214-0.156,0.406-0.263,0.578-0.318
		c0.172-0.056,0.358-0.084,0.559-0.084c0.284,0,0.556,0.065,0.816,0.195c0.261,0.13,0.455,0.319,0.584,0.566
		s0.193,0.514,0.193,0.801c0,0.529-0.218,1.015-0.654,1.459s-0.994,0.666-1.674,0.666c-0.183,0-0.333-0.016-0.451-0.047
		S74.525,19.175,74.388,19.104z"/>
	<path fill="#010101" d="M78.519,16.772c0-0.463,0.023-0.881,0.07-1.252s0.15-0.702,0.311-0.992c0.16-0.291,0.36-0.508,0.602-0.652
		s0.515-0.217,0.822-0.217c0.349,0,0.655,0.09,0.92,0.27s0.454,0.456,0.57,0.828c0.116,0.372,0.174,0.879,0.174,1.52
		c0,1.042-0.159,1.809-0.479,2.301s-0.761,0.738-1.326,0.738c-0.284,0-0.534-0.061-0.752-0.184s-0.396-0.299-0.535-0.531
		s-0.237-0.505-0.293-0.82S78.519,17.129,78.519,16.772z M79.19,16.546c0,0.495,0.037,0.945,0.111,1.352s0.198,0.699,0.371,0.877
		s0.38,0.268,0.619,0.268c0.231,0,0.425-0.08,0.58-0.238s0.269-0.431,0.34-0.816s0.107-0.862,0.107-1.43
		c0-0.891-0.085-1.55-0.254-1.977c-0.169-0.427-0.449-0.641-0.84-0.641c-0.341,0-0.599,0.165-0.773,0.496
		C79.277,14.767,79.19,15.47,79.19,16.546z"/>
	<path fill="#010101" d="M82.852,17.479v-0.055l0.176-0.523h2.09v0.059l-0.188,0.52H82.852z"/>
	<path fill="#010101" d="M86.338,14.745l-0.07-0.023l-0.039-0.32l0.039-0.039c0.261-0.076,0.59-0.197,0.988-0.363
		c0.398-0.167,0.684-0.294,0.855-0.383l0.102,0.039c-0.042,1.141-0.062,1.825-0.062,2.055v1.449c0,0.357,0.004,0.692,0.012,1.006
		s0.02,0.499,0.035,0.555s0.042,0.1,0.08,0.131s0.091,0.051,0.158,0.061s0.27,0.023,0.605,0.041l0.027,0.031v0.176l-0.027,0.031
		c-0.57-0.021-0.973-0.031-1.207-0.031c-0.177,0-0.61,0.01-1.301,0.031l-0.027-0.031v-0.176l0.031-0.031
		c0.391-0.029,0.614-0.049,0.67-0.062s0.099-0.036,0.129-0.068s0.054-0.094,0.072-0.186s0.033-0.361,0.045-0.809
		s0.018-0.677,0.018-0.688v-1.539c0-0.755-0.002-1.166-0.006-1.23c-0.004-0.065-0.026-0.098-0.068-0.098
		c-0.011,0-0.024,0.002-0.043,0.008c-0.019,0.005-0.075,0.028-0.172,0.07l-0.387,0.172C86.634,14.593,86.481,14.667,86.338,14.745z"
		/>
	<path fill="#010101" d="M90.383,16.772c0-0.463,0.023-0.881,0.07-1.252s0.15-0.702,0.311-0.992c0.16-0.291,0.36-0.508,0.602-0.652
		s0.515-0.217,0.822-0.217c0.349,0,0.655,0.09,0.92,0.27s0.454,0.456,0.57,0.828c0.116,0.372,0.174,0.879,0.174,1.52
		c0,1.042-0.159,1.809-0.479,2.301s-0.761,0.738-1.326,0.738c-0.284,0-0.534-0.061-0.752-0.184s-0.396-0.299-0.535-0.531
		s-0.237-0.505-0.293-0.82S90.383,17.129,90.383,16.772z M91.055,16.546c0,0.495,0.037,0.945,0.111,1.352s0.198,0.699,0.371,0.877
		s0.38,0.268,0.619,0.268c0.231,0,0.425-0.08,0.58-0.238s0.269-0.431,0.34-0.816s0.107-0.862,0.107-1.43
		c0-0.891-0.085-1.55-0.254-1.977c-0.169-0.427-0.449-0.641-0.84-0.641c-0.341,0-0.599,0.165-0.773,0.496
		C91.142,14.767,91.055,15.47,91.055,16.546z"/>
</g>
<g>
	<path fill="#231F20" d="M87.387,6.792c-1.896,0-3.301-0.161-3.319-0.163l0.035-0.298c0.091,0.011,9.102,1.02,12.411-2.225
		l0.21,0.214c-1.437,1.409-4.007,2.225-7.639,2.426C88.493,6.779,87.921,6.792,87.387,6.792z"/>
	<path fill="#231F20" d="M97.271,12.021C93.96,8.774,84.95,9.785,84.859,9.796l-0.035-0.298c0.023-0.002,2.328-0.266,5.018-0.117
		c3.632,0.201,6.202,1.017,7.639,2.426L97.271,12.021z"/>
	<polygon fill="#231F20" points="93.969,8.846 92.344,8.846 92.094,7.471 90.232,7.471 90.357,8.846 88.296,8.846 87.746,7.596 
		86.419,7.596 86.419,8.846 84.469,8.846 84.469,8.546 86.118,8.546 86.118,7.296 87.941,7.296 88.491,8.546 90.029,8.546 
		89.904,7.171 92.344,7.171 92.594,8.546 93.969,8.546 	"/>
	<path fill="#010101" d="M95.454,9.636l-0.171-0.103c0.004-0.006,0.385-0.651,0.36-1.521c-0.023-0.858-0.711-1.511-0.718-1.517
		l0.136-0.146c0.031,0.029,0.757,0.714,0.782,1.658C95.869,8.937,95.472,9.608,95.454,9.636z"/>
	<path fill="#010101" d="M95.934,10.196l-0.162-0.116c0.006-0.008,0.572-0.818,0.572-2.071c0-0.883-0.942-1.781-0.952-1.79
		l0.138-0.146c0.041,0.039,1.015,0.966,1.015,1.936C96.544,9.33,95.959,10.162,95.934,10.196z"/>
	<path fill="#010101" d="M96.71,10.371l-0.182-0.083c0.005-0.012,0.532-1.186,0.532-2.242c0-0.964-1.118-2.093-1.129-2.104
		l0.142-0.141C96.121,5.849,97.261,7,97.261,8.046C97.261,9.147,96.732,10.322,96.71,10.371z"/>
	<path fill="#010101" d="M97.441,10.5l-0.179-0.089c0.005-0.01,0.498-1.016,0.498-2.458c0-1.348-1.208-2.225-1.22-2.233l0.116-0.163
		c0.053,0.038,1.304,0.946,1.304,2.396C97.961,9.444,97.463,10.457,97.441,10.5z"/>
	<path fill="none" stroke="#010101" stroke-width="2" stroke-miterlimit="10" d="M98.777,9.354"/>
</g>
<g>
	<path fill="#010101" d="M26.558,26.37l-0.027-0.023v-0.108l0.785-0.832c0.323-0.342,0.532-0.607,0.628-0.794
		c0.095-0.188,0.143-0.363,0.143-0.525c0-0.191-0.058-0.35-0.173-0.476c-0.116-0.126-0.272-0.19-0.469-0.19
		c-0.127,0-0.237,0.02-0.331,0.059s-0.156,0.083-0.188,0.131s-0.078,0.185-0.14,0.408l-0.021,0.019h-0.097l-0.023-0.021
		c0.036-0.211,0.062-0.42,0.075-0.626c0.146-0.144,0.284-0.235,0.411-0.275c0.128-0.04,0.261-0.06,0.399-0.06
		c0.166,0,0.324,0.031,0.477,0.094c0.151,0.062,0.273,0.164,0.365,0.303c0.092,0.14,0.139,0.302,0.139,0.486
		c0,0.138-0.027,0.275-0.081,0.414c-0.054,0.139-0.133,0.272-0.237,0.401c-0.104,0.129-0.245,0.283-0.425,0.463l-0.731,0.746h0.926
		c0.284,0,0.521-0.01,0.71-0.031l0.017,0.019c-0.01,0.053-0.014,0.123-0.014,0.208c0,0.078,0.004,0.14,0.014,0.185l-0.017,0.026
		c-0.112-0.006-0.285-0.012-0.518-0.017c-0.233-0.004-0.387-0.007-0.462-0.007c-0.151,0-0.355,0.002-0.611,0.006
		C26.824,26.356,26.65,26.362,26.558,26.37z"/>
	<path fill="#010101" d="M29.396,26.314c-0.037-0.122-0.114-0.324-0.231-0.605l0.005-0.03l0.082-0.047l0.027,0.007
		c0.13,0.236,0.211,0.37,0.243,0.402c0.032,0.032,0.104,0.069,0.219,0.112s0.234,0.064,0.361,0.064c0.157,0,0.298-0.034,0.419-0.103
		c0.122-0.069,0.213-0.17,0.272-0.305s0.089-0.287,0.089-0.457c0-0.167-0.029-0.312-0.088-0.433s-0.148-0.213-0.269-0.275
		s-0.25-0.094-0.389-0.094c-0.088,0-0.167,0.012-0.238,0.035s-0.13,0.054-0.178,0.09s-0.104,0.091-0.17,0.163l-0.097-0.028
		l0.026-0.504c0.006-0.095,0.009-0.191,0.009-0.289v-0.417c0-0.125-0.004-0.245-0.012-0.358c-0.004-0.07-0.007-0.115-0.007-0.134
		l0.03-0.023c0.239,0.019,0.512,0.028,0.818,0.028c0.232,0,0.512-0.01,0.837-0.028l0.009,0.023
		c-0.011,0.077-0.016,0.147-0.016,0.213c0,0.033,0.002,0.087,0.007,0.164l-0.023,0.014c-0.179-0.013-0.417-0.019-0.718-0.019
		c-0.407,0-0.645,0.001-0.71,0.005c-0.023,0.184-0.04,0.509-0.049,0.975c0.128-0.094,0.243-0.158,0.347-0.191
		c0.104-0.033,0.215-0.05,0.335-0.05c0.171,0,0.334,0.039,0.49,0.117s0.272,0.191,0.351,0.34c0.077,0.148,0.115,0.309,0.115,0.48
		c0,0.317-0.131,0.609-0.393,0.875c-0.262,0.267-0.596,0.4-1.004,0.4c-0.109,0-0.199-0.01-0.271-0.028S29.479,26.356,29.396,26.314z
		"/>
	<path fill="#010101" d="M31.869,23.035c0.398,0.013,0.621,0.019,0.67,0.019c0.052,0,0.275-0.006,0.673-0.019l0.019,0.017v0.117
		l-0.019,0.017c-0.108,0.003-0.191,0.008-0.25,0.014c-0.059,0.006-0.101,0.018-0.128,0.035c-0.026,0.018-0.044,0.058-0.053,0.121
		c-0.008,0.063-0.013,0.151-0.013,0.264l-0.005,0.539v0.328c0.343,0.009,0.667,0.014,0.973,0.014c0.419,0,0.738-0.004,0.957-0.014
		v-0.328l-0.005-0.457c-0.002-0.178-0.006-0.293-0.014-0.345c-0.009-0.052-0.02-0.086-0.033-0.103s-0.042-0.031-0.084-0.042
		c-0.043-0.011-0.147-0.02-0.314-0.025l-0.017-0.017v-0.117l0.017-0.017c0.399,0.013,0.624,0.019,0.673,0.019
		c0.053,0,0.277-0.006,0.673-0.019l0.019,0.017v0.117l-0.019,0.017c-0.109,0.003-0.193,0.008-0.252,0.014
		c-0.059,0.006-0.102,0.018-0.128,0.035c-0.026,0.018-0.044,0.058-0.052,0.121c-0.008,0.063-0.013,0.151-0.014,0.264l-0.005,0.539
		v1.085l0.005,0.457c0.001,0.177,0.006,0.291,0.014,0.342s0.02,0.086,0.034,0.103s0.043,0.032,0.084,0.043
		c0.042,0.012,0.146,0.021,0.313,0.027l0.019,0.014v0.117l-0.019,0.019c-0.4-0.012-0.625-0.019-0.673-0.019
		c-0.05,0-0.274,0.006-0.673,0.019l-0.017-0.019v-0.117l0.017-0.014c0.146-0.006,0.244-0.014,0.293-0.023
		c0.048-0.009,0.08-0.021,0.096-0.036c0.016-0.015,0.029-0.046,0.04-0.095c0.011-0.048,0.017-0.156,0.017-0.323l0.005-0.495v-0.534
		c-0.463-0.01-0.787-0.014-0.973-0.014c-0.191,0-0.51,0.004-0.957,0.014v0.534l0.003,0.457c0.001,0.177,0.006,0.291,0.014,0.342
		s0.02,0.086,0.034,0.103s0.043,0.032,0.086,0.043c0.042,0.012,0.146,0.021,0.312,0.027l0.019,0.014v0.117l-0.019,0.019
		c-0.398-0.012-0.623-0.019-0.673-0.019c-0.049,0-0.271,0.006-0.67,0.019l-0.02-0.019v-0.117l0.02-0.014
		c0.145-0.006,0.242-0.014,0.29-0.023c0.049-0.009,0.081-0.021,0.098-0.036c0.017-0.015,0.029-0.046,0.04-0.095
		c0.01-0.048,0.016-0.156,0.018-0.323l0.002-0.495v-1.085l-0.005-0.457c-0.001-0.178-0.006-0.293-0.013-0.345
		s-0.018-0.086-0.033-0.103c-0.015-0.017-0.043-0.031-0.085-0.042c-0.042-0.011-0.146-0.02-0.312-0.025l-0.02-0.017v-0.117
		L31.869,23.035z"/>
	<path fill="#010101" d="M36.091,26.365l-0.021-0.019l-0.021-0.089c0.202-0.214,0.395-0.437,0.579-0.668l0.519-0.643
		c0.162-0.197,0.313-0.4,0.454-0.609h-0.553c-0.044,0-0.145,0.003-0.303,0.011c-0.157,0.007-0.245,0.02-0.263,0.038
		c-0.017,0.018-0.04,0.12-0.07,0.306l-0.014,0.075l-0.019,0.019h-0.094l-0.021-0.021c0.016-0.247,0.023-0.39,0.023-0.429
		c0-0.037-0.001-0.09-0.005-0.159l0.02-0.017c0.581,0.013,1.044,0.019,1.39,0.019c0.185,0,0.329-0.006,0.436-0.019l0.019,0.019
		v0.112c-0.107,0.119-0.275,0.324-0.504,0.614l-0.613,0.78c-0.182,0.23-0.309,0.396-0.383,0.5h0.164l0.469-0.007
		c0.172-0.001,0.316-0.008,0.434-0.021c0.117-0.012,0.186-0.023,0.205-0.032c0.02-0.008,0.032-0.016,0.037-0.023
		c0.004-0.007,0.018-0.056,0.041-0.146c0.022-0.09,0.04-0.175,0.053-0.253l0.021-0.019h0.105l0.021,0.021
		c-0.038,0.278-0.059,0.492-0.063,0.642l-0.019,0.019c-0.469-0.014-0.824-0.021-1.066-0.021
		C36.833,26.344,36.514,26.352,36.091,26.365z"/>
	<path fill="#010101" d="M40.199,26.363l-0.021-0.021v-0.107l0.021-0.019c0.096-0.001,0.172-0.007,0.229-0.016
		c0.058-0.01,0.094-0.025,0.11-0.047c0.017-0.022,0.027-0.057,0.033-0.105c0.005-0.049,0.011-0.158,0.017-0.328
		c0.005-0.17,0.008-0.292,0.008-0.366v-1.894c0-0.08-0.015-0.139-0.043-0.177c-0.029-0.039-0.068-0.062-0.119-0.073
		c-0.05-0.01-0.135-0.016-0.255-0.018l-0.019-0.019v-0.11l0.019-0.021c0.216,0.008,0.356,0.012,0.424,0.012
		c0.158,0,0.288-0.004,0.39-0.012l0.747,0.97l1.1,1.378c0.133,0.167,0.268,0.326,0.405,0.476v-1.814c0-0.057-0.003-0.176-0.008-0.36
		c-0.006-0.184-0.013-0.3-0.021-0.349c-0.008-0.049-0.021-0.083-0.041-0.1c-0.02-0.018-0.056-0.03-0.109-0.039
		c-0.055-0.008-0.127-0.014-0.22-0.015l-0.019-0.019v-0.108l0.019-0.021c0.127,0.008,0.308,0.012,0.542,0.012
		c0.214,0,0.369-0.004,0.466-0.012l0.021,0.021v0.108l-0.019,0.019c-0.104,0.001-0.184,0.007-0.239,0.018
		c-0.057,0.01-0.092,0.027-0.105,0.05c-0.015,0.023-0.024,0.058-0.029,0.104c-0.006,0.045-0.011,0.153-0.017,0.323
		s-0.008,0.293-0.008,0.368v1.113l0.002,0.645c0.003,0.211,0.006,0.422,0.01,0.635c-0.078-0.027-0.214-0.06-0.406-0.099
		l-0.166-0.197l-0.499-0.609l-1.59-1.985v1.798c0,0.072,0.003,0.2,0.009,0.384c0.005,0.185,0.012,0.296,0.02,0.335
		s0.019,0.066,0.03,0.081c0.013,0.015,0.04,0.028,0.081,0.041c0.042,0.013,0.127,0.02,0.257,0.021l0.019,0.019v0.11l-0.019,0.019
		c-0.081-0.011-0.213-0.017-0.394-0.017C40.578,26.347,40.375,26.352,40.199,26.363z"/>
	<path fill="#010101" d="M44.357,23.185l-0.019-0.017v-0.117l0.019-0.017c0.268,0.013,0.474,0.019,0.619,0.019
		c0.055,0,0.271-0.006,0.649-0.019c0.122-0.003,0.21-0.004,0.265-0.004c0.211,0,0.378,0.021,0.502,0.063
		c0.123,0.042,0.223,0.117,0.297,0.224c0.075,0.107,0.113,0.229,0.113,0.364c0,0.173-0.062,0.334-0.188,0.483
		s-0.328,0.255-0.609,0.319c0.168,0.016,0.308,0.038,0.417,0.068s0.204,0.075,0.283,0.137c0.08,0.062,0.143,0.142,0.189,0.24
		c0.046,0.098,0.068,0.212,0.068,0.342c0,0.102-0.016,0.205-0.047,0.309c-0.031,0.105-0.089,0.209-0.172,0.312
		c-0.084,0.103-0.185,0.191-0.304,0.265c-0.119,0.074-0.24,0.126-0.364,0.16c-0.124,0.033-0.278,0.049-0.463,0.049
		c-0.038,0-0.15-0.004-0.338-0.012c-0.208-0.004-0.32-0.007-0.337-0.007c-0.106,0-0.237,0.006-0.392,0.019l-0.019-0.019V26.27
		l0.019-0.023c0.091-0.041,0.143-0.069,0.157-0.084c0.014-0.016,0.025-0.154,0.033-0.415c0.009-0.261,0.014-0.46,0.014-0.598v-0.86
		l-0.003-0.532c0-0.116-0.001-0.21-0.005-0.283c-0.003-0.072-0.007-0.125-0.013-0.156c-0.005-0.031-0.015-0.053-0.026-0.065
		c-0.013-0.013-0.03-0.023-0.053-0.032c-0.023-0.009-0.062-0.016-0.116-0.022L44.357,23.185z M45.199,24.416
		c0.078,0.006,0.166,0.009,0.265,0.009c0.323,0,0.549-0.058,0.675-0.173c0.127-0.116,0.19-0.274,0.19-0.476
		c0-0.117-0.024-0.217-0.073-0.299c-0.048-0.082-0.124-0.145-0.229-0.188c-0.104-0.044-0.244-0.066-0.423-0.066
		c-0.146,0-0.273,0.012-0.384,0.035c-0.015,0.141-0.021,0.386-0.021,0.736V24.416z M45.204,26.124
		c0.12,0.028,0.243,0.042,0.37,0.042c0.224,0,0.398-0.036,0.525-0.107c0.126-0.072,0.22-0.172,0.279-0.299
		c0.061-0.127,0.091-0.266,0.091-0.416c0-0.225-0.063-0.405-0.191-0.541c-0.127-0.135-0.402-0.203-0.826-0.203
		c-0.07,0-0.154,0.003-0.253,0.009v0.799L45.204,26.124z"/>
	<path fill="#010101" d="M48.468,24.767v0.476l0.003,0.457c0.001,0.17,0.006,0.283,0.014,0.339c0.008,0.055,0.02,0.091,0.034,0.108
		c0.015,0.016,0.043,0.03,0.086,0.042c0.042,0.012,0.146,0.021,0.312,0.027l0.019,0.014v0.117l-0.019,0.019
		c-0.397-0.012-0.621-0.019-0.673-0.019c-0.05,0-0.273,0.006-0.67,0.019l-0.02-0.019v-0.117l0.02-0.014
		c0.146-0.006,0.244-0.014,0.291-0.023c0.048-0.009,0.08-0.022,0.097-0.038s0.029-0.047,0.04-0.094
		c0.01-0.047,0.016-0.153,0.018-0.318l0.002-0.5v-1.085l-0.005-0.457c-0.001-0.178-0.006-0.293-0.013-0.345
		s-0.018-0.086-0.033-0.103c-0.015-0.017-0.043-0.031-0.085-0.042c-0.042-0.011-0.146-0.02-0.312-0.025l-0.02-0.017v-0.117
		l0.02-0.017c0.662,0.01,1.049,0.014,1.16,0.014c0.371,0,0.753-0.004,1.144-0.014l0.019,0.017c-0.025,0.078-0.041,0.167-0.049,0.266
		s-0.017,0.239-0.026,0.42l-0.019,0.019h-0.11l-0.017-0.019c-0.003-0.011-0.01-0.071-0.021-0.18
		c-0.008-0.086-0.021-0.165-0.038-0.237c-0.162-0.055-0.387-0.082-0.672-0.082c-0.129,0-0.278,0.009-0.45,0.028
		c-0.018,0.122-0.026,0.418-0.026,0.891v0.405c0.199,0.003,0.334,0.005,0.406,0.005c0.133,0,0.246-0.005,0.342-0.016
		c0.096-0.01,0.152-0.02,0.171-0.029c0.019-0.009,0.033-0.027,0.044-0.053c0.01-0.025,0.02-0.082,0.029-0.17l0.014-0.126
		l0.017-0.019h0.119l0.019,0.021l-0.016,0.513c0,0.06,0.002,0.146,0.007,0.258c0.006,0.128,0.009,0.228,0.009,0.298l-0.021,0.019
		H49.49l-0.017-0.019l-0.01-0.199c-0.004-0.078-0.012-0.135-0.023-0.171c-0.011-0.036-0.028-0.059-0.054-0.07
		c-0.024-0.011-0.08-0.021-0.166-0.03s-0.218-0.014-0.396-0.014C48.667,24.76,48.548,24.762,48.468,24.767z"/>
	<path fill="#010101" d="M54.765,23.042l0.021,0.019v0.115l-0.019,0.017c-0.172,0.005-0.278,0.013-0.32,0.026
		c-0.041,0.012-0.07,0.033-0.088,0.062c-0.017,0.029-0.026,0.085-0.029,0.17c-0.002,0.084-0.006,0.323-0.013,0.715v1.081
		c0,0.156,0.003,0.333,0.007,0.53c0.005,0.197,0.015,0.311,0.029,0.343c0.016,0.032,0.042,0.056,0.081,0.07s0.15,0.024,0.333,0.029
		l0.019,0.017v0.115l-0.021,0.019c-0.255-0.014-0.477-0.021-0.666-0.021c-0.128,0-0.346,0.007-0.654,0.021l-0.021-0.019v-0.113
		l0.019-0.019c0.172-0.005,0.278-0.013,0.32-0.026c0.041-0.012,0.07-0.033,0.088-0.062c0.017-0.029,0.027-0.086,0.03-0.172
		s0.007-0.323,0.012-0.712v-1.72l-0.809,1.692c-0.203,0.424-0.381,0.822-0.532,1.195H52.46c-0.087-0.201-0.159-0.362-0.216-0.482
		l-1.12-2.328v1.638c0,0.153,0.002,0.33,0.006,0.529s0.014,0.314,0.029,0.346s0.043,0.055,0.082,0.07s0.15,0.025,0.333,0.028
		l0.019,0.019v0.112l-0.021,0.021l-0.15-0.007c-0.154-0.008-0.287-0.012-0.398-0.012c-0.05,0-0.236,0.006-0.561,0.019l-0.019-0.019
		v-0.112l0.019-0.021c0.172-0.003,0.278-0.011,0.319-0.023c0.04-0.012,0.069-0.033,0.088-0.063c0.018-0.03,0.028-0.085,0.03-0.167
		s0.006-0.321,0.011-0.72v-1.073c0-0.142-0.002-0.315-0.006-0.519c-0.004-0.204-0.014-0.322-0.028-0.354
		c-0.015-0.032-0.042-0.056-0.081-0.072s-0.149-0.025-0.333-0.028l-0.019-0.019v-0.112l0.021-0.021
		c0.107,0.008,0.253,0.012,0.436,0.012c0.172,0,0.322-0.004,0.45-0.012c0.131,0.303,0.257,0.577,0.377,0.823l0.889,1.823
		l0.802-1.671c0.217-0.452,0.363-0.777,0.438-0.975c0.149,0.008,0.298,0.012,0.442,0.012C54.432,23.054,54.586,23.05,54.765,23.042z
		"/>
	<path fill="#010101" d="M56.646,23.051l0.019-0.017c0.388,0.013,0.611,0.019,0.671,0.019c0.053,0,0.277-0.006,0.672-0.019
		l0.02,0.017v0.117l-0.02,0.017c-0.107,0.003-0.19,0.008-0.249,0.014c-0.059,0.006-0.102,0.018-0.128,0.035
		c-0.026,0.018-0.044,0.058-0.053,0.121c-0.009,0.063-0.013,0.151-0.013,0.264l-0.005,0.539v0.745c0,0.246,0.005,0.425,0.016,0.541
		c0.01,0.115,0.031,0.211,0.065,0.291c0.033,0.079,0.085,0.147,0.153,0.204c0.068,0.057,0.167,0.104,0.295,0.14
		c0.129,0.036,0.273,0.054,0.437,0.054c0.172,0,0.332-0.023,0.481-0.071s0.263-0.117,0.341-0.208c0.078-0.09,0.13-0.209,0.154-0.357
		c0.023-0.147,0.036-0.353,0.036-0.615v-0.722c0-0.122-0.002-0.29-0.006-0.503s-0.014-0.336-0.028-0.368
		c-0.015-0.032-0.042-0.056-0.082-0.072c-0.04-0.017-0.15-0.026-0.332-0.029l-0.019-0.019v-0.11l0.019-0.021
		c0.231,0.013,0.417,0.019,0.556,0.019c0.119,0,0.304-0.006,0.554-0.019l0.021,0.019v0.112l-0.021,0.019
		c-0.147,0.003-0.243,0.009-0.287,0.018c-0.045,0.008-0.076,0.021-0.094,0.039c-0.019,0.017-0.031,0.043-0.04,0.08
		s-0.015,0.139-0.018,0.31l-0.007,0.527v0.712c0,0.284-0.012,0.509-0.033,0.673s-0.07,0.299-0.146,0.404s-0.166,0.193-0.27,0.265
		c-0.104,0.071-0.237,0.126-0.399,0.164c-0.163,0.038-0.332,0.058-0.507,0.058c-0.219,0-0.412-0.024-0.58-0.073
		s-0.3-0.113-0.397-0.192c-0.097-0.08-0.166-0.164-0.208-0.252s-0.069-0.192-0.082-0.312s-0.019-0.302-0.019-0.547v-0.9
		l-0.005-0.457c-0.002-0.178-0.006-0.293-0.013-0.345c-0.008-0.052-0.019-0.086-0.033-0.103s-0.043-0.031-0.086-0.042
		c-0.042-0.011-0.146-0.02-0.312-0.025l-0.019-0.017V23.051z"/>
	<path fill="#010101" d="M60.688,23.035c0.398,0.013,0.621,0.019,0.67,0.019c0.052,0,0.275-0.006,0.673-0.019l0.019,0.017v0.117
		l-0.019,0.017c-0.108,0.003-0.191,0.008-0.25,0.014c-0.059,0.006-0.101,0.018-0.128,0.035c-0.026,0.018-0.044,0.058-0.053,0.121
		c-0.008,0.063-0.013,0.151-0.013,0.264l-0.005,0.539v0.328c0.343,0.009,0.667,0.014,0.973,0.014c0.419,0,0.738-0.004,0.957-0.014
		v-0.328l-0.005-0.457c-0.002-0.178-0.006-0.293-0.014-0.345c-0.009-0.052-0.02-0.086-0.033-0.103s-0.042-0.031-0.084-0.042
		c-0.043-0.011-0.147-0.02-0.314-0.025l-0.017-0.017v-0.117l0.017-0.017c0.399,0.013,0.624,0.019,0.673,0.019
		c0.053,0,0.277-0.006,0.673-0.019l0.019,0.017v0.117l-0.019,0.017c-0.109,0.003-0.193,0.008-0.252,0.014
		c-0.059,0.006-0.102,0.018-0.128,0.035c-0.026,0.018-0.044,0.058-0.052,0.121c-0.008,0.063-0.013,0.151-0.014,0.264l-0.005,0.539
		v1.085l0.005,0.457c0.001,0.177,0.006,0.291,0.014,0.342s0.02,0.086,0.034,0.103s0.043,0.032,0.084,0.043
		c0.042,0.012,0.146,0.021,0.313,0.027l0.019,0.014v0.117l-0.019,0.019c-0.4-0.012-0.625-0.019-0.673-0.019
		c-0.05,0-0.274,0.006-0.673,0.019l-0.017-0.019v-0.117l0.017-0.014c0.146-0.006,0.244-0.014,0.293-0.023
		c0.048-0.009,0.08-0.021,0.096-0.036c0.016-0.015,0.029-0.046,0.04-0.095c0.011-0.048,0.017-0.156,0.017-0.323l0.005-0.495v-0.534
		c-0.463-0.01-0.787-0.014-0.973-0.014c-0.191,0-0.51,0.004-0.957,0.014v0.534l0.003,0.457c0.001,0.177,0.006,0.291,0.014,0.342
		s0.02,0.086,0.034,0.103s0.043,0.032,0.086,0.043c0.042,0.012,0.146,0.021,0.312,0.027l0.019,0.014v0.117l-0.019,0.019
		c-0.398-0.012-0.623-0.019-0.673-0.019c-0.049,0-0.271,0.006-0.67,0.019l-0.02-0.019v-0.117l0.02-0.014
		c0.145-0.006,0.242-0.014,0.29-0.023c0.049-0.009,0.081-0.021,0.098-0.036c0.017-0.015,0.029-0.046,0.04-0.095
		c0.01-0.048,0.016-0.156,0.018-0.323l0.002-0.495v-1.085l-0.005-0.457c-0.001-0.178-0.006-0.293-0.013-0.345
		s-0.018-0.086-0.033-0.103c-0.015-0.017-0.043-0.031-0.085-0.042c-0.042-0.011-0.146-0.02-0.312-0.025l-0.02-0.017v-0.117
		L60.688,23.035z"/>
	<path fill="#010101" d="M65.805,24.767v0.476l0.003,0.457c0.001,0.17,0.006,0.283,0.014,0.339c0.008,0.055,0.02,0.091,0.034,0.108
		c0.015,0.016,0.043,0.03,0.086,0.042c0.042,0.012,0.146,0.021,0.312,0.027l0.019,0.014v0.117l-0.019,0.019
		c-0.397-0.012-0.621-0.019-0.673-0.019c-0.05,0-0.273,0.006-0.67,0.019l-0.02-0.019v-0.117l0.02-0.014
		c0.146-0.006,0.244-0.014,0.291-0.023c0.048-0.009,0.08-0.022,0.097-0.038s0.029-0.047,0.04-0.094
		c0.01-0.047,0.016-0.153,0.018-0.318l0.002-0.5v-1.085l-0.005-0.457c-0.001-0.178-0.006-0.293-0.013-0.345
		s-0.018-0.086-0.033-0.103c-0.015-0.017-0.043-0.031-0.085-0.042c-0.042-0.011-0.146-0.02-0.312-0.025l-0.02-0.017v-0.117
		l0.02-0.017c0.662,0.01,1.049,0.014,1.16,0.014c0.371,0,0.753-0.004,1.144-0.014l0.019,0.017c-0.025,0.078-0.041,0.167-0.049,0.266
		s-0.017,0.239-0.026,0.42l-0.019,0.019h-0.11l-0.017-0.019c-0.003-0.011-0.01-0.071-0.021-0.18
		c-0.008-0.086-0.021-0.165-0.038-0.237c-0.162-0.055-0.387-0.082-0.672-0.082c-0.129,0-0.278,0.009-0.45,0.028
		c-0.018,0.122-0.026,0.418-0.026,0.891v0.405c0.199,0.003,0.334,0.005,0.406,0.005c0.133,0,0.246-0.005,0.342-0.016
		c0.096-0.01,0.152-0.02,0.171-0.029c0.019-0.009,0.033-0.027,0.044-0.053c0.01-0.025,0.02-0.082,0.029-0.17l0.014-0.126
		l0.017-0.019h0.119l0.019,0.021l-0.016,0.513c0,0.06,0.002,0.146,0.007,0.258c0.006,0.128,0.009,0.228,0.009,0.298l-0.021,0.019
		h-0.117l-0.017-0.019l-0.01-0.199c-0.004-0.078-0.012-0.135-0.023-0.171c-0.011-0.036-0.028-0.059-0.054-0.07
		c-0.024-0.011-0.08-0.021-0.166-0.03s-0.218-0.014-0.396-0.014C66.004,24.76,65.885,24.762,65.805,24.767z"/>
	<path fill="#010101" d="M71.962,23.035l0.021,0.021c-0.015,0.141-0.021,0.386-0.021,0.736l-0.019,0.019h-0.11l-0.019-0.021
		l-0.026-0.216c-0.013-0.115-0.021-0.186-0.029-0.212c-0.007-0.026-0.019-0.044-0.033-0.056c-0.017-0.012-0.067-0.021-0.152-0.029
		c-0.087-0.008-0.183-0.012-0.289-0.012h-0.442c-0.013,0.353-0.02,0.557-0.02,0.612v1.366l0.005,0.457
		c0.002,0.177,0.006,0.291,0.013,0.343c0.008,0.053,0.019,0.087,0.033,0.104c0.015,0.016,0.043,0.03,0.086,0.042
		c0.042,0.012,0.146,0.021,0.313,0.027l0.017,0.014v0.117l-0.017,0.019c-0.399-0.012-0.623-0.019-0.67-0.019
		c-0.05,0-0.272,0.006-0.668,0.019l-0.019-0.019v-0.117l0.019-0.014c0.146-0.006,0.244-0.014,0.292-0.023
		c0.047-0.009,0.079-0.021,0.096-0.036c0.017-0.015,0.03-0.046,0.041-0.095c0.011-0.048,0.017-0.156,0.017-0.323l0.005-0.495v-1.366
		c0-0.025-0.007-0.229-0.02-0.612h-0.349c-0.144,0-0.269,0.003-0.373,0.009s-0.165,0.022-0.182,0.048
		c-0.017,0.026-0.031,0.11-0.046,0.252l-0.023,0.216l-0.021,0.021h-0.108l-0.019-0.019c-0.003-0.376-0.01-0.622-0.021-0.736
		l0.021-0.021c0.272,0.013,0.725,0.019,1.357,0.019C71.248,23.054,71.701,23.047,71.962,23.035z"/>
	<path fill="#010101" d="M73.215,24.113l0.044,0.031c-0.009,0.09-0.017,0.251-0.021,0.483l0.176-0.223
		c0.058-0.074,0.108-0.13,0.153-0.17c0.044-0.04,0.097-0.071,0.155-0.093c0.06-0.022,0.121-0.033,0.184-0.033
		c0.068,0,0.133,0.014,0.194,0.042l0.017,0.033c-0.025,0.208-0.039,0.391-0.043,0.549h-0.105c-0.062-0.144-0.163-0.216-0.302-0.216
		c-0.097,0-0.182,0.031-0.253,0.093c-0.072,0.062-0.12,0.139-0.145,0.232s-0.036,0.21-0.036,0.353v0.26
		c0,0.047,0.003,0.162,0.009,0.345c0.007,0.183,0.014,0.288,0.021,0.316c0.007,0.028,0.018,0.049,0.032,0.062
		c0.016,0.013,0.035,0.022,0.059,0.027c0.024,0.005,0.136,0.013,0.334,0.023l0.021,0.019v0.098l-0.021,0.021
		c-0.207-0.012-0.425-0.019-0.651-0.019c-0.18,0-0.367,0.006-0.562,0.019l-0.021-0.021v-0.098l0.021-0.019
		c0.151-0.009,0.237-0.016,0.257-0.021s0.037-0.015,0.052-0.029s0.024-0.038,0.03-0.068c0.006-0.031,0.012-0.131,0.019-0.302
		c0.007-0.171,0.011-0.301,0.011-0.388v-0.462c0-0.062-0.003-0.147-0.01-0.255c-0.006-0.108-0.011-0.174-0.015-0.199
		s-0.017-0.043-0.036-0.055c-0.021-0.012-0.062-0.018-0.122-0.018l-0.197-0.002l-0.021-0.019v-0.101l0.019-0.019
		C72.758,24.253,73.01,24.194,73.215,24.113z"/>
	<path fill="#010101" d="M74.947,24.757l-0.092-0.023l-0.019-0.023V24.42c0.278-0.206,0.549-0.309,0.811-0.309
		c0.18,0,0.329,0.033,0.448,0.101c0.118,0.067,0.204,0.151,0.258,0.252c0.053,0.101,0.079,0.218,0.079,0.353l-0.012,0.471v0.699
		c0,0.095,0.007,0.153,0.021,0.173c0.013,0.021,0.028,0.034,0.046,0.041c0.017,0.007,0.049,0.013,0.096,0.018l0.134,0.012
		l0.019,0.021v0.094l-0.019,0.019c-0.114-0.01-0.221-0.014-0.319-0.014c-0.094,0-0.206,0.004-0.337,0.014l-0.035-0.033l0.009-0.377
		l-0.511,0.398c-0.086,0.036-0.18,0.054-0.281,0.054c-0.125,0-0.232-0.022-0.322-0.068s-0.158-0.109-0.206-0.19
		s-0.071-0.18-0.071-0.295c0-0.229,0.071-0.409,0.216-0.538c0.144-0.129,0.535-0.239,1.176-0.33c0-0.231-0.051-0.394-0.154-0.489
		c-0.104-0.094-0.241-0.142-0.415-0.142c-0.091,0-0.173,0.013-0.247,0.04c-0.074,0.027-0.117,0.048-0.128,0.064
		c-0.011,0.017-0.053,0.112-0.126,0.287L74.947,24.757z M76.034,25.128c-0.438,0.073-0.71,0.152-0.817,0.237
		c-0.108,0.084-0.162,0.215-0.162,0.391c0,0.244,0.121,0.366,0.363,0.366c0.208,0,0.413-0.12,0.616-0.361V25.128z"/>
	<path fill="#010101" d="M77.893,24.113l0.044,0.031c-0.009,0.104-0.016,0.242-0.019,0.413c0.125-0.104,0.244-0.208,0.356-0.314
		c0.033-0.029,0.063-0.051,0.093-0.065c0.028-0.014,0.077-0.029,0.144-0.044c0.067-0.016,0.137-0.023,0.207-0.023
		c0.118,0,0.233,0.024,0.346,0.073c0.111,0.048,0.195,0.105,0.253,0.172c0.057,0.066,0.097,0.145,0.118,0.236
		c0.021,0.09,0.033,0.202,0.033,0.335v0.413c0,0.027,0.004,0.221,0.012,0.583c0.003,0.148,0.02,0.237,0.049,0.265
		c0.029,0.028,0.127,0.042,0.291,0.042l0.019,0.019v0.101l-0.019,0.019c-0.199-0.012-0.333-0.019-0.403-0.019
		c-0.041,0-0.155,0.006-0.343,0.019l-0.027-0.025c0.02-0.203,0.03-0.468,0.03-0.795v-0.307c0-0.185-0.005-0.317-0.013-0.399
		c-0.009-0.081-0.035-0.155-0.079-0.221s-0.103-0.118-0.176-0.155s-0.161-0.055-0.263-0.055c-0.081,0-0.15,0.008-0.208,0.025
		c-0.058,0.016-0.123,0.05-0.194,0.101c-0.072,0.051-0.125,0.099-0.16,0.143c-0.034,0.044-0.055,0.086-0.062,0.124
		c-0.007,0.039-0.011,0.12-0.011,0.245v0.408c0,0.035,0.003,0.145,0.01,0.332c0.006,0.187,0.013,0.296,0.02,0.327
		s0.018,0.054,0.031,0.068c0.015,0.014,0.031,0.023,0.052,0.027s0.104,0.011,0.253,0.02l0.021,0.019v0.098l-0.019,0.021
		c-0.195-0.012-0.384-0.019-0.565-0.019c-0.18,0-0.367,0.006-0.562,0.019l-0.021-0.021v-0.098l0.021-0.019
		c0.152-0.009,0.237-0.016,0.257-0.021s0.037-0.015,0.052-0.029s0.025-0.038,0.03-0.068c0.006-0.031,0.012-0.131,0.019-0.302
		c0.008-0.171,0.011-0.301,0.011-0.388v-0.462c0-0.062-0.003-0.147-0.009-0.255c-0.007-0.108-0.012-0.174-0.016-0.199
		s-0.016-0.043-0.036-0.055s-0.062-0.018-0.122-0.018l-0.197-0.002l-0.021-0.019v-0.101l0.019-0.019
		C77.437,24.253,77.688,24.194,77.893,24.113z"/>
	<path fill="#010101" d="M80.361,25.658h0.102l0.021,0.021c0.003,0.131,0.011,0.244,0.023,0.337
		c0.049,0.074,0.132,0.133,0.251,0.179c0.119,0.046,0.236,0.069,0.352,0.069c0.166,0,0.298-0.044,0.397-0.134
		c0.099-0.089,0.148-0.195,0.148-0.318c0-0.067-0.018-0.125-0.054-0.175s-0.09-0.09-0.163-0.122c-0.072-0.032-0.202-0.07-0.39-0.113
		c-0.161-0.038-0.273-0.067-0.338-0.088c-0.064-0.021-0.126-0.057-0.186-0.107c-0.059-0.05-0.104-0.111-0.136-0.184
		s-0.047-0.152-0.047-0.24c0-0.209,0.083-0.377,0.25-0.502c0.166-0.126,0.374-0.189,0.622-0.189c0.104,0,0.219,0.015,0.342,0.043
		c0.124,0.029,0.218,0.057,0.281,0.083l0.021,0.033c-0.013,0.062-0.021,0.227-0.023,0.492l-0.021,0.021h-0.094L81.7,24.744
		c-0.007-0.095-0.015-0.162-0.026-0.201c-0.011-0.038-0.039-0.08-0.084-0.124s-0.109-0.082-0.192-0.113
		c-0.083-0.03-0.17-0.045-0.263-0.045c-0.095,0-0.175,0.014-0.24,0.042c-0.064,0.028-0.117,0.071-0.156,0.128
		c-0.04,0.057-0.061,0.126-0.061,0.208c0,0.059,0.013,0.112,0.037,0.159c0.023,0.047,0.061,0.085,0.111,0.114
		c0.05,0.029,0.102,0.05,0.156,0.062l0.256,0.065c0.219,0.053,0.375,0.1,0.47,0.139s0.168,0.098,0.22,0.177
		c0.051,0.079,0.077,0.175,0.077,0.287c0,0.216-0.089,0.401-0.268,0.556c-0.178,0.155-0.407,0.232-0.687,0.232
		c-0.099,0-0.221-0.011-0.367-0.033c-0.146-0.022-0.271-0.046-0.373-0.073l-0.012-0.03l0.023-0.157
		c0.008-0.048,0.012-0.097,0.014-0.146s0.003-0.153,0.005-0.311L80.361,25.658z"/>
	<path fill="#010101" d="M83.262,24.113l0.045,0.031c-0.01,0.103-0.016,0.227-0.019,0.37l0.223-0.204
		c0.062-0.058,0.104-0.095,0.124-0.111c0.021-0.017,0.067-0.036,0.143-0.058s0.154-0.033,0.237-0.033
		c0.156,0,0.293,0.039,0.41,0.116c0.117,0.078,0.203,0.184,0.26,0.32c0.211-0.2,0.334-0.311,0.369-0.333s0.091-0.044,0.168-0.067
		c0.076-0.022,0.153-0.034,0.229-0.034c0.123,0,0.236,0.026,0.34,0.08s0.186,0.123,0.246,0.208s0.097,0.179,0.106,0.279
		c0.011,0.1,0.016,0.238,0.016,0.413v0.246c0,0.027,0.005,0.221,0.014,0.583c0.003,0.148,0.02,0.237,0.05,0.265
		c0.029,0.028,0.125,0.042,0.288,0.042l0.019,0.019v0.101l-0.019,0.019c-0.198-0.012-0.333-0.019-0.403-0.019
		c-0.039,0-0.152,0.006-0.34,0.019l-0.03-0.025c0.021-0.203,0.03-0.468,0.03-0.795v-0.281c0-0.249-0.012-0.422-0.035-0.521
		c-0.023-0.099-0.078-0.18-0.164-0.244s-0.188-0.095-0.307-0.095c-0.085,0-0.164,0.017-0.237,0.05s-0.14,0.083-0.198,0.15
		s-0.091,0.128-0.097,0.185c-0.007,0.057-0.01,0.162-0.01,0.315v0.293c0,0.069,0.003,0.198,0.01,0.387
		c0.006,0.189,0.013,0.299,0.02,0.331s0.018,0.053,0.033,0.067c0.015,0.013,0.031,0.021,0.052,0.025
		c0.019,0.004,0.103,0.011,0.252,0.02l0.021,0.019v0.098l-0.019,0.021c-0.195-0.012-0.384-0.019-0.565-0.019
		c-0.167,0-0.354,0.006-0.562,0.019l-0.021-0.021v-0.098l0.021-0.019c0.152-0.009,0.237-0.016,0.257-0.021s0.037-0.015,0.052-0.029
		s0.025-0.038,0.03-0.068c0.006-0.031,0.012-0.131,0.019-0.302c0.008-0.171,0.011-0.301,0.011-0.388v-0.267
		c0-0.177-0.012-0.312-0.036-0.408s-0.076-0.176-0.156-0.242c-0.079-0.065-0.18-0.098-0.3-0.098c-0.094,0-0.179,0.018-0.257,0.055
		c-0.077,0.037-0.141,0.082-0.189,0.136c-0.049,0.054-0.08,0.104-0.092,0.151s-0.018,0.149-0.018,0.305v0.347
		c0,0.069,0.004,0.198,0.01,0.387s0.013,0.299,0.02,0.331c0.008,0.031,0.019,0.053,0.033,0.067c0.015,0.013,0.032,0.021,0.052,0.025
		s0.104,0.011,0.252,0.02l0.021,0.019v0.098l-0.019,0.021c-0.195-0.012-0.384-0.019-0.564-0.019c-0.18,0-0.367,0.006-0.562,0.019
		L82.5,26.344v-0.098l0.021-0.019c0.151-0.009,0.237-0.016,0.257-0.021s0.036-0.015,0.051-0.029
		c0.016-0.015,0.025-0.038,0.031-0.068c0.005-0.031,0.012-0.131,0.019-0.302c0.007-0.171,0.011-0.301,0.011-0.388v-0.462
		c0-0.062-0.004-0.147-0.01-0.255s-0.012-0.174-0.016-0.199s-0.016-0.043-0.036-0.055s-0.061-0.018-0.122-0.018l-0.196-0.002
		l-0.021-0.019v-0.101l0.019-0.019C82.806,24.253,83.058,24.194,83.262,24.113z"/>
	<path fill="#010101" d="M87.751,24.113l0.045,0.031c-0.018,0.205-0.026,0.465-0.026,0.78v0.53c0,0.035,0.004,0.145,0.01,0.332
		c0.006,0.187,0.013,0.296,0.02,0.327c0.008,0.031,0.018,0.054,0.032,0.068c0.014,0.014,0.031,0.023,0.052,0.027
		c0.02,0.004,0.104,0.011,0.253,0.02l0.021,0.019v0.098l-0.019,0.021c-0.195-0.012-0.384-0.019-0.564-0.019
		c-0.18,0-0.367,0.006-0.562,0.019l-0.021-0.021v-0.098l0.021-0.019c0.151-0.009,0.237-0.016,0.257-0.021s0.036-0.015,0.051-0.029
		c0.016-0.015,0.025-0.038,0.031-0.068c0.005-0.031,0.012-0.131,0.019-0.302c0.007-0.171,0.011-0.301,0.011-0.388v-0.462
		c0-0.062-0.004-0.147-0.01-0.255s-0.012-0.174-0.016-0.199s-0.016-0.043-0.036-0.055s-0.061-0.018-0.122-0.018l-0.196-0.002
		l-0.021-0.019v-0.101l0.019-0.019C87.295,24.253,87.547,24.194,87.751,24.113z M87.552,23.065c0.073,0,0.136,0.026,0.188,0.077
		c0.052,0.052,0.077,0.114,0.077,0.188c0,0.072-0.025,0.134-0.077,0.185c-0.052,0.052-0.114,0.078-0.188,0.078
		c-0.071,0-0.134-0.025-0.187-0.076c-0.052-0.051-0.078-0.113-0.078-0.187c0-0.073,0.026-0.136,0.078-0.188
		C87.418,23.091,87.48,23.065,87.552,23.065z"/>
	<path fill="#010101" d="M91.46,24.287l-0.045,0.197l-0.019,0.021c-0.079-0.001-0.168-0.002-0.265-0.002
		c-0.088,0-0.2,0.001-0.338,0.002l-0.014,0.954c0,0.233,0.007,0.383,0.02,0.45c0.014,0.067,0.044,0.117,0.091,0.15
		c0.047,0.033,0.111,0.049,0.194,0.049c0.104,0,0.201-0.027,0.291-0.082l0.056,0.084c-0.037,0.027-0.127,0.105-0.27,0.234
		c-0.081,0.038-0.164,0.056-0.248,0.056c-0.352,0-0.527-0.17-0.527-0.511l0.012-0.401v-0.984h-1.022l-0.014,0.954
		c0,0.233,0.007,0.383,0.02,0.45c0.014,0.067,0.044,0.117,0.091,0.15c0.047,0.033,0.111,0.049,0.194,0.049
		c0.104,0,0.201-0.027,0.29-0.082l0.057,0.084c-0.037,0.027-0.127,0.105-0.27,0.234c-0.081,0.038-0.164,0.056-0.248,0.056
		c-0.352,0-0.527-0.17-0.527-0.511l0.012-0.401v-0.973h-0.097c-0.07,0-0.15,0.003-0.241,0.009l-0.021-0.019v-0.061l0.017-0.023
		c0.147-0.055,0.266-0.105,0.356-0.152c0-0.408-0.005-0.646-0.014-0.712c0.16-0.056,0.293-0.117,0.396-0.181l0.057,0.047
		c-0.016,0.102-0.034,0.384-0.057,0.846h1.029c0-0.442-0.003-0.68-0.007-0.712c0.16-0.056,0.293-0.117,0.396-0.181l0.057,0.047
		c-0.016,0.099-0.034,0.384-0.057,0.858c0.078,0.001,0.163,0.002,0.254,0.002c0.184,0,0.316-0.005,0.396-0.014L91.46,24.287z"/>
	<path fill="#010101" d="M93.81,26.002l-0.075,0.169c-0.163,0.104-0.308,0.173-0.435,0.204c-0.128,0.031-0.241,0.047-0.342,0.047
		c-0.188,0-0.365-0.037-0.533-0.11s-0.305-0.198-0.41-0.373c-0.105-0.175-0.158-0.386-0.158-0.633c0-0.164,0.021-0.312,0.062-0.444
		c0.04-0.132,0.083-0.23,0.128-0.294c0.044-0.064,0.119-0.135,0.226-0.213s0.219-0.141,0.338-0.188
		c0.118-0.047,0.247-0.07,0.384-0.07c0.188,0,0.354,0.044,0.496,0.132s0.243,0.201,0.301,0.339c0.059,0.137,0.087,0.283,0.087,0.438
		c0,0.049-0.002,0.096-0.007,0.141l-0.025,0.026c-0.106,0.023-0.25,0.039-0.43,0.047s-0.298,0.012-0.355,0.012h-0.753
		c0.003,0.324,0.085,0.562,0.244,0.715c0.159,0.153,0.354,0.23,0.586,0.23c0.109,0,0.214-0.019,0.315-0.057
		c0.101-0.037,0.207-0.09,0.319-0.157L93.81,26.002z M92.307,25.043c0.028,0.005,0.137,0.01,0.325,0.017
		c0.188,0.006,0.327,0.009,0.418,0.009c0.217,0,0.35-0.004,0.396-0.012c0.001-0.038,0.002-0.066,0.002-0.087
		c0-0.242-0.049-0.422-0.147-0.54s-0.233-0.177-0.403-0.177c-0.186,0-0.331,0.066-0.435,0.199
		C92.358,24.585,92.307,24.783,92.307,25.043z"/>
	<path fill="#010101" d="M95.177,24.113l0.044,0.031c-0.009,0.09-0.017,0.251-0.021,0.483l0.176-0.223
		c0.058-0.074,0.108-0.13,0.153-0.17c0.044-0.04,0.097-0.071,0.155-0.093c0.06-0.022,0.121-0.033,0.184-0.033
		c0.068,0,0.133,0.014,0.194,0.042l0.017,0.033c-0.025,0.208-0.039,0.391-0.043,0.549h-0.105c-0.062-0.144-0.163-0.216-0.302-0.216
		c-0.097,0-0.182,0.031-0.253,0.093c-0.072,0.062-0.12,0.139-0.145,0.232s-0.036,0.21-0.036,0.353v0.26
		c0,0.047,0.003,0.162,0.009,0.345c0.007,0.183,0.014,0.288,0.021,0.316c0.007,0.028,0.018,0.049,0.032,0.062
		c0.016,0.013,0.035,0.022,0.059,0.027c0.024,0.005,0.136,0.013,0.334,0.023l0.021,0.019v0.098l-0.021,0.021
		c-0.207-0.012-0.425-0.019-0.651-0.019c-0.18,0-0.367,0.006-0.562,0.019l-0.021-0.021v-0.098l0.021-0.019
		c0.151-0.009,0.237-0.016,0.257-0.021s0.037-0.015,0.052-0.029s0.024-0.038,0.03-0.068c0.006-0.031,0.012-0.131,0.019-0.302
		c0.007-0.171,0.011-0.301,0.011-0.388v-0.462c0-0.062-0.003-0.147-0.01-0.255c-0.006-0.108-0.011-0.174-0.015-0.199
		s-0.017-0.043-0.036-0.055c-0.021-0.012-0.062-0.018-0.122-0.018l-0.197-0.002l-0.021-0.019v-0.101l0.019-0.019
		C94.72,24.253,94.972,24.194,95.177,24.113z"/>
</g>
<g>
	<path fill="#231F20" d="M76.853,35.898h-19.4v-6.301h19.4V35.898z M57.752,35.598h18.801v-5.7H57.752V35.598z"/>
	<polygon fill="#231F20" points="73.134,34.229 71.082,32.501 71.34,32.195 73.088,33.667 75.359,31.018 75.663,31.278 	"/>
	<g>
		<path fill="#010101" d="M59.709,31.439h0.848c0.147,0,0.276,0.016,0.388,0.047c0.11,0.032,0.202,0.076,0.276,0.133
			s0.13,0.124,0.167,0.202s0.057,0.163,0.057,0.256c0,0.076-0.015,0.147-0.043,0.213c-0.029,0.066-0.07,0.126-0.123,0.179
			c-0.053,0.054-0.115,0.1-0.189,0.139s-0.155,0.069-0.244,0.09l0.891,1.188H61.26l-0.852-1.151H60.12v1.151h-0.411V31.439z
			 M60.12,32.613h0.237c0.093,0,0.178-0.012,0.256-0.037c0.078-0.024,0.146-0.059,0.203-0.104c0.058-0.045,0.103-0.1,0.135-0.165
			c0.032-0.064,0.048-0.136,0.048-0.216c0-0.073-0.013-0.14-0.038-0.202c-0.026-0.062-0.062-0.114-0.107-0.158
			s-0.101-0.078-0.164-0.103c-0.062-0.025-0.132-0.037-0.207-0.037H60.12V32.613z"/>
		<path fill="#010101" d="M63.055,33.928c-0.144,0-0.277-0.025-0.399-0.075s-0.228-0.119-0.316-0.206
			c-0.089-0.086-0.157-0.188-0.207-0.305c-0.051-0.117-0.075-0.241-0.075-0.374c0-0.139,0.024-0.271,0.075-0.393
			c0.05-0.122,0.118-0.229,0.207-0.32s0.194-0.163,0.316-0.215s0.256-0.079,0.399-0.079c0.145,0,0.277,0.024,0.398,0.072
			c0.121,0.048,0.227,0.114,0.315,0.198c0.089,0.083,0.159,0.182,0.209,0.295c0.05,0.113,0.074,0.234,0.074,0.363
			c0,0.143-0.024,0.277-0.074,0.404c-0.05,0.125-0.12,0.236-0.209,0.33s-0.194,0.169-0.315,0.223
			C63.332,33.9,63.199,33.928,63.055,33.928z M63.125,33.789c0.074,0,0.142-0.02,0.203-0.057c0.062-0.039,0.115-0.09,0.16-0.153
			s0.08-0.139,0.104-0.224c0.024-0.086,0.037-0.176,0.037-0.271c0-0.137-0.012-0.265-0.035-0.384
			c-0.023-0.119-0.062-0.223-0.114-0.312c-0.053-0.089-0.121-0.159-0.206-0.21c-0.084-0.051-0.188-0.077-0.311-0.077
			c-0.063,0-0.124,0.018-0.183,0.055c-0.059,0.036-0.11,0.086-0.156,0.149c-0.045,0.063-0.081,0.137-0.107,0.221
			c-0.027,0.084-0.041,0.174-0.041,0.269c0,0.137,0.015,0.267,0.044,0.387c0.029,0.121,0.071,0.226,0.127,0.315
			c0.055,0.09,0.123,0.16,0.204,0.213C62.932,33.764,63.023,33.789,63.125,33.789z"/>
		<path fill="#010101" d="M65.091,32.713v1.174H64.68v-2.449h0.411v1.116h1.23v-1.116h0.411v2.449h-0.411v-1.174H65.091z"/>
		<path fill="#010101" d="M68.198,33.789c0.061,0,0.121-0.008,0.18-0.024c0.06-0.017,0.112-0.041,0.158-0.073
			c0.047-0.033,0.084-0.074,0.112-0.121c0.027-0.047,0.042-0.102,0.042-0.164c0-0.075-0.02-0.142-0.059-0.199
			c-0.038-0.059-0.089-0.112-0.151-0.161c-0.062-0.049-0.135-0.095-0.216-0.138s-0.163-0.086-0.247-0.129
			c-0.083-0.043-0.166-0.088-0.247-0.136c-0.08-0.047-0.152-0.1-0.215-0.158s-0.113-0.123-0.152-0.195
			c-0.038-0.072-0.058-0.155-0.058-0.249s0.018-0.181,0.053-0.261c0.035-0.081,0.087-0.15,0.154-0.208
			c0.068-0.059,0.151-0.104,0.251-0.138c0.099-0.033,0.213-0.05,0.342-0.05c0.231,0,0.415,0.048,0.549,0.146
			c0.135,0.097,0.231,0.238,0.291,0.422l-0.211,0.097c-0.024-0.075-0.056-0.144-0.094-0.206c-0.038-0.062-0.084-0.115-0.137-0.16
			c-0.054-0.044-0.115-0.079-0.185-0.103c-0.068-0.024-0.146-0.036-0.233-0.036c-0.077,0-0.145,0.011-0.203,0.033
			c-0.058,0.021-0.105,0.05-0.144,0.084s-0.067,0.074-0.087,0.118c-0.019,0.044-0.028,0.089-0.028,0.134
			c0,0.064,0.02,0.124,0.06,0.177s0.092,0.104,0.156,0.152c0.064,0.048,0.139,0.094,0.222,0.138s0.168,0.089,0.254,0.135
			c0.086,0.045,0.171,0.093,0.254,0.142s0.157,0.104,0.222,0.162s0.116,0.123,0.156,0.192c0.04,0.07,0.06,0.147,0.06,0.232
			c0,0.098-0.019,0.189-0.055,0.273c-0.037,0.086-0.093,0.16-0.167,0.224c-0.073,0.063-0.165,0.114-0.274,0.151
			s-0.237,0.055-0.383,0.055c-0.117,0-0.222-0.013-0.314-0.038c-0.093-0.026-0.174-0.063-0.245-0.112
			c-0.071-0.05-0.132-0.109-0.182-0.182c-0.051-0.071-0.093-0.152-0.125-0.242l0.222-0.092c0.025,0.08,0.06,0.151,0.104,0.215
			c0.043,0.062,0.094,0.117,0.152,0.16c0.058,0.045,0.122,0.078,0.193,0.101C68.043,33.777,68.118,33.789,68.198,33.789z"/>
	</g>
</g>
<g>
	<path fill="#231F20" d="M46.266,35.648c-0.028,0-0.057-0.004-0.086-0.011c-0.927-0.231-2.654-1.158-2.564-3.007
		c0.089-1.822,1.712-2.74,2.558-2.971c0.187-0.051,0.379,0.059,0.43,0.246c0.051,0.186-0.059,0.378-0.245,0.429
		c-0.011,0.003-0.516,0.147-1.018,0.515c-0.645,0.472-0.99,1.083-1.025,1.815c-0.085,1.743,2.014,2.288,2.035,2.294
		c0.188,0.047,0.302,0.236,0.255,0.424C46.564,35.542,46.422,35.648,46.266,35.648z"/>
	<path fill="#231F20" d="M50.302,35.648c-0.027,0-0.057-0.004-0.085-0.011c-0.927-0.231-2.654-1.158-2.564-3.007
		c0.089-1.822,1.712-2.74,2.558-2.971c0.187-0.051,0.379,0.059,0.43,0.246c0.051,0.186-0.059,0.378-0.245,0.429
		c-0.011,0.003-0.516,0.147-1.018,0.515c-0.645,0.472-0.99,1.083-1.025,1.815c-0.085,1.743,2.014,2.288,2.035,2.294
		c0.188,0.047,0.302,0.236,0.255,0.424C50.602,35.542,50.459,35.648,50.302,35.648z"/>
	<path fill="#231F20" d="M50.315,32.998h-2.313c-0.193,0-0.351-0.156-0.351-0.35s0.157-0.351,0.351-0.351h2.313
		c0.193,0,0.35,0.157,0.35,0.351S50.509,32.998,50.315,32.998z"/>
</g>
</svg>
