<?xml version="1.0" encoding="utf-8"?>
<!-- Generator: Adobe Illustrator 16.0.0, SVG Export Plug-In . SVG Version: 6.00 Build 0)  -->
<!DOCTYPE svg PUBLIC "-//W3C//DTD SVG 1.1//EN" "http://www.w3.org/Graphics/SVG/1.1/DTD/svg11.dtd">
<svg version="1.1" id="Layer_1" xmlns="http://www.w3.org/2000/svg" xmlns:xlink="http://www.w3.org/1999/xlink" x="0px" y="0px"
	 width="121.89px" height="22.68px" viewBox="0 0 121.89 22.68" enable-background="new 0 0 121.89 22.68" xml:space="preserve">
<g id="silkscreen">
	<line fill="none" stroke="#F1F0F0" stroke-width="0.2032" stroke-linecap="round" x1="92.062" y1="7.236" x2="95.662" y2="7.236"/>
	<polyline fill="none" stroke="#F1F0F0" stroke-width="0.2032" stroke-linecap="round" points="95.662,7.236 97.463,9.036 
		97.463,12.636 	"/>
	
		<line fill="none" stroke="#F1F0F0" stroke-width="0.2032" stroke-linecap="round" x1="97.463" y1="12.636" x2="95.662" y2="14.436"/>
	<path fill="none" stroke="#F1F0F0" stroke-width="0.2032" stroke-linecap="round" d="M97.463,12.636"/>
	<line fill="none" stroke="#F1F0F0" stroke-width="0.2032" stroke-linecap="round" x1="83.062" y1="9.036" x2="84.861" y2="7.236"/>
	<line fill="none" stroke="#F1F0F0" stroke-width="0.2032" stroke-linecap="round" x1="84.861" y1="7.236" x2="88.463" y2="7.236"/>
	<line fill="none" stroke="#F1F0F0" stroke-width="0.2032" stroke-linecap="round" x1="88.463" y1="7.236" x2="90.262" y2="9.036"/>
	
		<line fill="none" stroke="#F1F0F0" stroke-width="0.2032" stroke-linecap="round" x1="90.262" y1="12.636" x2="88.463" y2="14.436"/>
	
		<line fill="none" stroke="#F1F0F0" stroke-width="0.2032" stroke-linecap="round" x1="88.463" y1="14.436" x2="84.861" y2="14.436"/>
	
		<line fill="none" stroke="#F1F0F0" stroke-width="0.2032" stroke-linecap="round" x1="84.861" y1="14.436" x2="83.062" y2="12.636"/>
	<line fill="none" stroke="#F1F0F0" stroke-width="0.2032" stroke-linecap="round" x1="92.062" y1="7.236" x2="90.262" y2="9.036"/>
	
		<line fill="none" stroke="#F1F0F0" stroke-width="0.2032" stroke-linecap="round" x1="90.262" y1="12.636" x2="92.062" y2="14.436"/>
	
		<line fill="none" stroke="#F1F0F0" stroke-width="0.2032" stroke-linecap="round" x1="95.662" y1="14.436" x2="92.062" y2="14.436"/>
	<line fill="none" stroke="#F1F0F0" stroke-width="0.2032" stroke-linecap="round" x1="70.463" y1="7.236" x2="74.062" y2="7.236"/>
	<line fill="none" stroke="#F1F0F0" stroke-width="0.2032" stroke-linecap="round" x1="74.062" y1="7.236" x2="75.861" y2="9.036"/>
	
		<line fill="none" stroke="#F1F0F0" stroke-width="0.2032" stroke-linecap="round" x1="75.861" y1="12.636" x2="74.062" y2="14.436"/>
	<line fill="none" stroke="#F1F0F0" stroke-width="0.2032" stroke-linecap="round" x1="75.861" y1="9.036" x2="77.662" y2="7.236"/>
	<line fill="none" stroke="#F1F0F0" stroke-width="0.2032" stroke-linecap="round" x1="77.662" y1="7.236" x2="81.262" y2="7.236"/>
	<line fill="none" stroke="#F1F0F0" stroke-width="0.2032" stroke-linecap="round" x1="81.262" y1="7.236" x2="83.062" y2="9.036"/>
	
		<line fill="none" stroke="#F1F0F0" stroke-width="0.2032" stroke-linecap="round" x1="83.062" y1="12.636" x2="81.262" y2="14.436"/>
	
		<line fill="none" stroke="#F1F0F0" stroke-width="0.2032" stroke-linecap="round" x1="81.262" y1="14.436" x2="77.662" y2="14.436"/>
	
		<line fill="none" stroke="#F1F0F0" stroke-width="0.2032" stroke-linecap="round" x1="77.662" y1="14.436" x2="75.861" y2="12.636"/>
	
		<line fill="none" stroke="#F1F0F0" stroke-width="0.2032" stroke-linecap="round" x1="68.662" y1="9.036" x2="68.662" y2="12.636"/>
	<line fill="none" stroke="#F1F0F0" stroke-width="0.2032" stroke-linecap="round" x1="70.463" y1="7.236" x2="68.662" y2="9.036"/>
	
		<line fill="none" stroke="#F1F0F0" stroke-width="0.2032" stroke-linecap="round" x1="68.662" y1="12.636" x2="70.463" y2="14.436"/>
	
		<line fill="none" stroke="#F1F0F0" stroke-width="0.2032" stroke-linecap="round" x1="74.062" y1="14.436" x2="70.463" y2="14.436"/>
	<line fill="none" stroke="#F1F0F0" stroke-width="0.2032" stroke-linecap="round" x1="25.377" y1="9.036" x2="27.177" y2="7.236"/>
	<line fill="none" stroke="#F1F0F0" stroke-width="0.2032" stroke-linecap="round" x1="27.177" y1="7.236" x2="30.777" y2="7.236"/>
	<polyline fill="none" stroke="#F1F0F0" stroke-width="0.2032" stroke-linecap="round" points="30.777,7.236 32.577,9.036 
		32.577,12.636 	"/>
	
		<line fill="none" stroke="#F1F0F0" stroke-width="0.2032" stroke-linecap="round" x1="32.577" y1="12.636" x2="30.777" y2="14.436"/>
	
		<line fill="none" stroke="#F1F0F0" stroke-width="0.2032" stroke-linecap="round" x1="30.777" y1="14.436" x2="27.177" y2="14.436"/>
	
		<line fill="none" stroke="#F1F0F0" stroke-width="0.2032" stroke-linecap="round" x1="27.177" y1="14.436" x2="25.377" y2="12.636"/>
	<path fill="none" stroke="#F1F0F0" stroke-width="0.2032" stroke-linecap="round" d="M32.577,12.636"/>
	<line fill="none" stroke="#F1F0F0" stroke-width="0.2032" stroke-linecap="round" x1="12.777" y1="7.236" x2="16.377" y2="7.236"/>
	<line fill="none" stroke="#F1F0F0" stroke-width="0.2032" stroke-linecap="round" x1="16.377" y1="7.236" x2="18.177" y2="9.036"/>
	
		<line fill="none" stroke="#F1F0F0" stroke-width="0.2032" stroke-linecap="round" x1="18.177" y1="12.636" x2="16.377" y2="14.436"/>
	<line fill="none" stroke="#F1F0F0" stroke-width="0.2032" stroke-linecap="round" x1="18.177" y1="9.036" x2="19.978" y2="7.236"/>
	<line fill="none" stroke="#F1F0F0" stroke-width="0.2032" stroke-linecap="round" x1="19.978" y1="7.236" x2="23.577" y2="7.236"/>
	<line fill="none" stroke="#F1F0F0" stroke-width="0.2032" stroke-linecap="round" x1="23.577" y1="7.236" x2="25.377" y2="9.036"/>
	
		<line fill="none" stroke="#F1F0F0" stroke-width="0.2032" stroke-linecap="round" x1="25.377" y1="12.636" x2="23.577" y2="14.436"/>
	
		<line fill="none" stroke="#F1F0F0" stroke-width="0.2032" stroke-linecap="round" x1="23.577" y1="14.436" x2="19.978" y2="14.436"/>
	
		<line fill="none" stroke="#F1F0F0" stroke-width="0.2032" stroke-linecap="round" x1="19.978" y1="14.436" x2="18.177" y2="12.636"/>
	
		<line fill="none" stroke="#F1F0F0" stroke-width="0.2032" stroke-linecap="round" x1="10.978" y1="9.036" x2="10.978" y2="12.636"/>
	<line fill="none" stroke="#F1F0F0" stroke-width="0.2032" stroke-linecap="round" x1="12.777" y1="7.236" x2="10.978" y2="9.036"/>
	
		<line fill="none" stroke="#F1F0F0" stroke-width="0.2032" stroke-linecap="round" x1="10.978" y1="12.636" x2="12.777" y2="14.436"/>
	
		<line fill="none" stroke="#F1F0F0" stroke-width="0.2032" stroke-linecap="round" x1="16.377" y1="14.436" x2="12.777" y2="14.436"/>
	<polygon fill="none" stroke="#F1F0F0" stroke-width="0.2032" stroke-linecap="round" points="121.5,22.312 0.312,22.312 
		0.312,0.242 121.5,0.312 	"/>
</g>
<g id="copper0_1_">
	<g id="copper1">
		<circle id="connector22pad_14_" fill="none" stroke="#F5BD17" stroke-width="1.5" cx="93.778" cy="10.836" r="2.055"/>
		<circle id="connector22pad_13_" fill="none" stroke="#F5BD17" stroke-width="1.5" cx="79.378" cy="10.836" r="2.055"/>
		<circle id="connector22pad_12_" fill="none" stroke="#F5BD17" stroke-width="1.5" cx="72.178" cy="10.836" r="2.055"/>
		<circle id="connector22pad_11_" fill="none" stroke="#F5BD17" stroke-width="1.5" cx="86.578" cy="10.836" r="2.055"/>
		<circle id="connector22pad_10_" fill="none" stroke="#F5BD17" stroke-width="1.5" cx="21.777" cy="10.836" r="2.056"/>
		<circle id="connector22pad_9_" fill="none" stroke="#F5BD17" stroke-width="1.5" cx="14.577" cy="10.836" r="2.055"/>
		<circle id="connector22pad_1_" fill="none" stroke="#F5BD17" stroke-width="1.5" cx="28.978" cy="10.836" r="2.055"/>
	</g>
</g>
</svg>
