<?xml version="1.0" encoding="utf-8"?>
<!-- Generator: Adobe Illustrator 16.0.0, SVG Export Plug-In . SVG Version: 6.00 Build 0)  -->
<!DOCTYPE svg PUBLIC "-//W3C//DTD SVG 1.1//EN" "http://www.w3.org/Graphics/SVG/1.1/DTD/svg11.dtd">
<svg version="1.1" id="_x30_" xmlns:xml="http://www.w3.org/XML/1998/namespace"
	 xmlns="http://www.w3.org/2000/svg" xmlns:xlink="http://www.w3.org/1999/xlink" x="0px" y="0px" width="273.6px"
	 height="397.594px" viewBox="0 0 273.6 397.594" enable-background="new 0 0 273.6 397.594" xml:space="preserve">
<desc  id="0.0" oldid="0.0">
	<referenceFile  id="0.0.0" oldid="0.0.0">controller_raspberry_pi_schematic.svg</referenceFile>
</desc>
<g id="_x30_.1" transform="translate(-237.1692,55.2746)">
	<g id="_x30_.1.0">
		<g id="layer1">
			<g id="_x30_.1.0.0.0_1_" transform="matrix(1.25,0,0,1.25,237.10357,-55.273538)">
				<g id="_x30_.1.0.0.0.0">
					<g id="schematic">
						<g id="schematic_1_">
							
								<rect id="_x30_.1.0.0.0" x="18.02" y="18.232" fill="none" stroke="#000000" stroke-width="2.4" stroke-linecap="round" stroke-linejoin="round" width="182.945" height="281.875"/>
							
								<line id="_x30_.1.0.0.1" fill="none" stroke="#000000" stroke-width="2.4" stroke-linecap="round" stroke-linejoin="round" x1="1.013" y1="52.248" x2="17.06" y2="52.248"/>
							<rect id="connector43pin" x="0.052" y="51.288" fill="none" width="17.008" height="1.92"/>
							<rect id="connector43terminal" x="0.052" y="51.288" fill="none" width="1.92" height="1.92"/>
							<g id="_x30_.1.0.0.0.0.0.0.4" transform="matrix(0.8 0 0 0.8 22.2445 54.1683)">
								<g id="_x30_.1.0.0.0.0.0.0.4.0">
									
										<text id="label43" transform="matrix(1 0 0 1 -5.149841e-04 4.577637e-04)" font-family="'LucidaGrande'" font-size="9.936">MOSI</text>
								</g>
							</g>
							
								<line id="_x30_.1.0.0.5" fill="none" stroke="#000000" stroke-width="2.4" stroke-linecap="round" stroke-linejoin="round" x1="1.013" y1="69.256" x2="17.06" y2="69.256"/>
							<rect id="connector20pin" x="0.052" y="68.295" fill="none" width="17.008" height="1.92"/>
							<rect id="connector20terminal" x="2.027" y="69.253" fill="none" width="0.034" height="0.004"/>
							<rect id="connector49terminal" x="0.052" y="68.295" fill="none" width="1.92" height="1.92"/>
							<g id="_x30_.1.0.0.0.0.0.0.9" transform="matrix(0.8 0 0 0.8 22.2445 71.1761)">
								<g id="_x30_.1.0.0.0.0.0.0.9.0">
									
										<text id="label49" transform="matrix(1 0 0 1 -5.149841e-04 4.577637e-04)" font-family="'LucidaGrande'" font-size="9.936">MISO</text>
								</g>
							</g>
							
								<line id="_x30_.1.0.0.9" fill="none" stroke="#000000" stroke-width="2.4" stroke-linecap="round" stroke-linejoin="round" x1="1.013" y1="86.263" x2="17.06" y2="86.263"/>
							<rect id="connector22pin" x="0.052" y="85.303" fill="none" width="17.008" height="1.92"/>
							<rect id="connector22terminal" x="2.027" y="86.261" fill="none" width="0.034" height="0.004"/>
							<rect id="connector58terminal" x="0.052" y="85.303" fill="none" width="1.92" height="1.92"/>
							<g id="_x30_.1.0.0.0.0.0.0.14" transform="matrix(0.8 0 0 0.8 22.2445 88.1839)">
								<g id="_x30_.1.0.0.0.0.0.0.14.0">
									
										<text id="label58" transform="matrix(1 0 0 1 -5.149841e-04 4.577637e-04)" font-family="'LucidaGrande'" font-size="9.936">SCLK</text>
								</g>
							</g>
							
								<line id="_x30_.1.0.0.13" fill="none" stroke="#000000" stroke-width="2.4" stroke-linecap="round" stroke-linejoin="round" x1="1.013" y1="103.272" x2="17.06" y2="103.272"/>
							<rect id="connector23pin" x="0.052" y="102.312" fill="none" width="17.008" height="1.92"/>
							<rect id="connector23terminal" x="2.027" y="103.27" fill="none" width="0.034" height="0.004"/>
							<rect id="connector0terminal_1_" x="0.052" y="102.312" fill="none" width="1.92" height="1.92"/>
							<g id="_x30_.1.0.0.0.0.0.0.19" transform="matrix(0.8 0 0 0.8 22.2445 105.1925)">
								<g id="_x30_.1.0.0.0.0.0.0.19.0">
									
										<text id="label0" transform="matrix(1 0 0 1 -5.149841e-04 4.425049e-04)" font-family="'LucidaGrande'" font-size="9.936">CEO_N</text>
								</g>
							</g>
							
								<line id="_x30_.1.0.0.17" fill="none" stroke="#000000" stroke-width="2.4" stroke-linecap="round" stroke-linejoin="round" x1="1.013" y1="120.28" x2="17.06" y2="120.28"/>
							<rect id="connector25pin" x="0.052" y="119.319" fill="none" width="17.008" height="1.92"/>
							<rect id="connector25terminal" x="2.027" y="120.277" fill="none" width="0.034" height="0.004"/>
							<rect id="connector1terminal_1_" x="0.052" y="119.319" fill="none" width="1.92" height="1.92"/>
							<g id="_x30_.1.0.0.0.0.0.0.24" transform="matrix(0.8 0 0 0.8 22.2445 122.1996)">
								<g id="_x30_.1.0.0.0.0.0.0.24.0">
									
										<text id="label1" transform="matrix(1 0 0 1 -5.149841e-04 3.509521e-04)" font-family="'LucidaGrande'" font-size="9.936">CE1_N</text>
								</g>
							</g>
							<g id="_x30_.1.0.0.0.0.0.0.25" transform="matrix(0.8 0 0 0.8 22.2445 157.0464)">
								<g id="_x30_.1.0.0.0.0.0.0.25.0">
									
										<text id="label43_1_" transform="matrix(1 0 0 1 -5.149841e-04 4.272461e-04)" font-family="'LucidaGrande'" font-size="9.936">Pin 4</text>
								</g>
							</g>
							<g id="_x30_.1.0.0.0.0.0.0.26" transform="matrix(0.8 0 0 0.8 22.2445 174.0542)">
								<g id="_x30_.1.0.0.0.0.0.0.26.0">
									
										<text id="label49_1_" transform="matrix(1 0 0 1 -5.149841e-04 4.425049e-04)" font-family="'LucidaGrande'" font-size="9.936">Pin 9</text>
								</g>
							</g>
							<g id="_x30_.1.0.0.0.0.0.0.27" transform="matrix(0.8 0 0 0.8 22.2445 191.062)">
								<g id="_x30_.1.0.0.0.0.0.0.27.0">
									
										<text id="label58_1_" transform="matrix(1 0 0 1 -5.149841e-04 4.730225e-04)" font-family="'LucidaGrande'" font-size="9.936">Pin 14</text>
								</g>
							</g>
							<g id="_x30_.1.0.0.0.0.0.0.28" transform="matrix(0.8 0 0 0.8 22.2445 208.0706)">
								<g id="_x30_.1.0.0.0.0.0.0.28.0">
									
										<text id="label0_1_" transform="matrix(1 0 0 1 -5.149841e-04 4.577637e-04)" font-family="'LucidaGrande'" font-size="9.936">Pin 17</text>
								</g>
							</g>
							<g id="_x30_.1.0.0.0.0.0.0.29" transform="matrix(0.8 0 0 0.8 22.2445 225.0777)">
								<g id="_x30_.1.0.0.0.0.0.0.29.0">
									
										<text id="label1_1_" transform="matrix(1 0 0 1 -5.149841e-04 3.662109e-04)" font-family="'LucidaGrande'" font-size="9.936">Pin 20</text>
								</g>
							</g>
							<g id="_x30_.1.0.0.0.0.0.0.30" transform="matrix(0.8 0 0 0.8 22.2445 242.0847)">
								<g id="_x30_.1.0.0.0.0.0.0.30.0">
									
										<text id="label1_2_" transform="matrix(1 0 0 1 -5.149841e-04 4.272461e-04)" font-family="'LucidaGrande'" font-size="9.936">Pin 25</text>
								</g>
							</g>
							
								<line id="_x30_.1.0.0.21" fill="none" stroke="#000000" stroke-width="2.4" stroke-linecap="round" stroke-linejoin="round" x1="200.965" y1="52.248" x2="217.973" y2="52.248"/>
							<rect id="connector6pin" x="201.925" y="51.288" fill="none" width="17.008" height="1.92"/>
							<rect id="connector6terminal" x="217.121" y="52.246" fill="none" width="0.034" height="0.004"/>
							<rect id="connector61terminal" x="217.012" y="51.288" fill="none" width="1.92" height="1.92"/>
							<g id="label61" enable-background="new    ">
								<g id="_x30_.1.0.0.24.0">
									<g id="_x30_.1.0.0.24.0.0">
										<g id="_x30_.1.0.0.0.0.0.0.35.0.0.0" transform="matrix(0.8 0 0 0.8 177.3238 225.3152)">
											<g id="_x30_.1.0.0.0.0.0.0.35.0.0.0.0">
												
													<text id="_x30_.1.0.0.24.0.0.0" transform="matrix(1 0 0 1 -3.051758e-05 3.814697e-04)" font-family="'LucidaGrande'" font-size="9.936">RXD</text>
											</g>
										</g>
									</g>
									<g id="_x30_.1.0.0.24.0.1">
										<g id="_x30_.1.0.0.0.0.0.0.35.0.1.0" transform="matrix(0.8 0 0 0.8 177.3238 208.0355)">
											<g id="_x30_.1.0.0.0.0.0.0.35.0.1.0.0">
												
													<text id="_x30_.1.0.0.24.0.1.0" transform="matrix(1 0 0 1 -3.051758e-05 3.814697e-04)" font-family="'LucidaGrande'" font-size="9.936">TXD</text>
											</g>
										</g>
									</g>
									<g id="_x30_.1.0.0.24.0.2">
										<g id="_x30_.1.0.0.0.0.0.0.35.0.2.0" transform="matrix(0.8 0 0 0.8 178.0723 276.7894)">
											<g id="_x30_.1.0.0.0.0.0.0.35.0.2.0.0">
												
													<text id="_x30_.1.0.0.24.0.2.0" transform="matrix(1 0 0 1 -9.155273e-05 3.967285e-04)" font-family="'LucidaGrande'" font-size="9.936">SDA0</text>
											</g>
										</g>
									</g>
									<g id="_x30_.1.0.0.24.0.3">
										<g id="_x30_.1.0.0.0.0.0.0.35.0.3.0" transform="matrix(0.8 0 0 0.8 179.566 259.5097)">
											<g id="_x30_.1.0.0.0.0.0.0.35.0.3.0.0">
												
													<text id="_x30_.1.0.0.24.0.3.0" transform="matrix(1 0 0 1 -3.051758e-05 4.272461e-04)" font-family="'LucidaGrande'" font-size="9.936">SCL0</text>
											</g>
										</g>
									</g>
									<g id="_x30_.1.0.0.24.0.4">
										<g id="_x30_.1.0.0.0.0.0.0.35.0.4.0" transform="matrix(0.8 0 0 0.8 173.3238 174.3261)">
											<g id="_x30_.1.0.0.0.0.0.0.35.0.4.0.0">
												
													<text id="_x30_.1.0.0.24.0.4.0" transform="matrix(1 0 0 1 -3.051758e-05 4.425049e-04)" font-family="'LucidaGrande'" font-size="9.936">GPIO0</text>
											</g>
										</g>
									</g>
								</g>
								<g id="_x30_.1.0.0.24.1">
									<g id="_x30_.1.0.0.0.0.0.0.35.1.0" transform="matrix(0.8 0 0 0.8 173.3238 157.0464)">
										<g id="_x30_.1.0.0.0.0.0.0.35.1.0.0">
											
												<text id="_x30_.1.0.0.24.1.0" transform="matrix(1 0 0 1 -3.051758e-05 4.425049e-04)" font-family="'LucidaGrande'" font-size="9.936">GPIO1</text>
										</g>
									</g>
								</g>
								<g id="_x30_.1.0.0.24.2">
									<g id="_x30_.1.0.0.0.0.0.0.35.2.0" transform="matrix(0.8 0 0 0.8 173.3238 139.7667)">
										<g id="_x30_.1.0.0.0.0.0.0.35.2.0.0">
											
												<text id="_x30_.1.0.0.24.2.0" transform="matrix(1 0 0 1 -3.051758e-05 4.730225e-04)" font-family="'LucidaGrande'" font-size="9.936">GPIO2</text>
										</g>
									</g>
								</g>
								<g id="_x30_.1.0.0.24.3">
									<g id="_x30_.1.0.0.0.0.0.0.35.3.0" transform="matrix(0.8 0 0 0.8 173.3238 123.287)">
										<g id="_x30_.1.0.0.0.0.0.0.35.3.0.0">
											
												<text id="_x30_.1.0.0.24.3.0" transform="matrix(1 0 0 1 -3.051758e-05 4.730225e-04)" font-family="'LucidaGrande'" font-size="9.936">GPIO3</text>
										</g>
									</g>
								</g>
								<g id="_x30_.1.0.0.24.4">
									<g id="_x30_.1.0.0.0.0.0.0.35.4.0" transform="matrix(0.8 0 0 0.8 173.3238 106.8073)">
										<g id="_x30_.1.0.0.0.0.0.0.35.4.0.0">
											
												<text id="_x30_.1.0.0.24.4.0" transform="matrix(1 0 0 1 -3.051758e-05 -5.035400e-04)" font-family="'LucidaGrande'" font-size="9.936">GPIO4</text>
										</g>
									</g>
								</g>
								<g id="_x30_.1.0.0.24.5">
									<g id="_x30_.1.0.0.0.0.0.0.35.5.0" transform="matrix(0.8 0 0 0.8 173.3238 89.5277)">
										<g id="_x30_.1.0.0.0.0.0.0.35.5.0.0">
											
												<text id="_x30_.1.0.0.24.5.0" transform="matrix(1 0 0 1 -3.051758e-05 3.662109e-04)" font-family="'LucidaGrande'" font-size="9.936">GPIO5</text>
										</g>
									</g>
								</g>
								<g id="_x30_.1.0.0.24.6">
									<g id="_x30_.1.0.0.0.0.0.0.35.6.0" transform="matrix(0.8 0 0 0.8 173.3238 72.248)">
										<g id="_x30_.1.0.0.0.0.0.0.35.6.0.0">
											
												<text id="_x30_.1.0.0.24.6.0" transform="matrix(1 0 0 1 -3.051758e-05 3.662109e-04)" font-family="'LucidaGrande'" font-size="9.936">GPIO6</text>
										</g>
									</g>
								</g>
								<g id="_x30_.1.0.0.24.7">
									<g id="_x30_.1.0.0.0.0.0.0.35.7.0" transform="matrix(0.8 0 0 0.8 173.3238 54.9683)">
										<g id="_x30_.1.0.0.0.0.0.0.35.7.0.0">
											
												<text id="_x30_.1.0.0.24.7.0" transform="matrix(1 0 0 1 -3.051758e-05 3.662109e-04)" font-family="'LucidaGrande'" font-size="9.936">GPIO7</text>
										</g>
									</g>
								</g>
							</g>
							
								<line id="_x30_.1.0.0.25" fill="none" stroke="#000000" stroke-width="2.4" stroke-linecap="round" stroke-linejoin="round" x1="200.965" y1="69.256" x2="217.973" y2="69.256"/>
							<rect id="connector21pin" x="201.925" y="68.295" fill="none" width="17.008" height="1.92"/>
							<rect id="connector21terminal" x="217.121" y="69.253" fill="none" width="0.034" height="0.004"/>
							<rect id="connector62terminal" x="217.012" y="68.295" fill="none" width="1.92" height="1.92"/>
							
								<line id="_x30_.1.0.0.28" fill="none" stroke="#000000" stroke-width="2.4" stroke-linecap="round" stroke-linejoin="round" x1="200.965" y1="86.263" x2="217.973" y2="86.263"/>
							<rect id="connector17pin" x="201.925" y="85.303" fill="none" width="17.008" height="1.92"/>
							<rect id="connector17terminal" x="217.121" y="86.261" fill="none" width="0.034" height="0.004"/>
							<rect id="connector63terminal" x="217.012" y="85.303" fill="none" width="1.92" height="1.92"/>
							
								<line id="_x30_.1.0.0.31" fill="none" stroke="#000000" stroke-width="2.4" stroke-linecap="round" stroke-linejoin="round" x1="200.965" y1="103.272" x2="217.973" y2="103.272"/>
							<rect id="connector15pin" x="201.925" y="102.312" fill="none" width="17.008" height="1.92"/>
							<rect id="connector15terminal" x="217.121" y="103.27" fill="none" width="0.034" height="0.004"/>
							<rect id="connector64terminal" x="217.012" y="102.312" fill="none" width="1.92" height="1.92"/>
							
								<line id="_x30_.1.0.0.34" fill="none" stroke="#000000" stroke-width="2.4" stroke-linecap="round" stroke-linejoin="round" x1="200.965" y1="120.28" x2="217.973" y2="120.28"/>
							<rect id="connector14pin" x="201.925" y="119.32" fill="none" width="17.008" height="1.92"/>
							<rect id="connector14terminal" x="217.121" y="120.278" fill="none" width="0.034" height="0.004"/>
							<rect id="connector65terminal" x="217.012" y="119.32" fill="none" width="1.92" height="1.92"/>
							
								<line id="_x30_.1.0.0.37" fill="none" stroke="#000000" stroke-width="2.4" stroke-linecap="round" stroke-linejoin="round" x1="200.965" y1="137.288" x2="217.973" y2="137.288"/>
							<rect id="connector12pin" x="201.925" y="136.327" fill="none" width="17.008" height="1.92"/>
							<rect id="connector12terminal" x="217.121" y="137.285" fill="none" width="0.034" height="0.004"/>
							<rect id="connector66terminal" x="217.012" y="136.327" fill="none" width="1.92" height="1.92"/>
							
								<line id="_x30_.1.0.0.40" fill="none" stroke="#000000" stroke-width="2.4" stroke-linecap="round" stroke-linejoin="round" x1="200.965" y1="154.295" x2="217.973" y2="154.295"/>
							<rect id="connector11pin" x="201.925" y="153.335" fill="none" width="17.008" height="1.92"/>
							<rect id="connector11terminal" x="217.121" y="154.293" fill="none" width="0.034" height="0.004"/>
							<rect id="connector67terminal" x="217.012" y="153.335" fill="none" width="1.92" height="1.92"/>
							
								<line id="_x30_.1.0.0.43" fill="none" stroke="#000000" stroke-width="2.4" stroke-linecap="round" stroke-linejoin="round" x1="200.965" y1="171.302" x2="217.973" y2="171.302"/>
							<rect id="connector10pin" x="201.925" y="170.344" fill="none" width="17.008" height="1.92"/>
							<rect id="connector10terminal" x="217.121" y="171.302" fill="none" width="0.034" height="0.004"/>
							<rect id="connector68terminal" x="217.012" y="170.344" fill="none" width="1.92" height="1.92"/>
							<g id="_x30_.1.0.0.0.0.0.0.64">
								
									<line id="_x30_.1.0.0.28_1_" fill="none" stroke="#000000" stroke-width="2.4" stroke-linecap="round" stroke-linejoin="round" x1="1.012" y1="154.294" x2="18.02" y2="154.294"/>
								<rect id="connector27pin" x="0.052" y="153.334" fill="none" width="17.008" height="1.92"/>
								<rect id="connector27terminal" x="0.035" y="154.292" fill="none" width="0.034" height="0.004"/>
								<rect id="connector17terminal_1_" x="1.83" y="154.292" fill="none" width="0.034" height="0.004"/>
								<rect id="connector63terminal_1_" x="0.053" y="153.334" fill="none" width="1.92" height="1.92"/>
								
									<line id="_x30_.1.0.0.31_1_" fill="none" stroke="#000000" stroke-width="2.4" stroke-linecap="round" stroke-linejoin="round" x1="1.012" y1="171.303" x2="18.02" y2="171.303"/>
								<rect id="connector26pin" x="0.052" y="170.343" fill="none" width="17.008" height="1.92"/>
								<rect id="connector26terminal" x="0.035" y="171.301" fill="none" width="0.034" height="0.005"/>
								<rect id="connector15terminal_1_" x="1.83" y="171.301" fill="none" width="0.034" height="0.005"/>
								<rect id="connector64terminal_1_" x="0.053" y="170.343" fill="none" width="1.92" height="1.92"/>
								
									<line id="_x30_.1.0.0.34_1_" fill="none" stroke="#000000" stroke-width="2.4" stroke-linecap="round" stroke-linejoin="round" x1="1.012" y1="188.311" x2="18.02" y2="188.311"/>
								<rect id="connector28pin" x="0.052" y="187.351" fill="none" width="17.008" height="1.92"/>
								<rect id="connector28terminal" x="0.035" y="188.309" fill="none" width="0.034" height="0.004"/>
								<rect id="connector14terminal_1_" x="1.83" y="188.308" fill="none" width="0.034" height="0.005"/>
								<rect id="connector65terminal_1_" x="0.053" y="187.351" fill="none" width="1.92" height="1.92"/>
								
									<line id="_x30_.1.0.0.37_1_" fill="none" stroke="#000000" stroke-width="2.4" stroke-linecap="round" stroke-linejoin="round" x1="1.012" y1="205.319" x2="18.02" y2="205.319"/>
								<rect id="connector30pin" x="0.052" y="204.358" fill="none" width="17.008" height="1.92"/>
								<rect id="connector30terminal" x="0.035" y="205.316" fill="none" width="0.034" height="0.003"/>
								<rect id="connector12terminal_1_" x="1.83" y="205.317" fill="none" width="0.034" height="0.003"/>
								<rect id="connector66terminal_1_" x="0.053" y="204.358" fill="none" width="1.92" height="1.92"/>
								
									<line id="_x30_.1.0.0.40_1_" fill="none" stroke="#000000" stroke-width="2.4" stroke-linecap="round" stroke-linejoin="round" x1="1.012" y1="222.326" x2="18.02" y2="222.326"/>
								<rect id="connector29pin" x="0.052" y="221.367" fill="none" width="17.008" height="1.92"/>
								<rect id="connector29terminal" x="0.035" y="222.325" fill="none" width="0.034" height="0.004"/>
								<rect id="connector11terminal_1_" x="1.83" y="222.325" fill="none" width="0.034" height="0.003"/>
								<rect id="connector67terminal_1_" x="0.053" y="221.367" fill="none" width="1.92" height="1.92"/>
								
									<line id="_x30_.1.0.0.43_1_" fill="none" stroke="#000000" stroke-width="2.4" stroke-linecap="round" stroke-linejoin="round" x1="1.012" y1="239.333" x2="18.02" y2="239.333"/>
								<rect id="connector31pin" x="0.052" y="238.375" fill="none" width="17.008" height="1.92"/>
								<rect id="connector31terminal" x="0.035" y="239.333" fill="none" width="0.034" height="0.003"/>
								<rect id="connector10terminal_1_" x="1.83" y="239.333" fill="none" width="0.034" height="0.003"/>
								<rect id="connector68terminal_1_" x="0.053" y="238.375" fill="none" width="1.92" height="1.92"/>
							</g>
							
								<line id="_x30_.1.0.0.46" fill="none" stroke="#000000" stroke-width="2.4" stroke-linecap="round" stroke-linejoin="round" x1="200.965" y1="205.319" x2="217.973" y2="205.319"/>
							<rect id="connector7pin" x="201.925" y="204.358" fill="none" width="17.008" height="1.92"/>
							<rect id="connector7terminal" x="217.121" y="205.317" fill="none" width="0.034" height="0.005"/>
							<rect id="connector52terminal" x="217.012" y="204.358" fill="none" width="1.92" height="1.92"/>
							
								<line id="_x30_.1.0.0.49" fill="none" stroke="#000000" stroke-width="2.4" stroke-linecap="round" stroke-linejoin="round" x1="200.965" y1="222.327" x2="217.973" y2="222.327"/>
							<rect id="connector9pin" x="201.925" y="221.367" fill="none" width="17.008" height="1.92"/>
							<rect id="connector9terminal" x="217.121" y="222.325" fill="none" width="0.034" height="0.005"/>
							<rect id="connector53terminal" x="217.012" y="221.367" fill="none" width="1.92" height="1.92"/>
							
								<line id="_x30_.1.0.0.52" fill="none" stroke="#000000" stroke-width="2.4" stroke-linecap="round" stroke-linejoin="round" x1="200.965" y1="256.343" x2="217.973" y2="256.343"/>
							<rect id="connector39pin" x="201.925" y="255.382" fill="none" width="17.008" height="1.92"/>
							<rect id="connector39terminal" x="217.012" y="255.382" fill="none" width="1.92" height="1.92"/>
							
								<line id="_x30_.1.0.0.55" fill="none" stroke="#000000" stroke-width="2.4" stroke-linecap="round" stroke-linejoin="round" x1="200.965" y1="273.351" x2="217.973" y2="273.351"/>
							<rect id="connector41pin" x="201.925" y="272.392" fill="none" width="17.008" height="1.919"/>
							<rect id="connector41terminal" x="217.012" y="272.392" fill="none" width="1.92" height="1.919"/>
							<g id="_x30_.1.0.0.58">
								<g id="_x30_.1.0.0.0.0.0.0.79.0" transform="matrix(0.8 0 0 0.8 72.6812 52.248)">
									<g id="_x30_.1.0.0.0.0.0.0.79.0.0">
										<text id="label" transform="matrix(1 0 0 1 -4.806519e-04 3.204346e-04)" font-family="'LucidaGrande'" font-size="18">RaspberryPi</text>
									</g>
								</g>
								<g id="_x30_.1.0.0.0.0.0.0.79.1" transform="matrix(0.8 0 0 0.8 84.9586 69.2566)">
									<g id="_x30_.1.0.0.0.0.0.0.79.1.0">
										
											<text id="label_1_" transform="matrix(1 0 0 1 -5.493164e-04 3.051758e-04)" font-family="'LucidaGrande'" font-size="18">Model A</text>
									</g>
								</g>
								<g id="_x30_.1.0.0.58.2">
									
										<line id="_x30_.1.0.0.58.2.0" fill="none" stroke="#000000" stroke-width="2.4" stroke-linecap="round" stroke-linejoin="round" x1="94.732" y1="1.224" x2="94.732" y2="17.272"/>
									<rect id="connector0pin" x="93.772" y="0.264" fill="none" width="1.92" height="17.008"/>
									<rect id="connector0terminal" x="94.73" y="1.409" fill="none" width="0.004" height="0.034"/>
									<polygon id="connector86terminal" fill="none" points="93.772,0.264 95.692,0.264 95.692,0.264 									"/>
									<g id="_x30_.1.0.0.0.0.0.0.79.2.4" transform="matrix(0.8 0 0 0.8 88.0976 27.3527)">
										<g id="_x30_.1.0.0.0.0.0.0.79.2.4.0">
											
												<text id="label86" transform="matrix(1 0 0 1 -4.692078e-04 2.746582e-04)" font-family="'LucidaGrande'" font-size="9.936">3V3</text>
										</g>
									</g>
									
										<line id="_x30_.1.0.0.58.2.4" fill="none" stroke="#000000" stroke-width="2.4" stroke-linecap="round" stroke-linejoin="round" x1="128.748" y1="1.224" x2="128.748" y2="17.272"/>
									<rect id="connector40pin" x="127.788" y="0.264" fill="none" width="1.92" height="17.008"/>
									<polygon id="connector40terminal" fill="none" points="127.788,0.264 129.708,0.264 129.708,0.264 									"/>
									<g id="_x30_.1.0.0.0.0.0.0.79.2.8" transform="matrix(0.8 0 0 0.8 124.3019 27.3527)">
										<g id="_x30_.1.0.0.0.0.0.0.79.2.8.0">
											
												<text id="label40" transform="matrix(1 0 0 1 1.525879e-05 2.746582e-04)" font-family="'LucidaGrande'" font-size="9.936">5V</text>
										</g>
									</g>
									<rect id="connector46pin" x="127.788" y="0.264" fill="none" width="1.92" height="17.008"/>
									<polygon id="connector46terminal" fill="none" points="127.788,0.264 129.708,0.264 129.708,0.264 									"/>
									<rect id="connector84pin" x="127.788" y="0.264" fill="none" width="1.92" height="17.008"/>
									<polygon id="connector84terminal" fill="none" points="127.788,0.264 129.708,0.264 129.708,0.264 									"/>
									<rect id="connector1pin" x="127.788" y="0.264" fill="none" width="1.92" height="17.008"/>
									<rect id="connector1terminal" x="128.746" y="1.409" fill="none" width="0.005" height="0.034"/>
									<polygon id="connector87terminal" fill="none" points="127.788,0.264 129.708,0.264 129.708,0.264 									"/>
								</g>
							</g>
							<g id="_x30_.1.0.0.59">
								
									<line id="_x30_.1.0.0.59.0" fill="none" stroke="#000000" stroke-width="2.4" stroke-linecap="round" stroke-linejoin="round" x1="109.493" y1="301.067" x2="109.493" y2="317.115"/>
								<rect id="connector44pin" x="108.532" y="301.067" fill="none" width="1.92" height="17.008"/>
								<polygon id="connector44terminal" fill="none" points="108.532,318.075 110.452,318.075 110.452,318.075 								"/>
								<g id="_x30_.1.0.0.0.0.0.0.80.3" transform="matrix(0.8 0 0 0.8 101.1344 296.4589)">
									<g id="_x30_.1.0.0.0.0.0.0.80.3.0">
										
											<text id="label44" transform="matrix(1 0 0 1 -5.493164e-04 3.814697e-04)" font-family="'LucidaGrande'" font-size="9.936">GND</text>
									</g>
								</g>
								<rect id="connector88pin" x="108.532" y="301.067" fill="none" width="1.92" height="17.008"/>
								<polygon id="connector88terminal" fill="none" points="108.532,318.075 110.452,318.075 110.452,318.075 								"/>
								<rect id="connector89pin" x="108.532" y="301.067" fill="none" width="1.92" height="17.008"/>
								<polygon id="connector89terminal" fill="none" points="108.532,318.075 110.452,318.075 110.452,318.075 								"/>
								<rect id="connector50pin" x="108.532" y="301.067" fill="none" width="1.92" height="17.008"/>
								<polygon id="connector50terminal" fill="none" points="108.532,318.075 110.452,318.075 110.452,318.075 								"/>
								<rect id="connector5pin" x="108.532" y="301.067" fill="none" width="1.92" height="17.008"/>
								<rect id="connector5terminal" x="109.49" y="316.348" fill="none" width="0.004" height="0.034"/>
								<polygon id="connector57terminal" fill="none" points="108.532,318.075 110.452,318.075 110.452,318.075 								"/>
							</g>
							<rect id="connector18pin" x="0.052" y="51.288" fill="none" width="17.008" height="1.92"/>
							<rect id="connector18terminal" x="2.027" y="52.246" fill="none" width="0.034" height="0.004"/>
							<rect id="connector85terminal" x="0.052" y="51.288" fill="none" width="1.92" height="1.92"/>
							<rect id="connector4pin" x="201.925" y="255.382" fill="none" width="17.008" height="1.92"/>
							<rect id="connector4terminal" x="217.283" y="256.34" fill="none" width="0.034" height="0.003"/>
							<rect id="connector55terminal" x="217.012" y="255.382" fill="none" width="1.92" height="1.92"/>
							<rect id="connector2pin" x="201.925" y="272.392" fill="none" width="17.008" height="1.919"/>
							<rect id="connector2terminal" x="217.283" y="273.35" fill="none" width="0.034" height="0.003"/>
							<rect id="connector56terminal" x="217.012" y="272.392" fill="none" width="1.92" height="1.919"/>
						</g>
					</g>
				</g>
			</g>
			<polygon id="polygon7398" points="484.857,201.376 478.975,204.771 478.975,197.98 			"/>
			<polygon id="polygon7400" points="478.975,222.632 484.857,219.238 484.857,226.033 			"/>
		</g>
	</g>
</g>
</svg>
