<?xml version="1.0" encoding="utf-8"?>
<!-- Generator: Adobe Illustrator 16.0.0, SVG Export Plug-In . SVG Version: 6.00 Build 0)  -->
<!DOCTYPE svg PUBLIC "-//W3C//DTD SVG 1.1//EN" "http://www.w3.org/Graphics/SVG/1.1/DTD/svg11.dtd">
<svg version="1.1" id="Layer_1" xmlns="http://www.w3.org/2000/svg" xmlns:xlink="http://www.w3.org/1999/xlink" x="0px" y="0px"
	 width="46.4px" height="86.96px" viewBox="0 0 46.4 86.96" enable-background="new 0 0 46.4 86.96" xml:space="preserve">
<path fill="#117491" d="M44.889,76.97V5.027c0-2.776-2.25-5.028-5.027-5.028H5.13c-2.777,0-5.029,2.252-5.029,5.028v76.903
	c0,2.777,2.251,5.029,5.029,5.029h34.731c2.777,0,5.027-2.252,5.027-5.029v-2.346l1.611-1.307L44.889,76.97z M6.706,13.407
	c-2.5,0-4.526-2.025-4.526-4.525c0-2.499,2.026-4.525,4.526-4.525c2.5,0,4.526,2.026,4.526,4.525
	C11.231,11.382,9.205,13.407,6.706,13.407z M37.883,13.811c-2.5,0-4.525-2.027-4.525-4.525c0-2.5,2.025-4.526,4.525-4.526
	s4.525,2.026,4.525,4.526C42.408,11.783,40.383,13.811,37.883,13.811z"/>
<g>
	<rect x="4.359" y="38.805" fill="#237B3D" width="27.186" height="27.183"/>
	<polygon opacity="0.2" fill="#010101" enable-background="new    " points="29.988,65.491 29.988,39.886 4.43,39.886 4.43,65.491 	
		"/>
	<polygon fill="#CB9E7C" points="29.402,39.886 4.06,39.886 4.06,64.628 29.402,64.628 	"/>
	<polygon fill="#AE896C" points="28.799,40.559 4.661,40.559 4.661,64.159 28.799,64.159 	"/>
	<path fill="#FFFFFF" d="M27.473,61.896c0,0.779-0.629,1.408-1.408,1.408H7.51c-0.777,0-1.407-0.629-1.407-1.408V43.189
		c0-0.776,0.63-1.408,1.407-1.408h18.555c0.779,0,1.408,0.632,1.408,1.408V61.896z"/>
	<g>
		<g>
			<circle fill="#E21F26" cx="9.843" cy="59.743" r="2.467"/>
			<circle fill="#FFFFFF" cx="9.317" cy="58.794" r="0.392"/>
			<g>
				<path fill="#FFFFFF" d="M12.02,60.69c0,0.256,0.008,0.469,0.017,0.646h-0.478l-0.026-0.328h-0.009
					c-0.093,0.154-0.305,0.377-0.69,0.377c-0.395,0-0.753-0.234-0.753-0.939v-1.266h0.544v1.172c0,0.359,0.115,0.59,0.403,0.59
					c0.216,0,0.359-0.154,0.416-0.293c0.018-0.047,0.031-0.105,0.031-0.168v-1.301h0.544V60.69z"/>
			</g>
		</g>
		<g>
			<path fill="#010101" d="M12.585,61.452c0.009-0.145,0.018-0.385,0.018-0.607v-2.26l0.545-0.275v1.283h0.009
				c0.133-0.209,0.368-0.346,0.691-0.346c0.527,0,0.903,0.438,0.898,1.094c0,0.773-0.491,1.16-0.979,1.16
				c-0.279,0-0.527-0.107-0.682-0.373h-0.009l-0.026,0.324H12.585z M13.147,60.563c0,0.043,0.004,0.088,0.013,0.127
				c0.058,0.217,0.248,0.381,0.482,0.381c0.341,0,0.549-0.275,0.549-0.709c0-0.381-0.181-0.691-0.544-0.691
				c-0.222,0-0.42,0.162-0.483,0.4c-0.008,0.039-0.017,0.088-0.017,0.141V60.563z"/>
			<path fill="#010101" d="M15.193,58.585l0.549-0.275v3.143h-0.549V58.585z"/>
			<path fill="#010101" d="M18.38,60.353c0,0.795-0.557,1.148-1.106,1.148c-0.611,0-1.081-0.422-1.081-1.111
				c0-0.709,0.465-1.143,1.116-1.143C17.952,59.247,18.38,59.698,18.38,60.353z M16.756,60.376c0,0.416,0.204,0.73,0.536,0.73
				c0.31,0,0.526-0.305,0.526-0.738c0-0.338-0.15-0.723-0.522-0.723C16.911,59.646,16.756,60.019,16.756,60.376z"/>
			<path fill="#010101" d="M19.107,59.296l0.256,0.406c0.071,0.117,0.133,0.223,0.195,0.334h0.013
				c0.062-0.119,0.124-0.232,0.186-0.342l0.239-0.398h0.594l-0.722,1.035l0.735,1.121h-0.615l-0.266-0.43
				c-0.071-0.115-0.133-0.23-0.194-0.352h-0.009c-0.062,0.125-0.125,0.232-0.195,0.352l-0.248,0.43h-0.603l0.749-1.1L18.5,59.296
				H19.107z"/>
		</g>
	</g>
	<g>
		<rect x="10.029" y="45.444" fill="#010101" width="0.713" height="0.713"/>
		<rect x="11.455" y="45.444" fill="#010101" width="0.713" height="0.713"/>
		<rect x="9.317" y="46.157" fill="#010101" width="0.712" height="0.713"/>
		<rect x="10.029" y="46.87" fill="#010101" width="0.713" height="0.711"/>
		<rect x="9.317" y="47.581" fill="#010101" width="0.712" height="0.713"/>
		<rect x="12.88" y="45.444" fill="#010101" width="0.713" height="0.713"/>
		<rect x="15.013" y="47.581" fill="#010101" width="0.713" height="0.713"/>
		<rect x="10.742" y="48.294" fill="#010101" width="0.713" height="0.713"/>
		<polygon fill="#010101" points="9.317,49.007 9.317,49.72 10.029,49.72 10.029,50.433 9.342,50.433 9.342,51.146 10.055,51.146 
			10.055,50.433 11.455,50.433 11.455,49.72 10.742,49.72 10.742,49.007 		"/>
		<polygon fill="#010101" points="14.307,47.581 15.013,47.581 15.013,46.87 14.307,46.87 14.307,46.157 15.013,46.157 
			15.013,45.444 14.299,45.444 14.299,46.157 13.593,46.157 13.593,47.581 		"/>
		<polygon fill="#010101" points="17.864,46.87 17.864,46.157 17.864,45.444 17.151,45.444 17.151,46.157 16.438,46.157 
			16.438,45.458 15.739,45.458 15.726,46.157 15.013,46.157 15.013,46.87 		"/>
		<polygon fill="#010101" points="10.742,52.671 11.455,52.671 11.455,51.958 11.455,51.245 10.742,51.245 10.742,51.958 
			10.029,51.958 9.317,51.958 9.317,52.671 10.029,52.671 		"/>
		<rect x="12.168" y="50.433" fill="#010101" width="0.712" height="0.713"/>
		<rect x="17.151" y="49.72" fill="#010101" width="0.713" height="0.713"/>
		<rect x="13.593" y="53.282" fill="#010101" width="0.713" height="0.715"/>
		<polygon fill="#010101" points="16.445,52.569 16.438,52.569 15.731,52.569 15.731,51.858 15.02,51.858 14.307,51.858 
			14.307,52.569 14.307,53.282 15.02,53.282 15.731,53.282 16.438,53.282 16.445,53.282 17.151,53.282 17.151,52.569 		"/>
		<polygon fill="#010101" points="18.577,45.444 18.577,46.157 18.577,46.87 17.864,46.87 17.864,47.581 17.151,47.581 
			16.438,47.581 16.438,48.294 15.726,48.294 15.726,49.007 15.726,49.72 15.013,49.72 15.013,50.433 14.307,50.433 14.307,49.72 
			14.307,49.007 13.593,49.007 13.593,48.294 12.88,48.294 12.88,46.157 12.168,46.157 12.168,46.87 11.455,46.87 11.455,47.581 
			12.168,47.581 12.168,48.294 12.168,49.007 12.168,49.72 12.88,49.72 12.88,50.433 13.593,50.433 14.299,50.433 14.299,51.146 
			15.013,51.146 15.726,51.146 15.726,50.433 16.438,50.433 16.438,49.72 17.151,49.72 17.151,49.007 17.864,49.007 17.864,48.294 
			18.577,48.294 18.577,49.007 17.864,49.007 17.864,49.72 18.577,49.72 18.577,52.569 17.864,52.569 17.864,53.282 18.577,53.282 
			18.577,55.421 19.289,55.421 19.289,48.294 19.289,47.581 19.289,46.87 19.289,46.157 19.289,45.444 		"/>
		<polygon fill="#010101" points="17.864,54.708 17.864,53.997 17.864,53.282 17.151,53.282 17.151,53.997 17.151,54.708 
			12.88,54.708 12.88,53.997 12.88,53.282 13.593,53.282 13.593,52.569 13.593,51.858 13.593,51.146 12.88,51.146 12.88,51.858 
			12.88,52.569 12.168,52.569 12.168,53.282 12.168,53.997 11.455,53.997 11.455,54.708 10.742,54.708 10.742,53.997 11.455,53.997 
			11.455,53.282 10.742,53.282 10.029,53.282 9.317,53.282 9.317,53.997 10.029,53.997 10.029,54.708 9.317,54.708 9.317,55.421 
			17.864,55.421 18.577,55.421 18.577,54.708 		"/>
	</g>
	<g>
		<path fill="#7D7D7D" d="M21.881,58.181c0,0.354-0.277,0.629-0.637,0.629c-0.355,0-0.64-0.275-0.64-0.629
			c0-0.344,0.285-0.621,0.64-0.621C21.604,57.56,21.881,57.837,21.881,58.181z M20.762,58.181c0,0.277,0.205,0.498,0.485,0.498
			c0.273,0,0.474-0.221,0.474-0.494c0-0.277-0.201-0.5-0.478-0.5C20.967,57.685,20.762,57.907,20.762,58.181z M21.145,58.507h-0.144
			v-0.621c0.057-0.01,0.136-0.02,0.239-0.02c0.118,0,0.17,0.02,0.216,0.047c0.034,0.025,0.061,0.074,0.061,0.137
			c0,0.066-0.054,0.121-0.129,0.143V58.2c0.06,0.021,0.094,0.068,0.113,0.152c0.019,0.094,0.03,0.131,0.045,0.154h-0.156
			c-0.019-0.023-0.03-0.078-0.049-0.152c-0.011-0.066-0.05-0.098-0.129-0.098h-0.068V58.507z M21.149,58.155h0.068
			c0.08,0,0.144-0.027,0.144-0.092c0-0.057-0.041-0.096-0.132-0.096c-0.038,0-0.064,0.006-0.08,0.01V58.155z"/>
	</g>
	<g>
		<path fill="#010101" d="M24.039,59.705c-0.229,0.008-0.505,0.017-0.782,0.017v0.009c0.243,0.059,0.514,0.138,0.737,0.211
			l0.742,0.231v0.336L24,60.713c-0.223,0.062-0.494,0.127-0.743,0.172v0.006c0.257,0.011,0.55,0.02,0.788,0.033l0.723,0.034v0.398
			l-1.903-0.122v-0.573l0.635-0.186c0.22-0.06,0.458-0.119,0.681-0.161v-0.009c-0.22-0.054-0.472-0.118-0.684-0.181l-0.632-0.203
			V59.36l1.903-0.104v0.421L24.039,59.705z"/>
		<path fill="#010101" d="M24.279,58.496l0.488,0.136v0.446l-1.903-0.582v-0.564l1.903-0.59v0.463l-0.488,0.146V58.496z
			 M23.958,58.014l-0.404,0.119c-0.113,0.033-0.254,0.067-0.367,0.096v0.006c0.113,0.027,0.257,0.056,0.367,0.087l0.404,0.113
			V58.014z"/>
		<path fill="#010101" d="M24.768,56.158l-0.344,0.172c-0.133,0.071-0.232,0.116-0.342,0.17v0.006
			c0.109,0.039,0.209,0.087,0.342,0.146l0.344,0.158v0.491l-0.962-0.551l-0.94,0.531v-0.494l0.348-0.167
			c0.116-0.057,0.208-0.099,0.316-0.144v-0.006c-0.122-0.045-0.206-0.082-0.316-0.13l-0.348-0.161v-0.491l0.929,0.536l0.974-0.564
			V56.158z"/>
		<path fill="#010101" d="M23.884,54.847h0.285v0.739h-0.285V54.847z"/>
		<path fill="#010101" d="M23.238,53.474c-0.003,0.048,0,0.099,0.005,0.167c0.031,0.381,0.226,0.55,0.44,0.598V54.23
			c-0.093-0.091-0.147-0.218-0.147-0.39c0-0.308,0.218-0.567,0.598-0.567c0.365,0,0.664,0.279,0.664,0.678
			c0,0.488-0.364,0.728-0.802,0.728c-0.345,0-0.632-0.127-0.816-0.324c-0.167-0.184-0.257-0.421-0.271-0.709
			c-0.006-0.079-0.006-0.13-0.003-0.172H23.238z M24.158,53.708c-0.17,0-0.316,0.09-0.316,0.273c0,0.116,0.07,0.212,0.164,0.254
			c0.021,0.012,0.057,0.018,0.107,0.018c0.194-0.009,0.369-0.102,0.369-0.297C24.482,53.804,24.344,53.708,24.158,53.708z"/>
		<path fill="#010101" d="M25.096,51.389c-0.08,0.271-0.162,0.497-0.27,0.751c-0.016,0.042-0.025,0.088-0.027,0.133
			c-0.028,0.429-0.345,0.83-0.966,0.83c-0.57,0-0.999-0.361-0.999-0.929c0-0.582,0.44-0.9,0.959-0.9c0.432,0,0.737,0.2,0.85,0.451
			h0.011c0.043-0.146,0.076-0.311,0.107-0.46L25.096,51.389z M23.811,51.728c-0.347,0-0.635,0.164-0.635,0.457
			c0,0.294,0.288,0.463,0.644,0.463c0.361,0.003,0.638-0.172,0.638-0.46C24.457,51.897,24.184,51.728,23.811,51.728z"/>
		<path fill="#010101" d="M23.884,50.324h0.285v0.739h-0.285V50.324z"/>
		<path fill="#010101" d="M23.842,48.768c0.567,0,0.957,0.229,0.957,0.697c0,0.475-0.426,0.684-0.946,0.686
			c-0.531,0-0.951-0.226-0.951-0.699C22.902,48.96,23.339,48.768,23.842,48.768z M23.853,49.719c0.42,0.003,0.622-0.099,0.622-0.265
			c0-0.167-0.209-0.258-0.627-0.258c-0.406,0-0.621,0.088-0.621,0.26C23.226,49.614,23.427,49.722,23.853,49.719z"/>
		<path fill="#010101" d="M23.884,47.854h0.285v0.739h-0.285V47.854z"/>
		<path fill="#010101" d="M23.842,46.298c0.567,0,0.957,0.229,0.957,0.697c0,0.475-0.426,0.684-0.946,0.687
			c-0.531,0-0.951-0.227-0.951-0.7C22.902,46.49,23.339,46.298,23.842,46.298z M23.853,47.249c0.42,0.003,0.622-0.099,0.622-0.265
			c0-0.167-0.209-0.258-0.627-0.258c-0.406,0-0.621,0.088-0.621,0.26C23.226,47.145,23.427,47.252,23.853,47.249z"/>
		<path fill="#010101" d="M23.842,44.735c0.567,0,0.957,0.229,0.957,0.697c0,0.475-0.426,0.684-0.946,0.687
			c-0.531,0-0.951-0.227-0.951-0.7C22.902,44.928,23.339,44.735,23.842,44.735z M23.853,45.687c0.42,0.003,0.622-0.099,0.622-0.265
			c0-0.167-0.209-0.258-0.627-0.258c-0.406,0-0.621,0.088-0.621,0.26C23.226,45.582,23.427,45.689,23.853,45.687z"/>
		<path fill="#010101" d="M23.842,43.173c0.567,0,0.957,0.229,0.957,0.697c0,0.475-0.426,0.684-0.946,0.687
			c-0.531,0-0.951-0.227-0.951-0.7C22.902,43.365,23.339,43.173,23.842,43.173z M23.853,44.124c0.42,0.003,0.622-0.099,0.622-0.265
			c0-0.167-0.209-0.258-0.627-0.258c-0.406,0-0.621,0.088-0.621,0.26C23.226,44.02,23.427,44.127,23.853,44.124z"/>
	</g>
</g>
<g>
	<path fill="#FFFFFF" d="M17.821,26.95v1.188h1.51V26.95h0.407v2.838h-0.407v-1.33h-1.51v1.33h-0.404V26.95H17.821z"/>
	<path fill="#FFFFFF" d="M20.943,28.896l-0.324,0.893h-0.417l1.061-2.838h0.487l1.065,2.838h-0.431l-0.333-0.893H20.943z
		 M21.968,28.608l-0.306-0.817c-0.069-0.185-0.116-0.354-0.162-0.517h-0.009c-0.047,0.169-0.098,0.34-0.158,0.513l-0.306,0.821
		H21.968z"/>
	<path fill="#FFFFFF" d="M23.275,26.987c0.176-0.033,0.454-0.06,0.737-0.06c0.404,0,0.662,0.064,0.857,0.208
		c0.162,0.108,0.26,0.277,0.26,0.5c0,0.273-0.199,0.515-0.529,0.623v0.009c0.297,0.067,0.645,0.291,0.645,0.712
		c0,0.244-0.107,0.431-0.264,0.568c-0.219,0.181-0.57,0.266-1.08,0.266c-0.277,0-0.491-0.017-0.626-0.034V26.987z M23.678,28.15
		h0.367c0.426,0,0.676-0.202,0.676-0.478c0-0.332-0.277-0.462-0.686-0.462c-0.185,0-0.292,0.013-0.357,0.025V28.15z M23.678,29.51
		c0.079,0.013,0.194,0.017,0.337,0.017c0.418,0,0.803-0.139,0.803-0.551c0-0.388-0.367-0.547-0.807-0.547h-0.333V29.51z"/>
	<path fill="#FFFFFF" d="M26.713,29.342c0.182,0.102,0.445,0.185,0.725,0.185c0.412,0,0.652-0.197,0.652-0.483
		c0-0.266-0.166-0.418-0.588-0.564c-0.51-0.165-0.824-0.404-0.824-0.806c0-0.441,0.402-0.77,1.01-0.77
		c0.318,0,0.551,0.066,0.689,0.139l-0.109,0.299c-0.104-0.05-0.312-0.134-0.594-0.134c-0.426,0-0.59,0.23-0.59,0.425
		c0,0.266,0.191,0.396,0.621,0.548c0.529,0.186,0.797,0.416,0.797,0.834c0,0.438-0.357,0.815-1.094,0.815
		c-0.301,0-0.629-0.079-0.797-0.18L26.713,29.342z"/>
	<path fill="#FFFFFF" d="M30.918,29.232c0,0.211,0.004,0.396,0.018,0.556h-0.361l-0.023-0.333h-0.008
		c-0.107,0.165-0.344,0.38-0.742,0.38c-0.354,0-0.773-0.177-0.773-0.894V27.75h0.406v1.128c0,0.389,0.131,0.648,0.502,0.648
		c0.273,0,0.463-0.173,0.537-0.336c0.023-0.056,0.037-0.124,0.037-0.19v-1.25h0.408V29.232z"/>
	<path fill="#FFFFFF" d="M31.594,28.415c0-0.261-0.01-0.472-0.018-0.665h0.365l0.02,0.349h0.01c0.166-0.248,0.43-0.396,0.795-0.396
		c0.543,0,0.951,0.418,0.951,1.036c0,0.732-0.49,1.096-1.02,1.096c-0.297,0-0.557-0.117-0.689-0.32h-0.01v1.107h-0.404V28.415z
		 M31.998,28.958c0,0.056,0.01,0.105,0.018,0.152c0.074,0.257,0.32,0.433,0.611,0.433c0.432,0,0.682-0.319,0.682-0.786
		c0-0.409-0.236-0.759-0.666-0.759c-0.279,0-0.539,0.182-0.617,0.46c-0.014,0.046-0.027,0.101-0.027,0.15V28.958z"/>
	<path fill="#FFFFFF" d="M34.23,28.415c0-0.261-0.008-0.472-0.018-0.665h0.365l0.02,0.349h0.01c0.166-0.248,0.43-0.396,0.797-0.396
		c0.543,0,0.949,0.418,0.949,1.036c0,0.732-0.49,1.096-1.02,1.096c-0.297,0-0.557-0.117-0.689-0.32h-0.01v1.107H34.23V28.415z
		 M34.635,28.958c0,0.056,0.01,0.105,0.018,0.152c0.074,0.257,0.32,0.433,0.613,0.433c0.43,0,0.682-0.319,0.682-0.786
		c0-0.409-0.236-0.759-0.668-0.759c-0.279,0-0.537,0.182-0.617,0.46c-0.014,0.046-0.027,0.101-0.027,0.15V28.958z"/>
	<path fill="#FFFFFF" d="M36.869,26.799h0.408v2.989h-0.408V26.799z"/>
	<path fill="#FFFFFF" d="M38.416,27.177c0.004,0.127-0.098,0.229-0.26,0.229c-0.143,0-0.246-0.102-0.246-0.229
		c0-0.131,0.107-0.23,0.256-0.23C38.318,26.946,38.416,27.046,38.416,27.177z M37.961,29.788V27.75h0.408v2.038H37.961z"/>
	<path fill="#FFFFFF" d="M39.273,28.837c0.01,0.5,0.361,0.706,0.77,0.706c0.293,0,0.469-0.046,0.621-0.105l0.07,0.267
		c-0.145,0.059-0.391,0.125-0.746,0.125c-0.691,0-1.104-0.412-1.104-1.026s0.398-1.1,1.051-1.1c0.734,0,0.928,0.586,0.928,0.961
		c0,0.075-0.01,0.135-0.014,0.173H39.273z M40.469,28.57c0.006-0.235-0.105-0.602-0.564-0.602c-0.412,0-0.594,0.345-0.625,0.602
		H40.469z"/>
	<path fill="#FFFFFF" d="M41.312,29.41c0.121,0.071,0.334,0.146,0.537,0.146c0.297,0,0.436-0.134,0.436-0.303
		c0-0.177-0.115-0.273-0.416-0.375c-0.402-0.13-0.594-0.331-0.594-0.577c0-0.327,0.293-0.598,0.775-0.598
		c0.227,0,0.426,0.06,0.551,0.127L42.5,28.099c-0.088-0.051-0.25-0.118-0.459-0.118c-0.242,0-0.377,0.128-0.377,0.278
		c0,0.17,0.135,0.245,0.428,0.346c0.389,0.135,0.588,0.312,0.588,0.614c0,0.357-0.305,0.61-0.838,0.61
		c-0.246,0-0.473-0.054-0.631-0.139L41.312,29.41z"/>
</g>
<circle fill="none" stroke="#FFFFFF" stroke-width="1.5" stroke-miterlimit="10" cx="8.653" cy="27.982" r="7.211"/>
<path fill="#FFFFFF" d="M40.668,29.479"/>
<g>
	<path fill="#FFFFFF" d="M10.065,26.806c-0.361,0.255-0.626,0.879-0.811,1.211c-0.083,0.165-0.208,0.561-0.395,0.498
		c-0.383-0.145-0.187-0.79-0.208-0.998c-0.042-0.415-0.28-0.101-0.571-0.267c-0.119-0.079-0.374-0.143-0.405-0.267
		c-0.018-0.071,0.061-0.311,0.091-0.393c0.229-0.707,0.989,0.094,1.342-0.01l0.188-0.333c-0.429-0.087-1.068-0.079-1.019-0.52
		c0.042-0.312,0.644-1.082,0.894-1.122c0.291-0.043,0.603,0.144,0.874,0.206c0.208,0.043,0.437,0.043,0.665,0.021
		c0,0,0.031,0.008,0.077,0.033c-0.471-0.692-1.267-1.15-2.167-1.15c-0.278,0-0.545,0.045-0.797,0.126
		c0.025,0.229-0.079,0.541-0.15,0.721c-0.063,0.187-0.39,0.392-0.574,0.338c-0.663-0.193-0.312,0.291-0.229,0.498
		c0.183,0.438-0.488,0.732-0.867,0.909c0,0.008-0.001,0.016-0.001,0.025l0,0.221l0.341,0.414c0.703,0.008,0.84,0.293,0.698,0.846
		l1.579,1.913c0.32-0.381,1.502-1.793,2.201-2.656C10.485,27.126,10.253,26.987,10.065,26.806z"/>
	<path fill="#FFFFFF" d="M8.653,21.284c-3.699,0-6.697,2.999-6.697,6.698c0,3.698,2.998,6.697,6.697,6.697
		c3.698,0,6.697-2.999,6.697-6.697C15.35,24.283,12.351,21.284,8.653,21.284z M8.62,32.46c-0.161,0-0.291-0.13-0.291-0.291
		c0-0.16,0.13-0.291,0.291-0.291c0.16,0,0.29,0.131,0.29,0.291C8.91,32.33,8.78,32.46,8.62,32.46z M9.5,29.004l0.037-0.044
		c-0.464,0.557-0.827,0.99-0.835,1l-0.083,0.098L7.747,29c-1.906,0.275-3.667,1.31-3.667,1.31s1.327-1.276,3.361-1.68l-1.649-2
		l0-0.297c0-1.56,1.269-2.828,2.829-2.828c1.56,0,2.828,1.269,2.828,2.828c0,0.003-0.016,0.276-0.016,0.276l-0.002,0.032
		l-0.02,0.023c-0.267,0.354-0.991,1.233-1.623,1.994l0.024-0.029c1.636,0.109,3.415,1.807,3.415,1.807S11.429,29.301,9.5,29.004z"/>
	<path fill="#FFFFFF" d="M9.48,26.299l0.151,0.089C9.615,26.376,9.52,26.314,9.48,26.299z"/>
</g>
<g>
	<path fill="#09809E" d="M39.943,64.155c0-0.705-0.52-1.291-1.197-1.396v-0.023h-4.842c-0.785,0-1.424,0.637-1.424,1.422
		c0,0.787,0.637,1.426,1.424,1.426h4.842V65.56C39.424,65.45,39.943,64.864,39.943,64.155z"/>
</g>
<rect x="32.943" y="52.396" fill="#FFFFFF" width="6.537" height="6.873"/>
<g>
	<g>
		
			<line fill="none" stroke="#F2F1F0" stroke-width="0.2032" stroke-linecap="round" x1="24.301" y1="77.388" x2="27.9" y2="77.388"/>
		<polyline fill="none" stroke="#F2F1F0" stroke-width="0.2032" stroke-linecap="round" points="27.9,77.388 29.701,79.188 
			29.701,79.188 		"/>
		
			<line fill="none" stroke="#F2F1F0" stroke-width="0.2032" stroke-linecap="round" x1="29.701" y1="82.788" x2="27.9" y2="84.589"/>
		<path fill="none" stroke="#F2F1F0" stroke-width="0.2032" stroke-linecap="round" d="M29.701,82.788"/>
		
			<line fill="none" stroke="#F2F1F0" stroke-width="0.2032" stroke-linecap="round" x1="15.301" y1="79.188" x2="17.1" y2="77.388"/>
		
			<line fill="none" stroke="#F2F1F0" stroke-width="0.2032" stroke-linecap="round" x1="17.1" y1="77.388" x2="20.701" y2="77.388"/>
		
			<line fill="none" stroke="#F2F1F0" stroke-width="0.2032" stroke-linecap="round" x1="20.701" y1="77.388" x2="22.501" y2="79.188"/>
		
			<line fill="none" stroke="#F2F1F0" stroke-width="0.2032" stroke-linecap="round" x1="22.501" y1="82.788" x2="20.701" y2="84.589"/>
		
			<line fill="none" stroke="#F2F1F0" stroke-width="0.2032" stroke-linecap="round" x1="20.701" y1="84.589" x2="17.1" y2="84.589"/>
		
			<line fill="none" stroke="#F2F1F0" stroke-width="0.2032" stroke-linecap="round" x1="17.1" y1="84.589" x2="15.301" y2="82.788"/>
		
			<line fill="none" stroke="#F2F1F0" stroke-width="0.2032" stroke-linecap="round" x1="24.301" y1="77.388" x2="22.501" y2="79.188"/>
		
			<line fill="none" stroke="#F2F1F0" stroke-width="0.2032" stroke-linecap="round" x1="22.501" y1="82.788" x2="24.301" y2="84.589"/>
		
			<line fill="none" stroke="#F2F1F0" stroke-width="0.2032" stroke-linecap="round" x1="27.9" y1="84.589" x2="24.301" y2="84.589"/>
		
			<line fill="none" stroke="#F2F1F0" stroke-width="0.2032" stroke-linecap="round" x1="2.701" y1="77.388" x2="6.301" y2="77.388"/>
		<line fill="none" stroke="#F2F1F0" stroke-width="0.2032" stroke-linecap="round" x1="6.301" y1="77.388" x2="8.1" y2="79.188"/>
		<line fill="none" stroke="#F2F1F0" stroke-width="0.2032" stroke-linecap="round" x1="8.1" y1="82.788" x2="6.301" y2="84.589"/>
		<line fill="none" stroke="#F2F1F0" stroke-width="0.2032" stroke-linecap="round" x1="8.1" y1="79.188" x2="9.9" y2="77.388"/>
		<line fill="none" stroke="#F2F1F0" stroke-width="0.2032" stroke-linecap="round" x1="9.9" y1="77.388" x2="13.501" y2="77.388"/>
		
			<line fill="none" stroke="#F2F1F0" stroke-width="0.2032" stroke-linecap="round" x1="13.501" y1="77.388" x2="15.301" y2="79.188"/>
		
			<line fill="none" stroke="#F2F1F0" stroke-width="0.2032" stroke-linecap="round" x1="15.301" y1="82.788" x2="13.501" y2="84.589"/>
		<line fill="none" stroke="#F2F1F0" stroke-width="0.2032" stroke-linecap="round" x1="13.501" y1="84.589" x2="9.9" y2="84.589"/>
		<line fill="none" stroke="#F2F1F0" stroke-width="0.2032" stroke-linecap="round" x1="9.9" y1="84.589" x2="8.1" y2="82.788"/>
		<line fill="none" stroke="#F2F1F0" stroke-width="0.2032" stroke-linecap="round" x1="0.9" y1="79.188" x2="0.9" y2="82.788"/>
		<line fill="none" stroke="#F2F1F0" stroke-width="0.2032" stroke-linecap="round" x1="2.701" y1="77.388" x2="0.9" y2="79.188"/>
		<line fill="none" stroke="#F2F1F0" stroke-width="0.2032" stroke-linecap="round" x1="0.9" y1="82.788" x2="2.701" y2="84.589"/>
		
			<line fill="none" stroke="#F2F1F0" stroke-width="0.2032" stroke-linecap="round" x1="6.301" y1="84.589" x2="2.701" y2="84.589"/>
		<circle id="connector22pad_4_" fill="none" stroke="#F4BD18" stroke-width="1.5" cx="26.016" cy="80.989" r="2.055"/>
		<circle id="connector22pad_3_" fill="none" stroke="#F4BD18" stroke-width="1.5" cx="11.616" cy="80.989" r="2.055"/>
		<circle id="connector22pad_2_" fill="none" stroke="#F4BD18" stroke-width="1.5" cx="4.417" cy="80.989" r="2.055"/>
		<circle id="connector22pad_1_" fill="none" stroke="#F4BD18" stroke-width="1.5" cx="18.816" cy="80.989" r="2.055"/>
	</g>
	<g>
		<line fill="none" stroke="#F2F1F0" stroke-width="0.2032" stroke-linecap="round" x1="36.9" y1="79.19" x2="38.699" y2="77.39"/>
		
			<line fill="none" stroke="#F2F1F0" stroke-width="0.2032" stroke-linecap="round" x1="38.699" y1="77.39" x2="42.301" y2="77.39"/>
		<polyline fill="none" stroke="#F2F1F0" stroke-width="0.2032" stroke-linecap="round" points="42.301,77.39 44.102,79.19 
			44.102,82.79 42.301,84.591 		"/>
		
			<line fill="none" stroke="#F2F1F0" stroke-width="0.2032" stroke-linecap="round" x1="42.301" y1="84.591" x2="38.699" y2="84.591"/>
		<line fill="none" stroke="#F2F1F0" stroke-width="0.2032" stroke-linecap="round" x1="38.699" y1="84.591" x2="36.9" y2="82.79"/>
		<path fill="none" stroke="#F2F1F0" stroke-width="0.2032" stroke-linecap="round" d="M27.9,77.39"/>
		<path fill="none" stroke="#F2F1F0" stroke-width="0.2032" stroke-linecap="round" d="M24.301,77.39"/>
		<path fill="none" stroke="#F2F1F0" stroke-width="0.2032" stroke-linecap="round" d="M29.699,79.19"/>
		<path fill="none" stroke="#F2F1F0" stroke-width="0.2032" stroke-linecap="round" d="M27.9,77.39"/>
		<path fill="none" stroke="#F2F1F0" stroke-width="0.2032" stroke-linecap="round" d="M27.9,84.591"/>
		<path fill="none" stroke="#F2F1F0" stroke-width="0.2032" stroke-linecap="round" d="M29.699,82.79"/>
		<line fill="none" stroke="#F2F1F0" stroke-width="0.2032" stroke-linecap="round" x1="29.699" y1="79.19" x2="31.5" y2="77.39"/>
		<line fill="none" stroke="#F2F1F0" stroke-width="0.2032" stroke-linecap="round" x1="31.5" y1="77.39" x2="35.102" y2="77.39"/>
		<line fill="none" stroke="#F2F1F0" stroke-width="0.2032" stroke-linecap="round" x1="35.102" y1="77.39" x2="36.9" y2="79.19"/>
		<line fill="none" stroke="#F2F1F0" stroke-width="0.2032" stroke-linecap="round" x1="36.9" y1="82.79" x2="35.102" y2="84.591"/>
		
			<line fill="none" stroke="#F2F1F0" stroke-width="0.2032" stroke-linecap="round" x1="35.102" y1="84.591" x2="31.5" y2="84.591"/>
		<line fill="none" stroke="#F2F1F0" stroke-width="0.2032" stroke-linecap="round" x1="31.5" y1="84.591" x2="29.699" y2="82.79"/>
		<path fill="none" stroke="#F2F1F0" stroke-width="0.2032" stroke-linecap="round" d="M22.501,82.79"/>
		<path fill="none" stroke="#F2F1F0" stroke-width="0.2032" stroke-linecap="round" d="M22.501,79.19"/>
		<path fill="none" stroke="#F2F1F0" stroke-width="0.2032" stroke-linecap="round" d="M22.501,79.19"/>
		<path fill="none" stroke="#F2F1F0" stroke-width="0.2032" stroke-linecap="round" d="M24.301,77.39"/>
		<path fill="none" stroke="#F2F1F0" stroke-width="0.2032" stroke-linecap="round" d="M24.301,84.591"/>
		<path fill="none" stroke="#F2F1F0" stroke-width="0.2032" stroke-linecap="round" d="M22.501,82.79"/>
		<path fill="none" stroke="#F2F1F0" stroke-width="0.2032" stroke-linecap="round" d="M24.301,84.591"/>
		<path fill="none" stroke="#F2F1F0" stroke-width="0.2032" stroke-linecap="round" d="M27.9,84.591"/>
		<circle id="connector22pad_7_" fill="none" stroke="#F4BD18" stroke-width="1.5" cx="33.217" cy="80.991" r="2.055"/>
		<circle id="connector22pad_6_" fill="none" stroke="#F4BD18" stroke-width="1.5" cx="26.018" cy="80.991" r="2.055"/>
		<circle id="connector22pad_5_" fill="none" stroke="#F4BD18" stroke-width="1.5" cx="40.416" cy="80.991" r="2.055"/>
	</g>
	<g>
		<g>
			<path fill="#FFFFFF" d="M1.59,76.304c0.151,0.078,0.382,0.154,0.622,0.154c0.257,0,0.393-0.105,0.393-0.268
				c0-0.154-0.118-0.242-0.416-0.35c-0.412-0.145-0.68-0.371-0.68-0.732c0-0.422,0.353-0.746,0.938-0.746
				c0.279,0,0.485,0.059,0.632,0.125L2.955,74.94c-0.1-0.049-0.276-0.119-0.519-0.119s-0.36,0.111-0.36,0.24
				c0,0.158,0.14,0.227,0.459,0.35c0.438,0.16,0.644,0.389,0.644,0.738c0,0.416-0.32,0.77-1,0.77c-0.283,0-0.563-0.074-0.703-0.152
				L1.59,76.304z"/>
			<path fill="#FFFFFF" d="M3.377,74.437c0.206-0.033,0.475-0.053,0.758-0.053c0.471,0,0.776,0.086,1.015,0.266
				c0.257,0.191,0.419,0.496,0.419,0.934c0,0.475-0.173,0.803-0.412,1.004c-0.261,0.217-0.658,0.32-1.144,0.32
				c-0.291,0-0.497-0.018-0.636-0.037V74.437z M3.939,76.458c0.048,0.012,0.125,0.012,0.195,0.012
				c0.507,0.004,0.838-0.275,0.838-0.867c0.003-0.516-0.298-0.787-0.78-0.787c-0.125,0-0.206,0.01-0.254,0.021V76.458z"/>
			<path fill="#FFFFFF" d="M6.275,76.245l-0.176,0.637H5.518l0.757-2.479h0.736l0.769,2.479H7.177l-0.191-0.637H6.275z
				 M6.904,75.825L6.75,75.3c-0.044-0.146-0.088-0.33-0.125-0.479H6.618C6.581,74.97,6.544,75.157,6.503,75.3l-0.147,0.525H6.904z"
				/>
		</g>
	</g>
	<g>
		<g>
			<path fill="#FFFFFF" d="M9.486,76.304c0.151,0.078,0.382,0.154,0.622,0.154c0.257,0,0.393-0.105,0.393-0.268
				c0-0.154-0.118-0.242-0.416-0.35c-0.412-0.145-0.68-0.371-0.68-0.732c0-0.422,0.353-0.746,0.938-0.746
				c0.279,0,0.485,0.059,0.632,0.125l-0.125,0.453c-0.1-0.049-0.276-0.119-0.519-0.119s-0.36,0.111-0.36,0.24
				c0,0.158,0.14,0.227,0.459,0.35c0.438,0.16,0.644,0.389,0.644,0.738c0,0.416-0.32,0.77-1,0.77c-0.283,0-0.563-0.074-0.703-0.152
				L9.486,76.304z"/>
			<path fill="#FFFFFF" d="M13.093,76.812c-0.103,0.051-0.334,0.107-0.636,0.107c-0.857,0-1.298-0.533-1.298-1.24
				c0-0.846,0.603-1.316,1.353-1.316c0.291,0,0.511,0.059,0.61,0.111l-0.114,0.443c-0.114-0.047-0.272-0.092-0.471-0.092
				c-0.445,0-0.791,0.27-0.791,0.82c0,0.496,0.294,0.809,0.794,0.809c0.169,0,0.357-0.035,0.467-0.08L13.093,76.812z"/>
			<path fill="#FFFFFF" d="M13.281,74.403h0.562v2.008h0.986v0.471h-1.548V74.403z"/>
		</g>
	</g>
	<g>
		<g>
			<path fill="#FFFFFF" d="M16.341,74.874h-0.666v-0.471h1.905v0.471h-0.677v2.008h-0.562V74.874z"/>
			<path fill="#FFFFFF" d="M19.07,76.882l-0.225-0.449c-0.092-0.172-0.151-0.301-0.221-0.445h-0.007
				c-0.051,0.145-0.114,0.273-0.191,0.445l-0.206,0.449h-0.64l0.717-1.254l-0.691-1.225h0.644l0.217,0.451
				c0.073,0.152,0.128,0.273,0.188,0.412h0.007c0.059-0.158,0.106-0.268,0.169-0.412l0.209-0.451h0.64l-0.699,1.209l0.735,1.27
				H19.07z"/>
			<path fill="#FFFFFF" d="M19.838,74.437c0.206-0.033,0.475-0.053,0.758-0.053c0.471,0,0.776,0.086,1.015,0.266
				c0.257,0.191,0.419,0.496,0.419,0.934c0,0.475-0.173,0.803-0.412,1.004c-0.261,0.217-0.658,0.32-1.144,0.32
				c-0.291,0-0.497-0.018-0.636-0.037V74.437z M20.401,76.458c0.048,0.012,0.125,0.012,0.195,0.012
				c0.507,0.004,0.838-0.275,0.838-0.867c0.003-0.516-0.298-0.787-0.78-0.787c-0.125,0-0.206,0.01-0.254,0.021V76.458z"/>
		</g>
	</g>
	<g>
		<g>
			<path fill="#FFFFFF" d="M23.03,74.437c0.18-0.029,0.449-0.053,0.746-0.053c0.369,0,0.625,0.057,0.802,0.195
				c0.146,0.117,0.229,0.291,0.229,0.52c0,0.316-0.225,0.533-0.439,0.609v0.012c0.174,0.07,0.27,0.234,0.332,0.463
				c0.076,0.279,0.154,0.604,0.201,0.699h-0.572c-0.041-0.07-0.1-0.273-0.174-0.578c-0.066-0.309-0.171-0.393-0.4-0.396h-0.17v0.975
				H23.03V74.437z M23.584,75.503h0.221c0.281,0,0.445-0.141,0.445-0.357c0-0.229-0.154-0.342-0.412-0.346
				c-0.136,0-0.213,0.012-0.254,0.018V75.503z"/>
			<path fill="#FFFFFF" d="M26.365,76.882l-0.225-0.449c-0.092-0.172-0.15-0.301-0.221-0.445h-0.008
				c-0.051,0.145-0.113,0.273-0.191,0.445l-0.205,0.449h-0.641l0.717-1.254L24.9,74.403h0.645l0.217,0.451
				c0.074,0.152,0.129,0.273,0.188,0.412h0.008c0.059-0.158,0.105-0.268,0.168-0.412l0.211-0.451h0.639l-0.697,1.209l0.734,1.27
				H26.365z"/>
			<path fill="#FFFFFF" d="M27.135,74.437c0.205-0.033,0.475-0.053,0.756-0.053c0.471,0,0.777,0.086,1.016,0.266
				c0.258,0.191,0.42,0.496,0.42,0.934c0,0.475-0.174,0.803-0.412,1.004c-0.262,0.217-0.658,0.32-1.145,0.32
				c-0.289,0-0.496-0.018-0.635-0.037V74.437z M27.697,76.458c0.047,0.012,0.125,0.012,0.193,0.012
				c0.508,0.004,0.84-0.275,0.84-0.867c0.004-0.516-0.299-0.787-0.779-0.787c-0.125,0-0.207,0.01-0.254,0.021V76.458z"/>
		</g>
	</g>
	<g>
		<g>
			<path fill="#FFFFFF" d="M32.014,76.767c-0.174,0.061-0.5,0.141-0.828,0.141c-0.453,0-0.779-0.113-1.008-0.334
				c-0.229-0.215-0.354-0.537-0.35-0.902c0.004-0.822,0.604-1.293,1.416-1.293c0.32,0,0.566,0.062,0.688,0.121l-0.117,0.447
				c-0.137-0.059-0.305-0.105-0.578-0.105c-0.467,0-0.818,0.264-0.818,0.801c0,0.512,0.318,0.812,0.779,0.812
				c0.129,0,0.23-0.014,0.275-0.035v-0.52H31.09v-0.438h0.924V76.767z"/>
			<path fill="#FFFFFF" d="M32.271,76.882v-2.479h0.654l0.516,0.908c0.146,0.26,0.293,0.57,0.404,0.85h0.01
				c-0.035-0.328-0.047-0.662-0.047-1.033v-0.725h0.514v2.479h-0.588l-0.529-0.957c-0.146-0.264-0.309-0.584-0.43-0.875
				l-0.012,0.004c0.016,0.328,0.021,0.676,0.021,1.082v0.746H32.271z"/>
			<path fill="#FFFFFF" d="M34.629,74.437c0.207-0.033,0.475-0.053,0.758-0.053c0.471,0,0.775,0.086,1.016,0.266
				c0.256,0.191,0.418,0.496,0.418,0.934c0,0.475-0.172,0.803-0.412,1.004c-0.26,0.217-0.658,0.32-1.143,0.32
				c-0.291,0-0.496-0.018-0.637-0.037V74.437z M35.191,76.458c0.049,0.012,0.125,0.012,0.195,0.012
				c0.508,0.004,0.838-0.275,0.838-0.867c0.004-0.516-0.297-0.787-0.779-0.787c-0.125,0-0.205,0.01-0.254,0.021V76.458z"/>
		</g>
	</g>
	<g>
		<g>
			<path fill="#FFFFFF" d="M38.354,76.882l-0.795-2.479h0.615l0.301,1.047c0.084,0.295,0.162,0.578,0.221,0.887h0.012
				c0.062-0.297,0.139-0.592,0.225-0.875l0.316-1.059h0.596l-0.836,2.479H38.354z"/>
			<path fill="#FFFFFF" d="M41.719,76.812c-0.104,0.051-0.334,0.107-0.637,0.107c-0.857,0-1.297-0.533-1.297-1.24
				c0-0.846,0.602-1.316,1.352-1.316c0.291,0,0.512,0.059,0.611,0.111l-0.113,0.443c-0.115-0.047-0.273-0.092-0.471-0.092
				c-0.445,0-0.791,0.27-0.791,0.82c0,0.496,0.293,0.809,0.793,0.809c0.17,0,0.357-0.035,0.469-0.08L41.719,76.812z"/>
			<path fill="#FFFFFF" d="M43.615,76.812c-0.102,0.051-0.334,0.107-0.635,0.107c-0.857,0-1.299-0.533-1.299-1.24
				c0-0.846,0.604-1.316,1.354-1.316c0.291,0,0.512,0.059,0.609,0.111l-0.113,0.443c-0.113-0.047-0.271-0.092-0.471-0.092
				c-0.445,0-0.791,0.27-0.791,0.82c0,0.496,0.295,0.809,0.795,0.809c0.17,0,0.357-0.035,0.467-0.08L43.615,76.812z"/>
		</g>
	</g>
</g>
<g>
	<path fill="#B5B5B5" d="M25.291,1.121c0,0,1.117-0.465,2.807-0.465c1.688,0,2.805,0.465,2.805,0.465v5.056h-5.611V1.121z"/>
	<path fill="#B5B5B5" d="M25.318,17.08h5.613v5.056c0,0-1.096,0.208-2.834,0.239c-1.74,0.031-2.779-0.239-2.779-0.239V17.08z"/>
	<path fill="#A3A3A3" d="M30.902,3.927h-5.611V2.511c0,0,1.736,0.458,2.807,0.458s2.805-0.458,2.805-0.458V3.927z"/>
	<path fill="#A3A3A3" d="M25.318,19.948h5.613v1.416c0,0-1.736-0.458-2.807-0.458s-2.807,0.458-2.807,0.458V19.948z"/>
	<path fill="#E6E1DC" d="M30.902,20.969c0,0-0.801-0.624-2.717-0.624s-2.895,0.624-2.895,0.624V3.333c0,0,1.18,0.511,2.66,0.511
		c1.535,0,2.951-0.511,2.951-0.511V20.969z"/>
	<path fill="#FFFFFF" d="M28.111,20.345c1.623,0,2.764,0.405,2.812,0.423l0.008,0.201c-0.012-0.004-1.234-0.425-2.82-0.425
		c-1.588,0-2.781,0.421-2.793,0.425l0.008-0.201C25.371,20.75,26.486,20.345,28.111,20.345z"/>
</g>
</svg>
