<?xml version="1.0" encoding="utf-8"?>
<!-- Generator: Adobe Illustrator 16.0.0, SVG Export Plug-In . SVG Version: 6.00 Build 0)  -->
<!DOCTYPE svg PUBLIC "-//W3C//DTD SVG 1.1//EN" "http://www.w3.org/Graphics/SVG/1.1/DTD/svg11.dtd">
<svg version="1.1" id="Layer_1" xmlns="http://www.w3.org/2000/svg" xmlns:xlink="http://www.w3.org/1999/xlink" x="0px" y="0px"
	 width="162.71px" height="94.39px" viewBox="0 0 162.71 94.39" enable-background="new 0 0 162.71 94.39" xml:space="preserve">
<desc>Fritzing schematic generated by brd2svg</desc>
<g id="schematic">
	
		<rect x="14.201" y="13.201" fill="none" stroke="#010101" stroke-width="2.4" stroke-linecap="round" stroke-linejoin="round" width="134.417" height="67.208"/>
	<text id="label" transform="matrix(1 0 0 1 47.1416 40.084)" fill="#010101" font-family="'LucidaGrande'" font-size="11.3807">uBlox MAX-6</text>
	
		<line fill="none" stroke="#010101" stroke-width="2.4" stroke-linecap="round" stroke-linejoin="round" x1="0.759" y1="40.084" x2="13.442" y2="40.084"/>
	<rect id="connector15pin" y="39.325" fill="none" width="13.442" height="1.518"/>
	<rect id="connector15terminal" y="39.325" fill="none" width="1.518" height="1.518"/>
	<text id="label15" transform="matrix(1 0 0 1 17.5381 41.6016)" fill="#010101" font-family="'LucidaGrande'" font-size="6.2821">SDA</text>
	
		<line fill="none" stroke="#010101" stroke-width="2.4" stroke-linecap="round" stroke-linejoin="round" x1="0.759" y1="53.525" x2="13.442" y2="53.525"/>
	<rect id="connector14pin" y="52.767" fill="none" width="13.442" height="1.518"/>
	<rect id="connector14terminal" y="52.767" fill="none" width="1.518" height="1.518"/>
	<text id="label14" transform="matrix(1 0 0 1 17.5381 55.043)" fill="#010101" font-family="'LucidaGrande'" font-size="6.2821">SCL</text>
	
		<line fill="none" stroke="#010101" stroke-width="2.4" stroke-linecap="round" stroke-linejoin="round" x1="148.617" y1="40.084" x2="162.06" y2="40.084"/>
	<rect id="connector12pin" x="149.376" y="39.325" fill="none" width="13.441" height="1.518"/>
	<rect id="connector12terminal" x="161.301" y="39.325" fill="none" width="1.517" height="1.518"/>
	<text id="label12" transform="matrix(1 0 0 1 132.8555 41.6016)" fill="#010101" font-family="'LucidaGrande'" font-size="6.2821">TXD</text>
	
		<line fill="none" stroke="#010101" stroke-width="2.4" stroke-linecap="round" stroke-linejoin="round" x1="148.617" y1="53.525" x2="162.06" y2="53.525"/>
	<rect id="connector13pin" x="149.376" y="52.767" fill="none" width="13.441" height="1.518"/>
	<rect id="connector13terminal" x="161.301" y="52.767" fill="none" width="1.517" height="1.518"/>
	<text id="label13" transform="matrix(1 0 0 1 134.1992 55.043)" fill="#010101" font-family="'LucidaGrande'" font-size="6.2821">RXD</text>
	
		<line fill="none" stroke="#010101" stroke-width="2.4" stroke-linecap="round" stroke-linejoin="round" x1="81.409" y1="-0.241" x2="81.409" y2="12.442"/>
	<rect id="connector10pin" x="80.65" y="-1" fill="none" width="1.518" height="13.442"/>
	<polygon id="connector10terminal" fill="none" points="80.65,-1 82.168,-1 82.168,-1 	"/>
	<text id="label10" transform="matrix(1 0 0 1 74.3896 20.4082)" fill="#010101" font-family="'LucidaGrande'" font-size="6.2821">3.3V</text>
	
		<line fill="none" stroke="#010101" stroke-width="2.4" stroke-linecap="round" stroke-linejoin="round" x1="81.409" y1="81.168" x2="81.409" y2="93.852"/>
	<rect id="connector11pin" x="80.65" y="81.168" fill="none" width="1.518" height="13.441"/>
	<polygon id="connector11terminal" fill="none" points="80.65,94.609 82.168,94.609 82.168,94.609 	"/>
	<text id="label11" transform="matrix(1 0 0 1 74.4658 77.5254)" fill="#010101" font-family="'LucidaGrande'" font-size="6.2821">GND</text>
</g>
</svg>
