<?xml version="1.0" encoding="utf-8"?>
<!-- Generator: Adobe Illustrator 16.0.0, SVG Export Plug-In . SVG Version: 6.00 Build 0)  -->
<!DOCTYPE svg PUBLIC "-//W3C//DTD SVG 1.1//EN" "http://www.w3.org/Graphics/SVG/1.1/DTD/svg11.dtd">
<svg version="1.1" id="Layer_1" xmlns="http://www.w3.org/2000/svg" xmlns:xlink="http://www.w3.org/1999/xlink" x="0px" y="0px"
	 width="48.19px" height="14.17px" viewBox="0 0 48.19 14.17" enable-background="new 0 0 48.19 14.17" xml:space="preserve">
<g id="silkscreen">
	<line fill="none" stroke="#F2F1F0" stroke-width="0.2032" stroke-linecap="round" x1="40.209" y1="4.548" x2="43.809" y2="4.548"/>
	<polyline fill="none" stroke="#F2F1F0" stroke-width="0.2032" stroke-linecap="round" points="43.809,4.548 45.609,6.349 
		45.609,9.949 	"/>
	
		<line fill="none" stroke="#F2F1F0" stroke-width="0.2032" stroke-linecap="round" x1="45.609" y1="9.949" x2="43.809" y2="11.748"/>
	<path fill="none" stroke="#F2F1F0" stroke-width="0.2032" stroke-linecap="round" d="M45.609,9.949"/>
	<line fill="none" stroke="#F2F1F0" stroke-width="0.2032" stroke-linecap="round" x1="31.209" y1="6.349" x2="33.008" y2="4.548"/>
	<line fill="none" stroke="#F2F1F0" stroke-width="0.2032" stroke-linecap="round" x1="33.008" y1="4.548" x2="36.609" y2="4.548"/>
	<line fill="none" stroke="#F2F1F0" stroke-width="0.2032" stroke-linecap="round" x1="36.609" y1="4.548" x2="38.409" y2="6.349"/>
	
		<line fill="none" stroke="#F2F1F0" stroke-width="0.2032" stroke-linecap="round" x1="38.409" y1="9.949" x2="36.609" y2="11.748"/>
	
		<line fill="none" stroke="#F2F1F0" stroke-width="0.2032" stroke-linecap="round" x1="36.609" y1="11.748" x2="33.008" y2="11.748"/>
	
		<line fill="none" stroke="#F2F1F0" stroke-width="0.2032" stroke-linecap="round" x1="33.008" y1="11.748" x2="31.209" y2="9.949"/>
	<line fill="none" stroke="#F2F1F0" stroke-width="0.2032" stroke-linecap="round" x1="40.209" y1="4.548" x2="38.409" y2="6.349"/>
	
		<line fill="none" stroke="#F2F1F0" stroke-width="0.2032" stroke-linecap="round" x1="38.409" y1="9.949" x2="40.209" y2="11.748"/>
	
		<line fill="none" stroke="#F2F1F0" stroke-width="0.2032" stroke-linecap="round" x1="43.809" y1="11.748" x2="40.209" y2="11.748"/>
	<line fill="none" stroke="#F2F1F0" stroke-width="0.2032" stroke-linecap="round" x1="18.609" y1="4.548" x2="22.209" y2="4.548"/>
	<line fill="none" stroke="#F2F1F0" stroke-width="0.2032" stroke-linecap="round" x1="22.209" y1="4.548" x2="24.008" y2="6.349"/>
	
		<line fill="none" stroke="#F2F1F0" stroke-width="0.2032" stroke-linecap="round" x1="24.008" y1="9.949" x2="22.209" y2="11.748"/>
	<line fill="none" stroke="#F2F1F0" stroke-width="0.2032" stroke-linecap="round" x1="24.008" y1="6.349" x2="25.809" y2="4.548"/>
	<line fill="none" stroke="#F2F1F0" stroke-width="0.2032" stroke-linecap="round" x1="25.809" y1="4.548" x2="29.409" y2="4.548"/>
	<line fill="none" stroke="#F2F1F0" stroke-width="0.2032" stroke-linecap="round" x1="29.409" y1="4.548" x2="31.209" y2="6.349"/>
	
		<line fill="none" stroke="#F2F1F0" stroke-width="0.2032" stroke-linecap="round" x1="31.209" y1="9.949" x2="29.409" y2="11.748"/>
	
		<line fill="none" stroke="#F2F1F0" stroke-width="0.2032" stroke-linecap="round" x1="29.409" y1="11.748" x2="25.809" y2="11.748"/>
	
		<line fill="none" stroke="#F2F1F0" stroke-width="0.2032" stroke-linecap="round" x1="25.809" y1="11.748" x2="24.008" y2="9.949"/>
	<line fill="none" stroke="#F2F1F0" stroke-width="0.2032" stroke-linecap="round" x1="16.809" y1="9.949" x2="16.809" y2="9.949"/>
	<line fill="none" stroke="#F2F1F0" stroke-width="0.2032" stroke-linecap="round" x1="18.609" y1="4.548" x2="16.809" y2="6.349"/>
	
		<line fill="none" stroke="#F2F1F0" stroke-width="0.2032" stroke-linecap="round" x1="16.809" y1="9.949" x2="18.609" y2="11.748"/>
	
		<line fill="none" stroke="#F2F1F0" stroke-width="0.2032" stroke-linecap="round" x1="22.209" y1="11.748" x2="18.609" y2="11.748"/>
	<line fill="none" stroke="#F2F1F0" stroke-width="0.2032" stroke-linecap="round" x1="11.428" y1="4.533" x2="15.027" y2="4.533"/>
	<polyline fill="none" stroke="#F2F1F0" stroke-width="0.2032" stroke-linecap="round" points="15.027,4.533 16.828,6.334 
		16.828,6.334 	"/>
	
		<line fill="none" stroke="#F2F1F0" stroke-width="0.2032" stroke-linecap="round" x1="16.828" y1="9.934" x2="15.027" y2="11.732"/>
	<path fill="none" stroke="#F2F1F0" stroke-width="0.2032" stroke-linecap="round" d="M16.828,9.934"/>
	<line fill="none" stroke="#F2F1F0" stroke-width="0.2032" stroke-linecap="round" x1="2.428" y1="6.334" x2="4.227" y2="4.533"/>
	<line fill="none" stroke="#F2F1F0" stroke-width="0.2032" stroke-linecap="round" x1="4.227" y1="4.533" x2="7.828" y2="4.533"/>
	<line fill="none" stroke="#F2F1F0" stroke-width="0.2032" stroke-linecap="round" x1="7.828" y1="4.533" x2="9.628" y2="6.334"/>
	<line fill="none" stroke="#F2F1F0" stroke-width="0.2032" stroke-linecap="round" x1="9.628" y1="9.934" x2="7.828" y2="11.732"/>
	<line fill="none" stroke="#F2F1F0" stroke-width="0.2032" stroke-linecap="round" x1="7.828" y1="11.732" x2="4.227" y2="11.732"/>
	<line fill="none" stroke="#F2F1F0" stroke-width="0.2032" stroke-linecap="round" x1="4.227" y1="11.732" x2="2.428" y2="9.934"/>
	<line fill="none" stroke="#F2F1F0" stroke-width="0.2032" stroke-linecap="round" x1="11.428" y1="4.533" x2="9.628" y2="6.334"/>
	<line fill="none" stroke="#F2F1F0" stroke-width="0.2032" stroke-linecap="round" x1="9.628" y1="9.934" x2="11.428" y2="11.732"/>
	
		<line fill="none" stroke="#F2F1F0" stroke-width="0.2032" stroke-linecap="round" x1="15.027" y1="11.732" x2="11.428" y2="11.732"/>
	<path fill="none" stroke="#F2F1F0" stroke-width="0.2032" stroke-linecap="round" d="M2.428,6.334"/>
	<path fill="none" stroke="#F2F1F0" stroke-width="0.2032" stroke-linecap="round" d="M2.428,9.934"/>
	<text transform="matrix(1 0 0 1 3.728 4.0239)" fill="#E6E7E8" font-family="'MyriadPro-Semibold'" font-size="3">SDA</text>
	<text transform="matrix(1 0 0 1 11.0278 4.0239)" fill="#E6E7E8" font-family="'MyriadPro-Semibold'" font-size="3">SCL</text>
	<text transform="matrix(1 0 0 1 18.0986 4.0239)" fill="#E6E7E8" font-family="'MyriadPro-Semibold'" font-size="3">TXD</text>
	<text transform="matrix(1 0 0 1 25.3457 4.0239)" fill="#E6E7E8" font-family="'MyriadPro-Semibold'" font-size="3">RXD</text>
	<text transform="matrix(1 0 0 1 32.1084 4.0239)" fill="#E6E7E8" font-family="'MyriadPro-Semibold'" font-size="3">GND</text>
	<text transform="matrix(1 0 0 1 39.6426 4.0239)" fill="#E6E7E8" font-family="'MyriadPro-Semibold'" font-size="3">VCC</text>
	<line fill="none" stroke="#F2F1F0" stroke-width="0.2032" stroke-linecap="round" x1="2.428" y1="6.334" x2="2.428" y2="9.934"/>
</g>
<g id="copper1">
	<g id="copper0">
		<circle id="connector22pad_13_" fill="none" stroke="#F4BD18" stroke-width="1.5" cx="34.809" cy="8.135" r="2.055"/>
		<circle id="connector22pad_12_" fill="none" stroke="#F4BD18" stroke-width="1.5" cx="27.609" cy="8.135" r="2.055"/>
		<circle id="connector22pad_11_" fill="none" stroke="#F4BD18" stroke-width="1.5" cx="42.01" cy="8.135" r="2.055"/>
		<circle id="connector22pad_10_" fill="none" stroke="#F4BD18" stroke-width="1.5" cx="13.209" cy="8.134" r="2.056"/>
		<circle id="connector22pad_9_" fill="none" stroke="#F4BD18" stroke-width="1.5" cx="6.009" cy="8.135" r="2.055"/>
		<circle id="connector22pad_1_" fill="none" stroke="#F4BD18" stroke-width="1.5" cx="20.41" cy="8.135" r="2.055"/>
	</g>
</g>
</svg>
